<mxfile host="app.diagrams.net" modified="2023-09-06T13:31:49.196Z" agent="Mozilla/5.0 (Macintosh; Intel Mac OS X 10_15_7) AppleWebKit/605.1.15 (KHTML, like Gecko) Version/16.6 Safari/605.1.15" etag="2oYwiTaSU5yNjY7pVcWa" version="21.7.2" type="device">
  <diagram name="Page-1" id="VKdxyDaF-EaKAbfRYhh4">
    <mxGraphModel dx="984" dy="667" grid="1" gridSize="10" guides="1" tooltips="1" connect="1" arrows="1" fold="1" page="1" pageScale="1" pageWidth="827" pageHeight="1169" math="0" shadow="0">
      <root>
        <mxCell id="0" />
        <mxCell id="1" parent="0" />
        <mxCell id="w3IxwE_P7BT00dSeWX34-1" value="" style="rounded=1;whiteSpace=wrap;html=1;arcSize=4;" vertex="1" parent="1">
          <mxGeometry x="10" y="20" width="850" height="450" as="geometry" />
        </mxCell>
        <mxCell id="w3IxwE_P7BT00dSeWX34-16" style="edgeStyle=orthogonalEdgeStyle;rounded=0;orthogonalLoop=1;jettySize=auto;html=1;exitX=0.5;exitY=0;exitDx=0;exitDy=0;entryX=0;entryY=0.5;entryDx=0;entryDy=0;startArrow=classic;startFill=1;" edge="1" parent="1" source="w3IxwE_P7BT00dSeWX34-2" target="w3IxwE_P7BT00dSeWX34-6">
          <mxGeometry relative="1" as="geometry" />
        </mxCell>
        <mxCell id="w3IxwE_P7BT00dSeWX34-19" style="edgeStyle=orthogonalEdgeStyle;rounded=0;orthogonalLoop=1;jettySize=auto;html=1;exitX=1;exitY=0.5;exitDx=0;exitDy=0;entryX=0.5;entryY=1.117;entryDx=0;entryDy=0;entryPerimeter=0;" edge="1" parent="1" source="w3IxwE_P7BT00dSeWX34-2" target="w3IxwE_P7BT00dSeWX34-4">
          <mxGeometry relative="1" as="geometry" />
        </mxCell>
        <mxCell id="w3IxwE_P7BT00dSeWX34-2" value="bs-rest_api-ms" style="rounded=1;whiteSpace=wrap;html=1;" vertex="1" parent="1">
          <mxGeometry x="30" y="385" width="120" height="60" as="geometry" />
        </mxCell>
        <mxCell id="w3IxwE_P7BT00dSeWX34-3" value="bs-database-db" style="rounded=1;whiteSpace=wrap;html=1;" vertex="1" parent="1">
          <mxGeometry x="580" y="45" width="120" height="60" as="geometry" />
        </mxCell>
        <mxCell id="w3IxwE_P7BT00dSeWX34-5" style="edgeStyle=orthogonalEdgeStyle;rounded=0;orthogonalLoop=1;jettySize=auto;html=1;startArrow=block;startFill=1;" edge="1" parent="1" source="w3IxwE_P7BT00dSeWX34-4" target="w3IxwE_P7BT00dSeWX34-3">
          <mxGeometry relative="1" as="geometry" />
        </mxCell>
        <mxCell id="w3IxwE_P7BT00dSeWX34-4" value="bs-db_connector-ms" style="rounded=1;whiteSpace=wrap;html=1;" vertex="1" parent="1">
          <mxGeometry x="580" y="135" width="120" height="60" as="geometry" />
        </mxCell>
        <mxCell id="w3IxwE_P7BT00dSeWX34-7" style="edgeStyle=orthogonalEdgeStyle;rounded=0;orthogonalLoop=1;jettySize=auto;html=1;entryX=0;entryY=0.25;entryDx=0;entryDy=0;startArrow=classic;startFill=1;exitX=1;exitY=0.5;exitDx=0;exitDy=0;" edge="1" parent="1" source="w3IxwE_P7BT00dSeWX34-6" target="w3IxwE_P7BT00dSeWX34-4">
          <mxGeometry relative="1" as="geometry">
            <mxPoint x="439" y="75" as="sourcePoint" />
            <Array as="points">
              <mxPoint x="570" y="75" />
              <mxPoint x="570" y="150" />
            </Array>
          </mxGeometry>
        </mxCell>
        <mxCell id="w3IxwE_P7BT00dSeWX34-6" value="bs-authentication-ms" style="rounded=1;whiteSpace=wrap;html=1;" vertex="1" parent="1">
          <mxGeometry x="141" y="45" width="150" height="60" as="geometry" />
        </mxCell>
        <mxCell id="w3IxwE_P7BT00dSeWX34-17" style="edgeStyle=orthogonalEdgeStyle;rounded=0;orthogonalLoop=1;jettySize=auto;html=1;exitX=0;exitY=0.5;exitDx=0;exitDy=0;startArrow=classic;startFill=1;" edge="1" parent="1" source="w3IxwE_P7BT00dSeWX34-9">
          <mxGeometry relative="1" as="geometry">
            <mxPoint x="90" y="385" as="targetPoint" />
          </mxGeometry>
        </mxCell>
        <mxCell id="w3IxwE_P7BT00dSeWX34-21" style="edgeStyle=orthogonalEdgeStyle;rounded=0;orthogonalLoop=1;jettySize=auto;html=1;entryX=0;entryY=0.5;entryDx=0;entryDy=0;startArrow=classic;startFill=1;" edge="1" parent="1" source="w3IxwE_P7BT00dSeWX34-29" target="w3IxwE_P7BT00dSeWX34-4">
          <mxGeometry relative="1" as="geometry" />
        </mxCell>
        <mxCell id="w3IxwE_P7BT00dSeWX34-9" value="bs-withdrawal-ms" style="rounded=1;whiteSpace=wrap;html=1;" vertex="1" parent="1">
          <mxGeometry x="141" y="125" width="150" height="60" as="geometry" />
        </mxCell>
        <mxCell id="w3IxwE_P7BT00dSeWX34-18" style="edgeStyle=orthogonalEdgeStyle;rounded=0;orthogonalLoop=1;jettySize=auto;html=1;exitX=0;exitY=0.5;exitDx=0;exitDy=0;startArrow=classic;startFill=1;" edge="1" parent="1" source="w3IxwE_P7BT00dSeWX34-10">
          <mxGeometry relative="1" as="geometry">
            <mxPoint x="90" y="385" as="targetPoint" />
          </mxGeometry>
        </mxCell>
        <mxCell id="w3IxwE_P7BT00dSeWX34-20" style="edgeStyle=orthogonalEdgeStyle;rounded=0;orthogonalLoop=1;jettySize=auto;html=1;entryX=0;entryY=0.75;entryDx=0;entryDy=0;startArrow=classic;startFill=1;" edge="1" parent="1" source="w3IxwE_P7BT00dSeWX34-31" target="w3IxwE_P7BT00dSeWX34-4">
          <mxGeometry relative="1" as="geometry" />
        </mxCell>
        <mxCell id="w3IxwE_P7BT00dSeWX34-37" style="edgeStyle=orthogonalEdgeStyle;rounded=0;orthogonalLoop=1;jettySize=auto;html=1;" edge="1" parent="1" source="w3IxwE_P7BT00dSeWX34-10" target="w3IxwE_P7BT00dSeWX34-31">
          <mxGeometry relative="1" as="geometry" />
        </mxCell>
        <mxCell id="w3IxwE_P7BT00dSeWX34-10" value="bs-deposit-ms" style="rounded=1;whiteSpace=wrap;html=1;" vertex="1" parent="1">
          <mxGeometry x="141" y="205" width="150" height="60" as="geometry" />
        </mxCell>
        <mxCell id="w3IxwE_P7BT00dSeWX34-22" style="edgeStyle=orthogonalEdgeStyle;rounded=0;orthogonalLoop=1;jettySize=auto;html=1;entryX=0;entryY=1;entryDx=0;entryDy=0;startArrow=classic;startFill=1;" edge="1" parent="1" source="w3IxwE_P7BT00dSeWX34-33" target="w3IxwE_P7BT00dSeWX34-4">
          <mxGeometry relative="1" as="geometry" />
        </mxCell>
        <mxCell id="w3IxwE_P7BT00dSeWX34-23" style="edgeStyle=orthogonalEdgeStyle;rounded=0;orthogonalLoop=1;jettySize=auto;html=1;startArrow=classic;startFill=1;" edge="1" parent="1" source="w3IxwE_P7BT00dSeWX34-12">
          <mxGeometry relative="1" as="geometry">
            <mxPoint x="90" y="385" as="targetPoint" />
          </mxGeometry>
        </mxCell>
        <mxCell id="w3IxwE_P7BT00dSeWX34-35" style="edgeStyle=orthogonalEdgeStyle;rounded=0;orthogonalLoop=1;jettySize=auto;html=1;entryX=0;entryY=0.5;entryDx=0;entryDy=0;startArrow=classic;startFill=1;" edge="1" parent="1" source="w3IxwE_P7BT00dSeWX34-12" target="w3IxwE_P7BT00dSeWX34-33">
          <mxGeometry relative="1" as="geometry" />
        </mxCell>
        <mxCell id="w3IxwE_P7BT00dSeWX34-12" value="bs-transfer-ms" style="rounded=1;whiteSpace=wrap;html=1;" vertex="1" parent="1">
          <mxGeometry x="141" y="285" width="150" height="60" as="geometry" />
        </mxCell>
        <mxCell id="w3IxwE_P7BT00dSeWX34-26" style="edgeStyle=orthogonalEdgeStyle;rounded=0;orthogonalLoop=1;jettySize=auto;html=1;entryX=0.5;entryY=0;entryDx=0;entryDy=0;" edge="1" parent="1" source="w3IxwE_P7BT00dSeWX34-24" target="w3IxwE_P7BT00dSeWX34-25">
          <mxGeometry relative="1" as="geometry" />
        </mxCell>
        <mxCell id="w3IxwE_P7BT00dSeWX34-24" value="bs-task_broker-bm" style="rounded=1;whiteSpace=wrap;html=1;" vertex="1" parent="1">
          <mxGeometry x="730" y="45" width="120" height="60" as="geometry" />
        </mxCell>
        <mxCell id="w3IxwE_P7BT00dSeWX34-25" value="bs-worker_1-worker" style="rounded=1;whiteSpace=wrap;html=1;" vertex="1" parent="1">
          <mxGeometry x="730" y="135" width="120" height="60" as="geometry" />
        </mxCell>
        <mxCell id="w3IxwE_P7BT00dSeWX34-30" value="" style="edgeStyle=orthogonalEdgeStyle;rounded=0;orthogonalLoop=1;jettySize=auto;html=1;entryX=0;entryY=0.5;entryDx=0;entryDy=0;startArrow=classic;startFill=1;" edge="1" parent="1" source="w3IxwE_P7BT00dSeWX34-9" target="w3IxwE_P7BT00dSeWX34-29">
          <mxGeometry relative="1" as="geometry">
            <mxPoint x="291" y="155" as="sourcePoint" />
            <mxPoint x="580" y="165" as="targetPoint" />
          </mxGeometry>
        </mxCell>
        <mxCell id="w3IxwE_P7BT00dSeWX34-29" value="Celery" style="shape=image;verticalLabelPosition=bottom;labelBackgroundColor=default;verticalAlign=top;aspect=fixed;imageAspect=0;image=data:image/png,iVBORw0KGgoAAAANSUhEUgAAAHQAAAB0CAYAAABUmhYnAAAMQGlDQ1BJQ0MgUHJvZmlsZQAASImVVwdYU8kWnltSIQQIICAl9CaI1ABSQmgBpBdBVEISIJQYA0HFji4quHaxgA1dFVHsgFhQxM6i2PtiQUVZFwt25U0K6LqvfG++b+78958z/zlz7sy9dwCgH+dJJHmoJgD54kJpXGggc3RKKpP0FJCBKaADAzCMxy+QsGNiIgEsA+3fy7vrAJG3VxzlWv/s/69FSyAs4AOAxECcISjg50N8AAC8ii+RFgJAlPMWkwolcgwr0JHCACGeL8dZSlwlxxlKvEdhkxDHgbgVALI6jyfNAkDjEuSZRfwsqKHRC7GzWCASA0BnQuyXnz9BAHE6xLbQRgKxXJ+V8YNO1t80MwY1ebysQayci6KQg0QFkjzelP8zHf+75OfJBnxYw6qeLQ2Lk88Z5u1m7oQIOVaHuEecERUNsTbEH0QChT3EKDVbFpaotEeN+AUcmDOgB7GzgBcUAbERxCHivKhIFZ+RKQrhQgxXCDpZVMhNgFgf4vnCguB4lc1G6YQ4lS+0PlPKYav4szypwq/c131ZbiJbpf86W8hV6WMaxdkJyRBTIbYsEiVFQawBsVNBbnyEymZkcTYnasBGKouTx28JcZxQHBqo1MeKMqUhcSr7svyCgfliG7NF3CgV3leYnRCmzA/Wyucp4odzwS4JxezEAR1hwejIgbkIhEHByrljz4TixHiVzgdJYWCccixOleTFqOxxc2FeqJw3h9itoCheNRZPKoQLUqmPZ0oKYxKUceLFObzwGGU8+BIQCTggCDCBDNYMMAHkAFF7T0MPvFP2hAAekIIsIASOKmZgRLKiRwyv8aAY/AmREBQMjgtU9ApBEeS/DrLKqyPIVPQWKUbkgicQ54MIkAfvZYpR4kFvSeAxZET/8M6DlQ/jzYNV3v/v+QH2O8OGTKSKkQ14ZNIHLInBxCBiGDGEaIcb4n64Dx4JrwGwuuAs3GtgHt/tCU8IHYSHhGuETsKt8aIS6U9RjgKdUD9ElYuMH3OBW0NNdzwQ94XqUBnXww2BI+4G/bBxf+jZHbIcVdzyrDB/0v7bDH54Gio7ijMFpQyhBFBsfx6pYa/hPqgiz/WP+VHGmjGYb85gz8/+OT9kXwDbiJ8tsfnYfuwMdgI7hx3BGgATa8YasTbsqBwPrq7HitU14C1OEU8u1BH9w9/Ak5VnssC51rnb+Yuyr1A4Wf6OBpwJkilSUVZ2IZMNvwhCJlfMdxrGdHF2cQVA/n1Rvr7exCq+G4he23duzh8A+Db39/cf/s6FNwOw1xNu/0PfOVsW/HSoAXD2EF8mLVJyuPxCgG8JOtxpBsAEWABbOB8X4AF8QAAIBuEgGiSAFDAORp8N17kUTALTwGxQCsrBErASrAUbwGawHewC+0ADOAJOgNPgArgEroE7cPV0gRegF7wDnxEEISE0hIEYIKaIFeKAuCAsxA8JRiKROCQFSUeyEDEiQ6Yhc5ByZBmyFtmE1CB7kUPICeQc0oHcQh4g3chr5BOKoeqoDmqMWqPDURbKRiPQBHQsmoVORIvRuegidDVaje5E69ET6AX0GtqJvkD7MICpYXqYGeaIsTAOFo2lYpmYFJuBlWEVWDVWhzXB53wF68R6sI84EWfgTNwRruAwPBHn4xPxGfhCfC2+Ha/HW/Er+AO8F/9GoBGMCA4EbwKXMJqQRZhEKCVUELYSDhJOwb3URXhHJBL1iDZET7gXU4g5xKnEhcR1xN3E48QO4iNiH4lEMiA5kHxJ0SQeqZBUSlpD2klqJl0mdZE+kNXIpmQXcgg5lSwml5AryDvIx8iXyU/JnymaFCuKNyWaIqBMoSymbKE0US5SuiifqVpUG6ovNYGaQ51NXU2to56i3qW+UVNTM1fzUotVE6nNUluttkftrNoDtY/q2ur26hz1NHWZ+iL1berH1W+pv6HRaNa0AFoqrZC2iFZDO0m7T/ugwdBw0uBqCDRmalRq1Gtc1nhJp9Ct6Gz6OHoxvYK+n36R3qNJ0bTW5GjyNGdoVmoe0ryh2afF0BqhFa2Vr7VQa4fWOa1n2iRta+1gbYH2XO3N2ie1HzEwhgWDw+Az5jC2ME4xunSIOjY6XJ0cnXKdXTrtOr262rpuukm6k3UrdY/qduphetZ6XL08vcV6+/Su630aYjyEPUQ4ZMGQuiGXh7zXH6ofoC/UL9PfrX9N/5MB0yDYINdgqUGDwT1D3NDeMNZwkuF6w1OGPUN1hvoM5Q8tG7pv6G0j1MjeKM5oqtFmozajPmMT41BjifEa45PGPSZ6JgEmOSYrTI6ZdJsyTP1MRaYrTJtNnzN1mWxmHnM1s5XZa2ZkFmYmM9tk1m722dzGPNG8xHy3+T0LqgXLItNihUWLRa+lqeUoy2mWtZa3rShWLKtsq1VWZ6zeW9tYJ1vPs26wfmajb8O1KbaptblrS7P1t51oW2171Y5ox7LLtVtnd8ketXe3z7avtL/ogDp4OIgc1jl0DCMM8xomHlY97IajuiPbscix1vGBk55TpFOJU4PTy+GWw1OHLx1+Zvg3Z3fnPOctzndGaI8IH1EyomnEaxd7F75LpctVV5priOtM10bXV24ObkK39W433Rnuo9znube4f/Xw9JB61Hl0e1p6pntWed5g6bBiWAtZZ70IXoFeM72OeH309vAu9N7n/ZePo0+uzw6fZyNtRgpHbhn5yNfcl+e7ybfTj+mX7rfRr9PfzJ/nX+3/MMAiQBCwNeAp246dw97JfhnoHCgNPBj4nuPNmc45HoQFhQaVBbUHawcnBq8Nvh9iHpIVUhvSG+oeOjX0eBghLCJsadgNrjGXz63h9oZ7hk8Pb41Qj4iPWBvxMNI+UhrZNAodFT5q+ai7UVZR4qiGaBDNjV4efS/GJmZizOFYYmxMbGXsk7gRcdPizsQz4sfH74h/lxCYsDjhTqJtoiyxJYmelJZUk/Q+OSh5WXLn6OGjp4++kGKYIkppTCWlJqVuTe0bEzxm5ZiuNPe00rTrY23GTh57bpzhuLxxR8fTx/PG708npCen70j/wovmVfP6MrgZVRm9fA5/Ff+FIECwQtAt9BUuEz7N9M1clvksyzdreVZ3tn92RXaPiCNaK3qVE5azIed9bnTuttz+vOS83fnk/PT8Q2Jtca64dYLJhMkTOiQOklJJ50TviSsn9kojpFsLkIKxBY2FOvBHvk1mK/tF9qDIr6iy6MOkpEn7J2tNFk9um2I/ZcGUp8Uhxb9Nxafyp7ZMM5s2e9qD6ezpm2YgMzJmtMy0mDl3Ztes0FnbZ1Nn587+vcS5ZFnJ2znJc5rmGs+dNffRL6G/1JZqlEpLb8zzmbdhPj5fNL99geuCNQu+lQnKzpc7l1eUf1nIX3j+1xG/rv61f1HmovbFHovXLyEuES+5vtR/6fZlWsuKlz1aPmp5/QrmirIVb1eOX3muwq1iwyrqKtmqztWRqxvXWK5ZsubL2uy11yoDK3dXGVUtqHq/TrDu8vqA9XUbjDeUb/i0UbTx5qbQTfXV1tUVm4mbizY/2ZK05cxvrN9qthpuLd/6dZt4W+f2uO2tNZ41NTuMdiyuRWtltd0703Ze2hW0q7HOsW7Tbr3d5XvAHtme53vT917fF7GvZT9rf90BqwNVBxkHy+qR+in1vQ3ZDZ2NKY0dh8IPtTT5NB087HR42xGzI5VHdY8uPkY9NvdYf3Nxc99xyfGeE1knHrWMb7lzcvTJq62xre2nIk6dPR1y+uQZ9pnms75nj5zzPnfoPOt8wwWPC/Vt7m0Hf3f//WC7R3v9Rc+LjZe8LjV1jOw4dtn/8okrQVdOX+VevXAt6lrH9cTrN2+k3ei8Kbj57FberVe3i25/vjPrLuFu2T3NexX3je5X/2H3x+5Oj86jD4IetD2Mf3jnEf/Ri8cFj790zX1Ce1Lx1PRpzTOXZ0e6Q7ovPR/zvOuF5MXnntI/tf6semn78sBfAX+19Y7u7XolfdX/euEbgzfb3rq9bemL6bv/Lv/d5/dlHww+bP/I+njmU/Knp58nfSF9Wf3V7mvTt4hvd/vz+/slPClP8SuAwYpmZgLwehsAtBQAGPB8Rh2jPP8pCqI8syoQ+E9YeUZUFA8A6uD/e2wP/Lu5AcCeLfD4BfXpaQDE0ABI8AKoq+tgHTirKc6V8kKE54CN8V8z8jPAvynKM+cPcf/cArmqG/i5/Rf24XyI1LzWjgAAAIplWElmTU0AKgAAAAgABAEaAAUAAAABAAAAPgEbAAUAAAABAAAARgEoAAMAAAABAAIAAIdpAAQAAAABAAAATgAAAAAAAACQAAAAAQAAAJAAAAABAAOShgAHAAAAEgAAAHigAgAEAAAAAQAAAHSgAwAEAAAAAQAAAHQAAAAAQVNDSUkAAABTY3JlZW5zaG90Z2Ni1wAAAAlwSFlzAAAWJQAAFiUBSVIk8AAAAdZpVFh0WE1MOmNvbS5hZG9iZS54bXAAAAAAADx4OnhtcG1ldGEgeG1sbnM6eD0iYWRvYmU6bnM6bWV0YS8iIHg6eG1wdGs9IlhNUCBDb3JlIDYuMC4wIj4KICAgPHJkZjpSREYgeG1sbnM6cmRmPSJodHRwOi8vd3d3LnczLm9yZy8xOTk5LzAyLzIyLXJkZi1zeW50YXgtbnMjIj4KICAgICAgPHJkZjpEZXNjcmlwdGlvbiByZGY6YWJvdXQ9IiIKICAgICAgICAgICAgeG1sbnM6ZXhpZj0iaHR0cDovL25zLmFkb2JlLmNvbS9leGlmLzEuMC8iPgogICAgICAgICA8ZXhpZjpQaXhlbFlEaW1lbnNpb24+MTE2PC9leGlmOlBpeGVsWURpbWVuc2lvbj4KICAgICAgICAgPGV4aWY6UGl4ZWxYRGltZW5zaW9uPjExNjwvZXhpZjpQaXhlbFhEaW1lbnNpb24+CiAgICAgICAgIDxleGlmOlVzZXJDb21tZW50PlNjcmVlbnNob3Q8L2V4aWY6VXNlckNvbW1lbnQ+CiAgICAgIDwvcmRmOkRlc2NyaXB0aW9uPgogICA8L3JkZjpSREY+CjwveDp4bXBtZXRhPgojSN9YAAAAHGlET1QAAAACAAAAAAAAADoAAAAoAAAAOgAAADoAACjTItoEZAAAKJ9JREFUeAHMnfmvZdl1189983v1hq7urp6qu6rdg38J4W+CCAkJIYSEhBCISeDECOQoURS3MYoihgSbRBF4iB0SQQIhxvCDo0gZum23u6unGrq66lW9evO7fD7ftfe591W120CCxLnv3D2tvfbe67vX2mvvc27V5P7htemDg/vD3Xt3h/39veH45GiYTk+HpcXJsLSyOKysLA+LSwvDMJxxT9tNMMam0Jua5J4kNE1OsmY5EzOS2cpHork09TtJ8YV/ivmuSA/I/bg8s1udRl/c/+y+HVauMdIzDCf0SpnYt953smswIZzv1sexmDQC5bWwuJCqJ6cnw+nJCficDCfHp8Snw+JkZVhb3RzW17aGDe7V1fVh8uHe69P7D+4OH935cLh//95wdHRAd06H5WXAXF0eVtdWhqUASiu9JQXZrjFmhA70T4qDn1/+CVTdlpn2L/GO4JjfCmwnf62VSkJV6Xw3QVXwUH4l08b/i6+PZy+Y4nfG3QCdCx/pRxt7RvwQwwXltSCgICKYx8fDEffJkaBOhwUAXV3ZHDbWd4atzYuAujlMfnD929P7e3fQ0NvDAzT06PgwAltGO5dXlgB1aVhklgyT0tA52be+deELER8J5oiShjKzzfKFohNMY4+GyX1k3GaM41VAvdm5glEfKM81VqjkJ333uj+89c5yxnQWm3GensmJD4UdVEujsS1/Rt1ivb8PFXT5yPP0VK0sUE9PzogjuinKtriBhm4P2wB6YWN7mHznjW9O9/bvAObucHC0P6jaEzRxBTAFdQlNnYhntNMhcDdh1uALFDPNnkhcKDUy8kNiiAlpgBet39aZD0Nc+f27iucQtVIle5GkJeD6Ho1JePzorxK4bGftP1IL1h34cxOqEUYjnWx2wZDPWQPYzqVu8nsFw0ZfBE1m5qYodQT0DEC9Twwxt2enCoDlcLI+rCyXll5Y3xom//l//tJ0/+gethkwz44Z0Rl2ewLRYtbOhSVBaNxt5iFJFRhdrIqjC0QAIefL0pQYb7ccU6uVS8xf5SZs5dZsaUt77ph5rmxGkexIpfJ+1HcXYHXqE6gh7GA+yl5wNLXUFzjusxbKMZPG+oFrBmSnH1uVptULjzN4cp+1GxeHOIqGhi4M6wF1cbLGGroxTL7y269Nj0726CRgLhSYS8sLw/LSYoCdLKR3dmfubk0jtQhOiVtsSmASrbADalnWBMtDUPQVb3mpOxYWu8arqGVvOY5HI6u0pXXN2iOdPvWSuXCuieSGrsT8cNFcrTE6z7bi7TtBAToDZA4cOQiUHfMvSBrt6QxZIgAUNEwrFtMw9aQP0KyrAXQ1gE7PVobTY5zYxZVh8qVvfm56Ot0fFpenmFeAbGZ2ES3Veurxzjzc9IhWYWwnxquEbLIL3K4lNyAV4SOARnrSEfGvgZVgjnfLDl2VUaPVHYHtPELVWx+ZnI+k7nz/EWATbhGG4Hydj0kJRLgoZMvDg7jy9xPhV3Y0NyRQ5q/CVBu/JDDBRd3Ts1Oc1OOYWvPbkAkFZolwFe3cAMyF4cHe8TDFDE++/BsAOuwD5sA2ZYJ3ixOEV7uwGK7wOYX3WWNma51ztTwOvUk94FiV9PiByGJpA1qh0UAxn08IjM2uArjXqfopDe8wq8xU6q01+hmb8zG6HfH3SZlhKHzJptWP8zVmqRpy0j2KPlItHCOacA+QxZPlj2LjdVs5k6flF3MsTmfYQwp0hPRsz06b/MlTJvFTAugy0K4Ox0eT4cH9w3KUvvq7n58enz4YhsVTQMQVZsHEU6YmnDNomVU8OAQY0/mTkAbS0gyMCHxhbLw6gbAgq3pVOfAlKo+kileRJc8qZlrXsUYYZukt2/Dog0kR9vVdyeRF5vVFugtXKFqfZNwayFirVvsuRpLMpN76Eg5zxBDJs4NnqFMUx6gYQFAtdBrI/Ut+51TgwqfXdVacu+jTVC1dhPcC25hhODpE8U6R+Te//S+mh6d7DKjW0HQ/YPZtioPmHgVHXCLuolWwxntGxZ1FuZ0gAhLiWa8KZNOpmYlUsSbkznOkcOD1SZ0G6MSlIfwfaoB6EajS4S6h2Z4X6TgvVWb6XNtFXaSOyxpzDIz2dLIhqXRIicu/HCK1S0AlaCMjziIWGhnlbxbKInlVMHVNgTbZFSQuoGa7fTkBupNjF10cpT89oIiXNqMtbfAKp4QMqKj7eUDbhGgitLK0oamuNi4flxBKLunhG94J04HwabUkwmSdMdBj1iKsTOtj+oXEFHiE7II3SlXW81KbcSuZVlm+rW69qt1i4dT4/hkC2vpXrbUGGZ9d98TI+/iIBBo7+QYaenR6n5G4U62Ba2rpTgYX7SStQMwvwRj3jyaaoMihLERkNUCjnU1TLcpV3SrBVp3Qq3GdpIUFtKZBGRUIBQQZtCWgi4t444TVsZBamNs16PDwEA1xLDUJPCRx8hSNPN0DdFH1ySafnme82q9YL+lwVjr9agSWmC5zO6+hEtA2rMftDPG01MOUW7+Y9YnU060JKjVAM2mnTUOR9Te+/cVsWwpQBhf5yc3BFajzQCqLUR6hqSZGMCnMx7ABuqC9VobjBe/+Cb8mZBm3gUi6iGe2vLwcSjfUJ/2kxM01INjmEuULenDhP9/IJJvwDqjAey8tLeHeOwmYzTaHJxmnr7U709C5jtCpUaCZ7HZzrpxonKOMz5KiH/eNTKheP1659GT0yRlOph1EY1v0xSettfyZCCfIAD4CioaeqKGsp5Nv/Pd/Pj1kH9o1dOj7TrWxayntOHjbUxkMu3amB0kXRBIKoMKOVhCPRlj/3NXLm7kVdBnnqnCRxpYWl+McHB4eDQeHBzxA2Cc8wsSUKe30EUarXXw0ubr9PGwgXxCdHN4BFWBXiK+trsSzt7wmpdTtzriKaYRPOnIV1I5Qa1M4UmbYwDoH6FgeeDImWaRWwtas/Fq62pCfeZ2/BF5dQ0s7A6gm99e/9QUAnZncyJQOO+ecrQLp4UJC4+2WLqCGOfQWkKMjVGtmB6qA49vidFbafAgFX886rrgEmcJhWgNjIEeHx8ODB/vDvXv3h917uzxE2APYA/IOhr29B7j2LBfUtdezi+lI3dOT03RNTRbAlZWVPEFaZp+2s709PPvsM8PFxx4b1tfXANq9WqTXQrjSt1wRKEJNUuFCR16/UqulU0q8AMWadAes9dDy8nyrfp8cc+zGSVHt2NSsreqP4+trKFp6BCWO0uTrv/fa9PAYQBdqDY3Qm3bG1GotO7AM5jygsp41VFpZ2jkDtTQveLfRlyZA5yc8nQQKUzPCYDUjuG9HaOKDvX2Ae5BwF0Dv3L0bQAV47/7+sLu7xzqJm2ftMGshaU2SWmojK+yvV9DGtdVVjsgAdXkFIHeGy889Nzz+BE8qBBSa4DWO1zW61mnB9lx7Ec32kVaNlUYYfgdQoXdTqhkXSEE13qgIW4xx9nrJmwNMPuNdhY8CGll1QPsaioZ+/fc+Pz04+hhAMyg6EoGXQYu8ArCtKKdm6CIFSY00k9u0LrAVaikNw6ocYWQtZOHWDOqiu5E+2D8c9h7sDXc+ujPcuH5z2L17D9AAF628d28voWAfHByjoUesIeyhaSOa7rqdtjW5U+qxRtLeCidgazwKFLi1NUBdWeXpxPqwvb0V7fRx4aLHna2+lsO0By3r6+vD1tZm7gtbF6i/xtEowLIkyFvA9KjPWI9PA2LTSlWoKNqwhbDoHwWzQKRYijYxjM7yZ1paAp+e1Rh9lFbbFqT9tf/289NDAJ3q5XKW2x2gCjW1dGGcsUQDMA0Z0nAgNLNdpXVtBjNgP5nNlkMX0Ed6U7WfchILmoDt7u4Od+7cGW7duj1c/+DGcJ88gde07h8c5jjM+NGRJykK0rV9ghM1A1XOARQatUbAVnmCFDCjoa6nnIrRR+u5hNvPPhlcAtRKnwlvbl4YHr/42PAY9w5afeHCRky3k3BBB6uPBz7KykuQ8yjNgSkny7h0noCryqOVHTDqWRWyUTs7mIapPf+lNVNDvc9m25av/e7PRUM94hsWar1Jp/q62cMGqg3af7sXsGkppi5tKcYq7I6RpjQDplLKUp7a0co1nrI7u3fv3h8+/PCj4fr168ONG7eIf4iG7gLu/QC5tIg5hId7SukFVJDtSYBoa3G2MLaBCE4pj+ZApjw1lcvw6WZUgR8fHyGQkwh4Zi7LXEu3yvPgzc314eLFHQDdCaAbGxtMBtZjJsY62rrKHVOO5q+tc77KRPDS3LqGC24ApQ9CE7AFPHdyRLGEKnTEe1/kE808B6rjI39eQ7MPRXm++l9/dnpwqFNEw25T9HKdZX3tPBdWm5mQAgzTYi37EmwPRyEj6JwYpZKlMGy1FhbYQuCcaGJv3Phw+ABtfO/d94YbNz8c7t5hrWT91CHy0plRIxRMASEIPFAgz+2N+X0S2Xaf5WKeeGvVbljux3X6EI338MF1O5MFECpe4/Mhxfr6yrC1fSGaqnYuA6QT1bV4ExO8tblJWCZ5CxMuwNF02ggYtFmaT1/6h/3vI4A6UOTa+97D1GIc56+moSwrp5jcHCx4UvTV//Iz0/3De7TYAAXUyPthIEdNVSB125DYW0Eh9TACU2PaPQ+oNOUqul6e4PAcool3hw/ev4l23hxuop06Pz5lcG10lqt1KzgzrlsCF/NLuZfvPHXtrXbtXIrOfakASIoeqxklHSeGTpO3+9HS/grPFFQr08Joen2kOEFr6RJ9O4uWbm9voLWbw2N4yhcvXkSLeXMAE929aT3rOFOMIZMxAmug0ZfeJ2VZf/OAloFOfuvzbFAdUEzuPKBf+Z2fzgNuNTSvmdhgtJSksulAEmq27FRMLZyVW8nOvNK8LlTT0Rg0smtOGEaWVfP+vQdo5c3h/fdvAOiNrJl37/BeE0BnX2iDXB4ICGg0lE4JsvtL+7fqS2zjHpL+mMlVQU20llUzv6QTGieG5lZ+ClYz17cYgu5BxuHBUSaQ5tdLE37ES1o6ZGrdxoVVnKUNnCs0FO3c2tpGk3lxC0dK7d3Z2WbNXaefK2WKoyhy6qCqqQrFiTaXTyIa2kFvZVJ0ydttnfgCFAI19Cu/87lo6BQNHQGNvF3IuYkzuQhNl6DMy91ZJwGzBnHXUNMBFlA9pqvy3qEFAPxoeP1Pvje89YN3AuwdwHQLIkCbCEntc5DRUAUSoQooBwaYSYWSNyuasAvK1ikD+qV2lYWodI3BPEwuFuAQz9mwaJpTlEmrU0W5gALi7O27ekZ5QP6J+dDGecLBctvjtsb19MLmxvDkk48Ply8/Nzx56Yl40zpkPkywjqLS5J6dMaE8fiw0FY5Ql0PVrYng8vFvdmkpkAVVc1J0CIWP1P79b/8z1tBucqmhhgpeNBVhjkA+BCicg2OEVutkELc6UhM8ui5VfdRYQPXITXOmQNTMP/zD14e333oXJ4j3mjgocNa5Nu3sbMXMRXvgEI/SmcXl6xgnpwBK35Z4RUYvtUY7G7Exc20zwDaQqg8CuhCHxfVb8xkrkv5RBq10tn3MG3aG0kdrAdmlQo/ciSAO5qvt0XBoBXZjY3V45ulLw6uffnm4/Pxz2fOubaylUw5D71it1CkT1Lqq/9FMQdRpGkF1hH18zgb6E6eoP22xIwD6a//ps2xbHrCslYZ2IPtBfdfSaGgD18ZHMNvgJ/FmZwDSZRqw4fxl4B7jra6uZdZfv35ruHbtveH7b76FQ3R72AfMYwSkYAX0woUL0VQdFgcYrQ9EsgV1Bmqf6hkujdg3ciMMh26W/UxfBbDuOCcCx0eHSZffWZ7a6WvxkV4egmnoJW/XWTUz3it5Aq8ZPtznOLKbb2Si1j777KXhx//8jw1Xr77AGrvN2yDLmYjKzjXZPh8e7sfs24O0kb7XBBFQ823XTrRukFcj80Wx2oNqdunLhHPvX/2tn5oeHfNOEXtQD+NH7aQx486mgKzAche/sGxg1qx3e6JmlnZ6DGUP7ETrD5rEac3KWrYib37vrQD6vgcHbE3UEol1+XPGGk+Rh7fNA4XN7Eo/7Ku35tK+Eh+vNngQ0/HxmgFK/+y3/aS/tEi7gKeQDO0sqeqz9QvQ5PKlzqRMviDjmAVUTXcZ8LURlwa3L5cvPzP8uR//seF5NHRzax1ZTobDo0M4nDFpAZTYEenTaCj8/IO5d00k4l1DobZ8dtnugAXxUIF+ndgX3in61d/6SY7+eGOhHSw4exyeYDrGaGgDted3YCMkZztm1HVPVx494KN5mgEaTVV4CAz5DDfZlvzxH70+vPfe9eHe/QdZNzVZ8pOP3qxeYs1+PdBzI2FMilVzxz24fTHsE85O2weao57m0VDe8guY9MW11W3TIlbDiRYLYzn5Xgq0P91xiZCnd5VXnCah0xsuWk2wW6ENnKBnnn1qeOGFy8NLL13NWurBhmvlgRoJTa2jwJW9qJOxgHwYUAaXsdVES9f4on3kK6BdQ9VW9gLD5Fd+8zMAytOW5hQVWCXATGC1Ic6RQpFVCU6eSQsoICiU7Aed+QHURgEwsvCpyUoGf4h3+M477w2///t/AKA36JQDkVcJXOdDDzdnpsxouMyudKsPEM2kX5AiHMdY/fPkRx4KbB7Q+TUywDL57O/iwgqVMb/ZpmhO2bZgOiusLYzAZbD0JoA2YAVTEAVfGk2kR3+PXdwGyBeHF65cHp555qkcTKhpp9hFNdT1v5tTZWjlfJp2FqhMWvgnHhIp+tVkyxqqhtZpESdemtx/95v/iDX0PKARjnW7ZrYwJth8hSf7DgIvlbkXdMYjygAaITFOx6oWrPHOqMDtoZHf//4Phm99638A6M04O5rZHBAIZMAoTVHwlZ6DNaPyCw8Xs7Xt2SobfwGUVockEwJeCj/aaZcBT1DlWYC2iYdQnGQ+wbl3795wl3PjvX2e4OAMUSvruZPL4ZbQGZMD4U8vOBaAdPpp/5HFpaceH1599eXhOUyuzp1vUp7w4o/aq5aqoR3UaKqjiaZ2AAkbmL3dMYTWftUkxORibl0/T086oP/xH8bkzpwiEIA+gAlkB7VpQAEpUzWCGRtBOpDS0DK7VALY7oXpDK1vXCA95Kz2+997cwRUEysItXH3bFRB0wpCqhe+3WfKr11i6ei43Oc9++zT2RLohPTnnZ7Rxiu28woffjMNbaBSZtEpZ8E+0bn90Ud42reHm7c+DLB64QJ/4cJmznw1q97HgKFDJJgxyWizl23qzK1fWBueeurJ4aWXXwTYJ9iP8u4slsTfDGlenbxq6zE/OXH7FUnTkQ6oYysN7aHcjVfot3U0uW5bSkPZYrmGanK/LKBzGmrlcjLKhCkTDxpiilMWdsU2EwVGCFxgYnYngII5cyYIqHsk89fW0VAAvY+GXnv72vCd7/zB8O671/EMjyHl/W/2aP6WRsF7acbkq/Mg734xr8brCR57vYImXLp0KevuMuuuQl3m0VhOlZhwdU7LEFzf1c5uVdBY+yMoe2jn7du3h1sAegtA7/JwwOetTqyN5m0fobFHvM7iwwHNZk6yUA+1zontntm958XHd7Lv1NTu7GwyUV2fPQg5zARd5wmPE/WEcdddJrsDWia2wBTFAjeQjuOOTwJ8rptdQ8/Q0DhFX/oNNdQ3Fpgto8c4Byrypb8FaAvlLJYWKH8HlHVUMDVteo4WuIb68i/CXF7i7W7MiNuT9977gP3nHw3vvX+d/Sg/joKZM1kNk5cDcXugZvYTlmgsZXmLIU7TMkA+iWl7BafjUjSyP8Q2dAnwOkObrFtgNlNO3/RwswYiEd+C8AnPLiZ3dxeTy7NWX12xL2tr60ozAO/xXPb+/ft5qG4dvVq1TLPplsTTokvsPZ944rFhG1PrmNwn68AJnuZ4g72oEzVm17WaW80v4JytHcQ5UM0VXDuSCa2M3M87MTS3XUM5uPjSN//BHKCa29kBfbRyBBSu8CmniYhJ07TgwBVQbQM0mVTiFtgFQI5HFm1gzeEM1jPbP/6T1xPmxAc+apZmU559cAIqyIKo8NVUT1t8nHWRR1mXnnwybxxsbfEjHSbN/BpZa5PM0lXK7WO7HQi3J0BxUvCENaFahdOmFVZ0PItMDNdJgdy9u8vPLvmlHg/ZfXvikONHWdX6vQiIm1kCdnCK1rQsAMiUgpOA6cTxKkwbo23lAfgcmDTNdR7QLosxDInjQiZ6ug3MsxMVCZP7b78xD6iNCmppqF6k2Cjk+dtBIJrKi8RKUCFGKy01vgiYereaXk3WMWegeoU3b94aXn/9jTxVKZPFGoS5PbdWwlcAfVVEM+n+TnB9IP344xeHp59+Ck14nNdIdpgMqwyw2rWfXoKXMJ3tQFa/U0C+gDqhNHflgDVfgHZNO0CdE82rb00Iqo5T11IB1ZIU+JMcV15i/dzE9Co7gax1shQl/UG2gsOX0Bm0dLJaXtGMIDYHKWkoHCvSiVxPeblahygmN4D++t+faWjAVENbJx1T1k9Dx4eQ6m8MKyvw0l+FCGELFxd4QtEAPTwUUE3MDFDXK4GSXGfBtYXeph3b0lt1bZK7bzKonU8++UTAfPa5Z4bHdnZyCOH2o9q0fruIVqrnGcppPh+RI6y0idkURO+YZ0JNoQ8BNIvSRYObJvfJ8ADTa98Ez73zlusmk1MTm3Pa7JNLnrYTjRXM3JWTbHvRwB2BlKaBOXs++qMA/frf4yUxj/4wxjG3zqamoXogAlqTtQma4jlgI6DITGEJ5sOArtLR2hp0QG9FQ1+PE5ItAO3Eu23S1oQpWAHVe3RQrmkbOBSXLz+bA+/n2bT7HNKySKLBRwdmV/rVkyQgnWW1mEKDpBzBPraaoPmxEA8L4qAJNv3RagR0hOLk7GtptNwlwgkIa7cp7jvPpu3wnVbi+NhawDSdLvHV+2KR+efvgCmw4dHG034GcYr1Uzv9wVKcol/++t/l6K+f5aIt0cgGasAUXAYaUBkoiXOA2ivzIirLOqiY3GjoDwH0jTeyTWjV0lnjBWbtKev1EAWHJ7p3kA36p166MnzqxavD1RevkN6M5+k24tHLfj2U27OaICO4tpYlnrVOsXGFhrgTBkZajzh8jM89reO1JJqrDBwBYdZF1suske43zzx89yTLdXTe+ak2eifzkwezwkpeM9qunQU0RA4s2xaA5F3cAlR1Yg39pa8JqL8PFcw6fcmZboBt2mncT0DV+YFh/aUHkZsDTaZhgTozuQtZh3zO6T/4EA0F0Nu3P6q+2T/3EPD1DYE4GZq+MHYN410ivOMtHia/+uqncgpzhQPvTbYUhwcH2Zo4zHOX1uVjrsruoBUIASLAur8sZ8W8XG2y2icna7/TcQimliefdR5z7LqqqbXvghstdVlpgMYizXUt0bb+257Npm0iBaCTZBavMgWjo7jYAKVtfh/KnmCY/Juv/p1oaI7+PKDPrVbOwAxO8LCTvfPJaz2QvWg/AmhzipxNM6foJO8MvfHGd4cP2fvlgoEihkXMWb20hQYgELXTfyRCc/0Ybwa88ukXhxevXskpjE9kTskvx0NOc5IqzvTrfF4HtMbi5HHyqWkInztHfgBTb9Tbqxo338b4sL+2Al9qZzlFTsQl4j747gcINSHlCzOAp4KhnzCQCVnGky6NN15AVqHxEVB4pUeZAPXLMzVUMEdA/9V/+NvR0GGxgZmQNU3wYnJhbNwOIYWcuEQayW49ssgBC2rNYuNuWZYwuwLq0xS93APWQl8C++53v4eG3qFiRpNR1amTjgmCQ85xPJjxtfae8Exxi+eLmFu0U6dok/d7/HcHot0lFfg8fNnvlpemtDZ11SFDBhdwFH6O5wg9ootDEgkr86rVATAUUB+lyda11XSepgBcnDyqBJxQSBU4W+tVZp3wlH/6Z37dZhS4gBo607QHoD78mApm27bo6S7ws/zJL/7a3wqgE4D02eJkSRceGRh3rOdADVzkS9D6Vb05DyhgSiCgml3mLx3yNc06M71x48bw5ptv86rm3Qyyj/AcoACtgPUg3TZoynZ2LgyffvXq8OKnruSR1Bb70TJpMG9Xm+c9WWGfNE1gXXJdWIoZCfFXN3DOpY1anj/JIveExEt7GC3Ckk6zK7+a4MWvatgVS7hafwTJ9V/Z1KVQ5UPAV2itQ7wAdRtU8XKG6lDhjK3L9ExZ8+8U/cKv/M1sWxYAUhAN3QUEXHHzrnYSCmk/nguoad1+aI786DAIqHR4hIA6yb2QtxTusjn3YOHtt95hg76bzjpQBeDd11Db1JR6NOhEULN3ti+whl5hDb2SR1NbnOXmkHuUSIngY0GlR3UpqBKSGug6N2piCCLNEirpKuuh9ext40QEFpVO6JfcDaqNlPYyq/XJRTQmHqsVs4zU6iIMfVhVFrzibAVMlwYnjmBy+ywUQIczT8cA9Itf/ht50XphSTDdPvSQtj3BowNqjleEHtBK+OSQa/ct8xsQG5jRZQFFQwVVD9H3c+7cEdAbw9tvC+i9DLx4UIN2+h1AEbYPuNVOjwjV0EcAzX6P0aV9+qrEP+lSoE1AHcgSvpWsW/XNS47K6gchVqlApSTpM9cz0uaFInFj0tVdjFo57ac6mWWB8AEw28WR76yPGUzykg+f0sxa5+O4sV0pQD0gUUPZ4i1woPGFX/7rvGi9V5oJoIsjsMgogBKqcFwBlAZjcgNs5desK5C7hnZAfXQmqB7Qq2kf8cqmgF6bA1RhCGBpKFPCNRTWrmM6RW7uPRTf2dHLRUMxuT5rVEPV4DhFTjy7A7NP1FAFqqDR6vI4S8AdQMUe0TepM6cKnADaaKWpvwYkyapWvEl0R8YCy9KmlehkMHN8qJnOomFdGQFRwx6vuoIvkGp1gVvmVmfIM93pKf+uFP8I1eTn//Vfy5vzMbXzgHIEO39KpMTr07zZpOb6QftVXiZXQOtFat4kb28FfCygbeanLkB2D1eA4+UyDX1Ssc8rHtsA+ulXrg7uRa9cee7/Q0AFr+4Ayth6eA7QJjbX2/pZZAO0Iy2YCsCr85OXoOamDSZaHCIBxSFyDY2G/ty//Kt5jXMElH/epkxvA3RcQ88DKmC5NGFc3RxrdqOdhAK5vOzP9HzTXA3V5KqhN9HQd7OG0j86Xf2XhydGsfANUN+3iYbyOMuXmruGXrn6fN6HLQ2tZ5Iy+kTttCFvhNQ1qGtmhTUWadQqr/99DZWvrDugpUlq1ey9JAgcV7GOxh1jfcqRqkylHKJHAJXfDNC8wsmwTwSUU6IAqob+zC/+Ff41zt2Y3MVl3G12GVlHNbeCqZebNuYBbVpqvt0j7KUFdIG6CJCrK+t5dKZj1AF123LtGoDyHq7mo4/QtTrmVn7ciB1zAqCsoz6f3N5eH15tGnr16uU84J69BqmYmtntDO3eI5ftzQC1+ONBrYr/t4ACawHmPnl+jcy4ineZXF4sY4w1gZBiB7JI8m3/nIDyca/razsCWmuomgpQ3eR+7hf+8nlAMbU+SozHqxIGUBuSNyH7n4BGhh/XzyqqtOXRUmaDbyqsBFCf2i+haceAuJt96DXeKwqgzmDnhPxk5/pp6FonoHq61Ntnw77Fm3OvvsLR30svDFdeKEBzZtremks/RlDt78NXgZ5vGg2QhpL1sFJmpF9OuHPOU8u3lv3OntA6+UsGeVWmdrqHVrMoGa8ez9goj4bKzEsWLUzarPBroMKr1tAC9JifQcw0lH+N859+8S+NJleHyH9RDNkDgNuYEuzo5QY6MptjFMHTYAGgOLkDuIjUWe4KJteH24s8dXFw/tbTHyO9cw1AiTvrHMsM0OLnsGoTXb8Q6xr6CoCqnZeff5bDef4Vrcxu16AmkDEk6+Ery0PRdSFJLjjpROiTStrtgQfwrlsBHzo1RdpwadWMd349lKb/+q3npc5cnwR6vOVJurSvGFe/4D1Xp/JYWMAAf5GzbOpwuOC2ZWUJQP/JF35izimaN7loXjtUKMDkivaNGlga6XpnOd/5GHYNdd1cXvSpfb0W4kmRPxv0NU7f/BPcaAA9Do/wUkMdQt0K44S3ywVUDX35lRcCqC9g+dzxDC83J0VjHfsyLwLTc5d0+fML8YxxaRQXGX4TZJ8ooE665Jlfd+qmisIt+pFGrSYvYBmmKfnOrs4nIQR17iugLjPc1EsbrVrJmPpNUJ4U+c/Z+INmn7T4L3P6r3JOPiug/BTCEyK1c7ZtQVOhyz5UjBojtyUFWDONEQDFHcjmFEkvoEu8Jimg/mzQH+f6UvUtAH33nffzusc8oDZRJrdG4WCZejktyuF8B/RFNBRA/RHQabYtTNVzgFLth17y5M7fLExTrT2B8U+hqmWGMbssqIlLZ55toCkFjlX4jLT/Z4DWdkRAOWhwjextpJEmfttDSFnkANT3tQ4PABQN9V/mXF3mzY3PvvYT+fVZAeoZpKACGQcM3SGKoP0KaL4m4jraGqHhgEn5OVClwWb7rqjHf0u8uOWTFjXUX2YXoPxyXNnYResH0GrF3Lr15Pg5vk9bttZGDQ2g/BBXL/Es/yzsjJ6KP+Jqgo+wjEPOl5+0mbhZVRZHPFr3EKCQW9daqR9669SdtY54TQKJZlenMaw1Ed4xuRWaF56tivL2qp0NqQDKceoIKD8zOQcoHq5blyXXUE+LvNXQ5hTJLM6QR3sBqws+zcyBSiW0lBWUvKL1YEEN9Z9euYeG3rwJoO++n1c6w0UgczdQ7T0DNSASDfUfyRDQl5rJ7Rp6xD/a7HnuD9PQKG74zL4Ergs0LRQiNsnlVyJJJ8XXfB3rWlhB42Wth/I7oAHNslxtVKlfdQX8YTDLIqTVVm8+UEubyd1/SEN/6rW/iIbeHybL/CYjThFaGkCRUVtDsy+MeNXMhzS0DT7aKSrN5Ap+N88xvQKKht67uxcNfQeT67+nUCbWenAYPVySDLJyZ4Bubs5pKE6Rv808PHyA6RFQ9ej8FdEhx4RjkUKSfTljo5wVMPmKyms+JU3S0uSudMVneebmr9EUoHNa3Xoiv7RBJGAadgcpW5JywmqCtLarSvsuQDW5R/u+J8wIu8n9yQB6L9q5gJYuAep4pjuuoWqOYintC1ikzSkHRkGQkiY2QXMrLeBjGjykdx094R+w2AXEWkM/KEDl4x0wjcuUuwVG3Wv6MnQBipfLGvq8gG6ssJ3ZA1DevlOSuQna1dj0JGGTJOEorMKAolbWVbrlz2pYPbDO1S1Awkve+WsAM7+65hl6VVC96luhsqyCrqmF348AtNstsfCR5JEml8MFnaLVFdbQz7z2F6KhC0toaHOK4hg9soaqcXZGp8hYCV8AqotmkweAAV6zbHweUNdQ/l2hAPougBKfgekkmPGESROcXm4dLPgLrpdfrm3Lc5efDqAHh3uYXAFtR05WnLvGvo15Xbg9pECgKkkfCrTkWdRGZ26nqclQaeN+6q+F4afW4VS1eK9rN4ynnmWkBTxny9Jz18kSYSsPkRUZjPQVcdvSAPWgLBqKl/uZzwMo//DUCKigtjW0m9zSzkBIRYEFqAZkNDRxwVB8rTzaiWmAfjEaipeLhmpms4a+0zW0A1n1o6n2mSvrim8stGei2zxtefllfgT0wnPD08/wM4MNzPiJPxL2/dj5vWjV99sejQIxnqvEYrTAaWEVmouQU5qqRkOXkiQkeSjPLDMrX/pHAQ0F9TpND4u2TLRtF5gSQhqeBl5JJ1KAllPEONVQnaJ/DKAHDdBucuPlZv1kfnaFi2gQfgAVQQGGPTM6OJKqjwC1rQ20boDzfq7blnlAm4YWH6aI/GJ2rZ++x4UXTB9yu4f1pwUC+jyAPvX04/wjUsvMaP6fmemfElDGoZC7tBRjtMM8+tIF3MQbug5wCCJgs6ngH8xK6+Y1dKzdyoouzaqV1lFDBbHdYSvB3DW2i1yzbeEJVm1bBHRz+F8AAAD//+wV4DEAACbPSURBVLWdSZNdR3bf76t5wAySIMiGyW7q61iDW7Zl2WHvvXB4oU2rLbfUtrzwTi01tXN47w/gCC+9d3jp6LZD5gQ2QQDEUIWaq55+v//JvO++QoHNVoTuq/tyPnny/POcPJn3PmD2Hz/+V/PDs/1hZe0i99r6fFhdnQ8r3LMV72GYzWZ+DbNhZZjNuflUek7IzWWVgXI/htZNSP2V2dqwtrY+nJ1eDC/39ocnj78Zvvjiq2Fv79UwSELadGS4siKhEBsuLs5pczqcnp4Npydnw82b14YffPT94cGD94Z37t0ZdnbWqXM4zOcnNLmom9bjJe0xsRyZz4vvCufQoLyyCExXXuKmL4zV1duOGfSSUiqkvm2pf0F4brsQp2wsH1KWbPOIeF9Q97zFUya13ulS34xqPhvOzi6G4+PT4fyMcc7Xh831a8PsPwDoEYDO1s6H1TXAHAEFYMHsgMJ0hA5AiikgOyIAdThkmMtnAuawmgmwstIBPR9evnwVQB8+/Ir4fmhJb6WDCqB+vAT0FEDPGqA3APQjAP3eg/eHeyOgB/QOoMN5eEnD6ddEIAtwS1ALQVMpf61yi0fQ0Iqwm6BH0qaTaFR72rbEBVOADEOnldum0ob9bnVGQMkvhlLHlFe+K0r+bDg/B9Cjy4D+NRp6qoYC6PoFoA4BdiXaiaZeArS0z0Eg9mhnBzQ5QsO9SnkBa3xlZXVYW90AnPNh7ypAA+YE1EuARkMB9eaN6w3Q9xqga2jAwXABoAyvAG0DVgBXXZl81FGoXglMNwEmL/mWJzd1OzCW52oAlZQvtacMbBqgF2lvP0WR0Lamx9t0temWIHXoyDr11er3Dh0xGnqihp46dDR04/ow++lf/8sJoHNMI1oKqLOVqYY6BAHyU2AR4Q8wu4ZSI6aza2g0GQ0lHUDXCtB9AH2MyX2IyVVb1Wwp1cTRYDtRatY7A8/OmskF0Bs3SkMffE9A7w7buwL6ivFqcgF0HCzRK65QjRQtLKHaZCEzY3WNQrceWfMLgFkUvh6Hbi9PF007MxEoGYGSFhWTJrxQirbNbZlxQj+G3BLu6YqZVxp6eny2bHL/7ON/wRr6qjQUMFnqrl5DFbTinjftE1BvWWrrqONNHeo5AYast01DR0D3G6CPRkALQFpCcCVrqZSc4Re1fp4t1tCPfvDhxOR2DT0OoF37qvXV38WqUoK9JrAIrQmwWnVhRozUM6wGFVathXCXy0dQaFeAUhOAbWtfau+ijlQqrYm23Jo9FLheNyVW9mqAqqEX52DT19A/+/ifB9AZTpFraDlFwNGcIjUnyEGgwFLrnOt8q52jhmp6W34H1AmgyR2dom5yn+IUPYr5nTcAS7s7oNJpgE409OZEQ99BQ3eahl7Mj+EDp4jJ9W1XqI4CWQhY4UWq9VXCJLMEOxVuCXvsYyL8RmAUfoFQfQiqpA3U8ySNt7wOmOEIdhoUVetX0gaVZ3hxjvfwnQAFWD3c0SlqQJXZVUOBDoIdzA5s8juYTIBef3SKTi4AsbzcmNy9A4nktragxugSmj5HQ8/UTp0i11C9XDS0vFwA3SmTmzW0mdzSQBp/67UQzCisRKrRCAZ51GwgVZtWI/kl3ALI/Fa7AWY+ADHHDFNO4JQLfUZY/ZheBrq0ufcdwq2/ykvCNlcB+qdoaHm5blsmGtq2LJc1NKZUQOmn7jK5waXlCItemCEGnImxNqxrck/QULYqblsE1Lh6LahdQ9OqpUeTOwH0o48wuayh2bZEQ/Fy0dBsWzT/9Phrr8hXgStMW1S8tytBm5cKCRMtsaZaymxplZZfZE3xaeYzJjeGg7zUtT5g9LiAh46tyG/tQsMMLtull5auBkx4nCK3c0sm908//sM4RTM8XAFdb2uo2xU93cibr1rnyNTZEaxokSZXQK1mnIgC6lsbAJ3NBHSddXkt+9D9CaA6RfPQkYBQtg9x19MAeuZe1DX0dKhti2uogC40tDtFWUMZOtR+zdWE+waBRZhl+xbC7mhAuURPSPtFvEu78gS0g9kniEyNQMJlddF4kS4EF3lF7/KEq0kmJdpfBehPfv7PcrCQNZQ96JrbFqxqbVsi5wBW5lMzsbyGrqgVsb92UYDOMusBXkDZsqyioauA6rbl1f7BqKEvJvvQTBBArMlCS2aUAgmYEw3V5Apo9qFq6LnbFtZQty1OKsf6Ha4SclUcgVlggoY1r5bClBvyyUUwSVWulVp5r1+AltlNi7SbgEq6TDCl0jedUFrmJZiE1iFThaJIk/uahv7k538wP8DLHZ0iAF3TIQqolwHVlDagoFtrp2aO+mZzBcx4t3SpduIQaXK9zwD0IIA+Gz7//MvhhduWXDCIbQ8YoYuGknaWn7KGCuoJd62hH0zW0NUClG3LrK+hjeK3BsrED6EYJOjSsyFx83pYwm71zU/b1Kh6lVOEErcp9eG/TKhti6bdOO0MO5iCKCHrVF7vy7CmaOch9ehDOV+4rUOmSyY3gHKwoMl1/5l96FRDPbkRm4hbc0thQDUPxykmt8xuao3aaYtaPwvQVTq/ANDDaGgAfbEfExPtfAOg3SnqgH70gw+ayfXor2lo24fKj9cbHaOSTYSpBCNHmxCplmm+SCvk1LPuokaiaUMeNC2p4laHYKGd1bbXuRyWiV3009PJ6eQIC1D5MxFJNw09H+Y5U2kHCz/5+T+dH5yioW8CVDBFdAR0WUMLUOac9TK6VlctzfrZNJT4Gevhwauj4SlO0WeffTk8fy6gxbUaWf0UHddQB2EbPdwAmm3LGwBlbhegRc+hv3Z1pEsmJRurB5xJ7ZRXpasALZnaMCQCaEN0kde0Uz+gj1Ft61rZcMmEto/OQzRauiHvZCg59D7NV8KmNblXaKiAqqF1QjRqKIpYJpXGDVDVnFplVskOtJwopZ7V0hXdNS19DVBN7sEC0GcA6tZE5jyU7wf00rHLDqhMn3Cmq8mtg4X7dVIUDX2FUDz7OqcVhPi78upgWpg6CqvilYxYW9NWRkXrlHakVivveXiacyGS/1pzBDBpJrBAamGmIKXLyEcajU7vh7A0tPe/6Eea8sF3/pR2AGXnMOdgYeBgYcvD+dLQS4Dm6E8mJTABSsByUlTQXQY0dWVWkwwitX6uQ8e1dDVO0eFBmdxPP/vV8PzZ3nDGOmAvOSWagCot16Dzc7xctHSqoQ8e3I+Xux1ADxGYa2jmvs2uuJogKIE7CPuXr/StZK0RCac4qQjQWAe0BGpFL4/e4AvvW6KbG5vwMEva0LSiOD45gf8CuXWZvgrMZprDSps8lFZ/Ex4DZPGRros9AB2GMwC9tIZONdSnLc3L7RoaCn5hEpvmlZclYB4+aG5d5rky+uhX6gvoKgQFU22NyRXQJ98Mn3765fDs2X7y5HcGmHq2pamhlpmdhb8DGg3VKSpAXUPPztvjszJmcvGGq6RQZpkqJDtAEWBaVR0KFGsNx9D0pH51UGepJwDmiDc3N8me8TiLPXFPB2AAZdL2K3RIdHoVyk71l7WXzKTGPkmFtR5KgJHE5GLS1dCLtWHLw/mFhuIUAaYmF4XKDT+5Ciy/BRXtg1hSfK02QJNhpymjwDUUQj5lEUzNqabz8PAIQJ8NnwHoN9+8xItFQ+HWWa3Zmq6lmipNWNbR9jxUp6gDOmqoTpGATs1qOF/+mpVUYDXigscS0OuAUjR+rKZkK68oOvrK14oIoPtseT0+PknoVk2ZLD0PtY2fyMmYNNqdkq6x1bsV0ndvM4Y2/E6A1jpa+1D4Cd9227ROkLz7Rw3Vyx1Nsx0V4ILfH5sFUNICc3h4PGpoAAXkArTAXFmFvh3TbdaeBmg3ub/1UTlF7kO3ecB9duZJEWbvOwAq0RqSYyI1ASpCTq61Ikm/E69q1aaqhErRcpLzkZZPh3TgNMWdHnJvgpRmoyfdVBDcml69j3ENrcqTevZsfUOuKaBnymuNB9zR0H/SvNzznBTlIbca6nrmUpjWE0CbUxQ+6cDHbPHd1A46Qc9y29Ltihqq6VWUaujR0cnwFJP7yScPm4ayBjCKrp1dQzNAvjS5CipOEV7ub320OFjY3gbQ72xyMxC4aBe0SzgV8q28ciVOTKGb5XcBMLZOPccqv9Ip50drw9Ry3efWfGZyRjM6pSm9Rp+i6qNraKXtfAG8XcpHuiY60VABxeRubsQpEtDah66sevznGipQsEs9wxoGQEVD+0mRkMmwJzR9y7AAtAbrmwoNUBjJKxM8YXcN/eSTL4anmlxAfhOgcm9ZnA8PFgIoGtqfh6qhAnqhY/JtTlETAkHGMgqqC8ww4qqKEVoTdhNiCdbikkZVrPFqap1wArC2hjZw+abFOV4Lcm9XIKNKLTHprfVZ3VnS+Gj5MhW+/EpZhfbjFaeIvf0Fr6AE0NLQfzyeFM0AtN4ngm0Y0RM3zHbCgTRAHVR9XLfcLpQwK680NEPluG99fZOJsQpji3dgXEM/+eTz4elTANVLAzTXW61CPQ8tKURDGMwyoB7Ov9/OcjW5k3eK+kgz3Mtf8i/nXISBK2FPk9cElyotrg+eqEL0Hi9GTYG8Z40HwFUEtrO7Ha3Ng3ke/QnqhTt/6tZHigWqdCuv+q5068b6lvvF1cOiY07btgDovGtoti0fA6gaCpgzHKI4OWhoea8MP3+Bh6haygx0nUw+bUZAS1gFPuXWznNQNBRgbevTgWPcfJ+2/M3fAOiTl9FaJniEYFtBtW23Ug6kP0a7cf3a8OGHD4b33rs/vP3OneHaLp7l7Iy6ZwjGdUtBeZcAFFYlJAnt0JWv6oNca1QVgBk9TAiUs0Nh+KEO5U22I/0THLWDg4M4Qk66jY2N4datG8Pm1gZ1WCpQHYE1LBDhTTD92Ef/TNisPiyXt3xdESohn7Z4lsuEAdCVC/ah8XIboMMqa6gmFyzqYF5zSqsmBAHJ6yfj4bxF1BdQHSOrWjcxAUWACjFnuT5tWY9QfCD79ddPh//3fz/B9L5khutQQB0NzWSg04i7Og9VD8pdR3ev7Qzv3X8X7Xx7eOutWzx92c1Dbh8onGN2L3j9zbVL4dbaa+iSAOfQX8XbW6OyoWlBVrBqWeqjTU66tHeWwYP1XQdTp4Hat1J7vMH46OvHw6tXvgYzDNfg75137uZVmfUNJjHO4tn5SQHaQFVmgZQG+SRskwoaXtKq0kok23oVaSHbJrTTl8Q0uWuzzWF78wbblo9/P07RsAIwAbRpZ7Yjoc9XgbMAVMAEvNbQxSM0s4WjAC2AFB6ml7XUQ5UA+ujJ8MtfFqDzC+oi2L616WDGmZBchIgQEPD21tZw9627w507t4bbt28Md+5eJ31j2Nr2QfcyoB3UCzxrLyeMW4u1dR21OmOuBwIF1jn1fBDg0wsdHM2obx0KZL3b1CaKacos95XUR48E9AD6K8P1G7vD/fvvwNctwN2mL5ca+Jp7WtSsCIBmEnWzK3QB0MHy1+JiZz2vy6H1vD0bPzpkmwSg6ytbw87mzQ4or1NOAM37uAFLcpq/ZUDjzapBamYzuUlaXf0C1Gh0O1BQO68E9PEeg7U+9PHG7CcUIFZbl1qf1DIB3WDW3+DNv+s4R9eu7wxvv32LPek9NHWb8XWTq4BK62J+AcDBS69bAIXvpCuN1TwqHM6LWQ6O8cINTzGVAvX82YtoYPKoI9gCLNBqxx5Pj5wIq2y3btzYGe69+zZ83Rlu37nJtso9uP4FbQRWHid8RleLvfBINLxU6LfpK8JU0Cc5H44PnMgAOttiwo8aOgVUkGjRAA0wcVb0bl0/vZvAYTGAyrT1RzDVs9I6HaIFoB6NnQxfP3o6/PIXaOjjMrn41dBZmFwHIgCa2mgKjLuOqllb21vDFmvUFluWtwD0+99/H+FdZ0LQPzj1k6bwIiGGolC0DrVGqiHkKedMVLZUpPMAYAT0JCDto4GPHz/NazMLQIsXZVDbKbVPZ3KVSbYNT7djdn0Af520L925tfO8+RxNZYoSl4cY3uJFNuFBXmULbhM3y4KUmZs6ySW/toHHhwWoJndnq2mo7+Wqoa6jZT4VTgGUmc2MzvHdCKhg2Rvd9zW0AzqC2s2op0VNQ2FCwXyNyf3FLxqgOVguQF1zJVxgOADNG8KIRjhUAXOCMM1YN+8A5Ifffy+md22N9W59Ba96fVwny/lh7B6RoeVOjry47QSB7ikmy1vTZVk9BOCoTk2kvqdaL1/sDYdHRzGzAuhdAnbtZ+2WN/hSTk60m7eu4bDdHt5//14m2uYmsuMFvNLMAlWvd9TOBpK0EoXWbwyoa+gKgNYa+sO2huItanaZTaWdAKpwM4sBB0EuNJR0BmHdxSQgi3zNWdNQJsBUQ51VVwHqWxCZMPSVPmnv4JSYmtSdIjXMgqxtzPZr17cQ3FvDrdvXhg0Ep0ne3Npkg70x6JTo+MiJE0IN9KD8+Og4Xqke6tERXuorTOxxrZVqmrQLNDxItiJH1LetJlY+EspcJp4TEMfKPuBtbW0lZlaH7cEH93HcMLu8VbGxDhfIVe2M6QVQNXThVTvW/IXWlWbWKm38Bo7LiXicNZTJrFOkyf33H/9wfniyxzKGhgZQgdSUhmdC1zcFLlCaW9a6kLPcurRL/cxTSgSbxu5ZbdsO6NfXdYpmOB2va6hvQVivr3FpH4EZgxakNbklTN9icK07RCNnaMEuDgggbuG2b28MO5pkbp92xEOlvQ7SCWesappPezx+PMLbFsyXL44DqON1aXVCdbOt4ArkshYx3QreAjlDLmu+hEXctVWQfP319p1rwwcfvDe8fe826/0mmotnnWpoeHOSCtA2JicLk92L2JtBHfu2IuPCqsTksm2ZAPqP5gcnmlz01rXQo7wA1TQ05hZwJhpaWkg5XUerbWdcjgJoaanr4hoermtoti0wdIZmPH3KwcL/f8j69AIvTVMnp7YW2NJSZ34eqTWNV1P7jD49PRkODg/o75xty0bA3Nhc5YkHoGL2Njc3sid0XZNXnSotgwfnapyhGnqIQ7G/jwPEXm5VPwFTbpsccBS6tG+CFsOlS0B1rDbCl76B3qzKcPPWDm9V3MP0urXC+2S/vAmovoQXLcUtPef3C32SimAnb3ilhlqHiRS4icuXGnqSbctlQI8XGlraJpg0yoxVsAgG5svksniFHN/RzKnJdfDc0U5n+vqwwYDryQMuPDPR4z9fFHv8+Bn70OdxjF7tH4c5NTj9BEz74wPQ3UqoPQ7KX6QdoaFu0hWUa6fy19PM+iqv1B3NN/2qaREg66ma7i0vbs4pqr5sIyGH0SRcAflkQTCTrOpQj0KsOfxgzo+PSJ4P60wsvW7X0Tt3r6GhW9zbcZicdH1venR0EK0mI3Ql7/VdwJQndC68vwbon/z890YNnX+bhtJxAB00uTAB++zgGGMHVHa8HLoCRbiYUbcrmlM1EBkG1GN+j+GbC99w9Pfw4ePh+Tf7AMSMRcAOsA4k1C4AxKJLM+shApV8ral1+qJWdYtiTflywEjGb5MVtFCQi4ghVyxDywv9yo9gadPtTnIpz9m2suDWarjeutZ2QDeYYLssAbcwu2rqDcAUYA9B3Mb43paHDYdYGLc72UI5icJLMbkEqjxMNLNrqGPwNc5j/ACP/kaTG0CXNBQK0TwC+okJvGINLbkAKLNy9IzDlMwpZADhVjuBljzyIzzXJWfXMLzgJTF/EvH0yQtM3xFrmetQ9RmtJu5pSPcsBUNgPQD3gEBxe7SWs1KRc9p6BUziLWm/PeokqYswmaZb3ghor0NJBtpISrq1rvlSGut5rQ+25UPA3FLpsBWQgHqzbh/3rW1oZTCVJ8dot7JDLovuAp5djBPqEpjVr0N1DYWOMpsC+u/UUADNtkXHSC2drKHOIE2MZrc7RXJQYy8N1Wvx7YVcAa1msBqtNpdmV56pAnsN03s4fPXVE9bUF+z1DljT8ChZ2zSH6U8gYElA3VY4SCeYYPqGgDycnvlAOWocvosHeWEuUz8AkizuFnA6hrp6aIp4A3WRa4w7gi06oSVteFn16QrxM9ZEtUdHzWXAdVNTe4ttjGZX7dzcYn3GacIVQqvrQXhpfPUWEOkNctVf+izmpZ18irxGk/v3BWgOI+wpgCo4oGMt1YN14EkzKZwgngrpJDm7fK/oJZrqW/T+dlSQfWaqOXEibHhkCE0dmf7MUa3Rg5XWvE+khAUbTJRURgkIiMxxRXYlwHyH3ypKmYD2K7Ik3dpGW3Geqgojciys2zUmeNrg4ANvW/AK0J3sRXdICyRTE63ECcPklhPlgUS1t5POrsD2O0OZlHXW3gzoX/1uNLS2LWond85xnYGNaQFpJrReEjOtbKxfnl06UhYKiDu6IKA4Ota0fbY/mkzA9Cf6KpZHba8wt/7OxU38M56R7vEjpsNXx1mj8vIVk+M0hwGLPWLxBl0EAnvtUmhN+kqnS6gXJwzjFWtV5W+8JlEthWZNMnq+cbo4n/VM2LiWYgNLsU7ovSGYbJ3cPvnEJaByWrS+gacNkAETi6JV8db0dq+6+m+ghvUG6gTMrsFhERm7vz45wnJxODOuoT/+q9+ZHxw1L9c9pQcL7WA+QkNazsDFtqXtQyMX6mYNpd0oCCPCWWBe4EVCMGBmPc0aWCdHaqry18yqmc+fv8Tzfcaa+jzAusdyzfRecQsSTXcNqv0hQ4avMEIf9uPtRZhoDys33716z+pNTIf1TMU0zztQnpWy6AvKRrZFbEHYFnlwsbPD2sjjsp0dj/g8QADYTW401UOGFU6vfL4cI5unLoLq0R8HGfH2fBCCbDsvhNbOH4PMp/HXwexhraGYemQ3P2dy9YOFH//lb89fdUBzuKBmQoX7ag3VGalBx3ni9MM1tNpEIgHTOmqn747W4bsayswWoMxwQWVbw4GDmnDEZl+z+803z/F+n/My9vNhf+8wYOtNZuCxEmUdugzKYrZRK4lcFRY+fDdNjRlLHUQlW2qg/HG5D10FBJ+QqDVqoLwfs0e13QZbow3A8tBiQ0A5ULh2bReTejvAanpXAbBMMASRX4BsmunTljwXZTDmR77yAnvy2S9b1V/xaH4HsYeWe8vfKadcA0+sVmdYBM9y/7gDiunMocJ49EdHOmBqaBckmuZJ0ciC3rCAaqbpwQmgZtpGrdT0ZiImrzRMQKt8FkC3t3zC7zu7HsVxYMATDk3u3otXrK8vh2c4TPtor8dzXfiunx4gKPT+r4ZkhPTqleXA5QJJaSq9FEZOfThkcD/q1sdz3CNNFsLZ2l4FmI1hd1cHhtMmTKlHifal4zOaXNdu+nWCbQPu9Rs3o7GCJBh1AiRNT4HUxNLIOYIwr9b8klfnWXx6PNHQaTGZ4+pgJjSrmVwPRQrQdpb7o5/9Nib3ZR39Zf0EJEzuVEPL1Gka9Oj0dhWSdWSsti2mlwGlDmtov1Pm5AA826sdaurW5hZrKq9AKvB4s7riHBwcnLCt2cvbDTpOrrPuX62jgD3i08wJUg0ZsrkqJQDFj5kKWkAB07VYQdNOevv7vAJK2e61jXijeqX+Ww67uzvcu+Rvo52e20ml38T4s381Vo0ObeiesR/r8QK0gNSK2Wh04npawqG8CBuGyyBaywL/uEUgGqoFaSZ3x7PcH/3FP2wmd6KhedJCI/CIM0MkWiVAAdUCAIzpYIYkNG19gbdeAZr3eJvWdlDV4zBFXd/DEWTbdXNsW09wYobRVL3gPW4PIzzCs60mr9ZV+lEl7W8imKQigNKaEVAmhNriIywdspcv68TpOvtGDwLu8Bzz1q3rmFOBvU4er5Rw2O8E8Ew4T22gYRzKkZG0M0mckE4aJwzlrpNqZfE1BdMc870YjJQMEjckVhnLIXV6vlUF1OO/KwBtGhqHqK+HpXG1dhWg9T5R01AlBlM5nA9z1jdPQI1wu2Vpe1ELyxwbAmhqUKpTAJjWd6Z7iJ9DBdKC6kNk96ceFwpA9zrjpKVt6wsKiysjz+AjAE0dAqpbjbZ3LIFnwph4j+x8JXTXveN1X2vZIc1xHeF1QNX05vEaJzs+GMhPHIlrugXByRHABVOwBZQy8y3PpV8yuWJ+Set7hJ8UV52eDr+2Ce+JZAzGdIr+ToDWoUIXejO5ECvwJoCODBdgBaZACaoabWi7DjYmCwB9sco811DNcDQcjV1t67YmXrl5YiQd3yLUVKvVDl8B6lRNL3vogqx4lZaFKCH25WLeHjpzIEel0pqSrUuC+0reWmTi1GspvNXQAD0HUIWg2dXTLg0uMOvQvU+cVGtfxYffNansqfEuaD1urIFomPotTH3knzw1lH+34pKG6uV2DcV8tj2otl4BOJh6AlLgTNfQ6Jlbnaah6YU2zp6uqVMNZVQBzHri71qo8+E4jtrBgYu9feoB5ylNe2PQfPevm5s70WI11CsnSJcATYFfEUoJxInSHRvIA4JbBveBCt5/rYxTKveHTCzPZr2VoY6Xl+thPSRXMzWpTDD5RHv1vkpDyxSXdla/gp5JnDCkCrYAZJ2q14GrtOt9gWqL5TIzGqBYME3uwBo6erk/+ovfme8H0PJW86YCg10AioDVrpjFDmqf987o6RpqfhtAzG0BqGaZH5AZWMXdKrBNwGvU4zziLDSzHmYLaJ0lhIWmOl+QYXjwxW3z+7oLsSYSY50vYshJwfv8VfqutzkMyJYJjiDro78VXwFFS32cpUPT18mskTGZ0i2hqkElXGNcggSYxjugAVNzazkXNcZ6I3s0CAXCbPdMTzWQ0hFQidtD/pIwY2Fy0dDFtgWn6I9/9kMAfTFczBj49MlJNBUI4i0KaAeih5K1F1knVKP9tHqCWINppjajWZTbulsA15P693ZETa3wtf4yrWbYhRrhzHQvK5h19z5Cza+lS8dEQBWy9QU0e0zHFC3VjAModwGBE4NmuPZla0NJBB05Okb/8pW42bkBI166QNK2ntt2VtqY6XN6iV9NBSlwTQA1ar9j3ykzXVVDyTqISz8jvw+90Nrx25Y/4d9Y2D96PpxeHMGIx3jUFBz5Dqgy1Ah1UHs62a0X4mkTTa5BOPhoJwVpktDYgkAmAJwGsIin2tZ+teq28aRdJop0Gi2CBT2j04uGaqftq75jkhcaZYzy7oSs9a4LkFYFVL5LuHwX5ca6qdz2wR0KLW5/oWGFMGh/1Xz8toxalZ1ECKZnk6FVYStIP9VpI8cE9/DmnBcEjtlPb67vDrMf/+wP5nuHzwKo3p6mSK3MOhNw5al1KA8TxhJ9LV3aHLG1wQQ0m/a0dLgWVBlYT1CnSE4Ip3LPNfTuFsHCq6+RQqf9WjUnroXLFZKi8TQ3YJsDfx0sy82vNN9pYMp82xsrPSRSbBum3lJJy0uj3rhCq4dYo1+EoSqD3JwS6RgdckwaQP/oP//+/OXBU6Dkh6ucO25s+FAa0+RbALbBhISxceCNm86VDLarZn6gzMArLeN8oFVpIpMrAilJJDelAX5aaRJ3IFydimGfMCmYfNUk6fxOCl6LTutAsRHvuRk/iZKDoXKRSHIi8JJzKoV66lhOQaqa25keM1K1TeaWmYZ8aThs2dPSMekXVxzPHK2Whp4c+yI6vz77t3/+e/MXr57SnoNwfBDfyxFUzzTV0r45diaHtRBMLyFcPbZoGBY8I9MwqQwooLbqBjXgYnKS/WujBRYk6avLadpoKe83Id8aTptktE2QKoVXJQusmpSVn7IGoflZT81cYog0RMcs6iVOXuia5k7cisVAwgBqGh8layg/ejvnAbe/b7m2y1nuv/np785f7AMoTpEPPzqg6wDqctjPIGsahXJxU71ImVh6iBaaXgZ0mk7pOJBqVd+W/KZXh/KyQktnIaxvpzrWa9XCDZlTrkqwi3H2sgiXdgE07ZskqGCdym/AXNlRddp/WV6N0tDGVdiBNV1ECWRQEHlSdaz/UduWG9fvoKE//eH8OYCe+483NZObJw4+/snA3JZIyUMEwqhGKCe/g2mdbvpKa2icv2mo1spnvoz82usqsKaNAuolcpeS0+rLcYeznJOR9qyujWb2cTpyr4QKuwoTdgyqnBIqqaGtttmvXxSHhxCk2PppYth6bXmjdqYuDybQzuNDlkR+7Luxtj3cvvXWMPujP//DaOjpOQ+UdYrQytqj0ZGuPQBGqD5ZaWD2cAGufNILFbsJnIJradKTcvNeuzKyrneUkr4s8OU2fYIs5/4mqSVhtoYjkBNCwYV0lRVYjrlk3dIKGoKRd8Aok1sZE2LTqGKzWesgQYsHUImFVoXVoZ3oDA0ci/JwxJ8Sbl4b7t65x785/5f/ev7NM35BdbjHsz+2Luixb//VSYqnOZ6wyIHAslJDqwA1nt4srCtlJWRhkVEqL8IGaGW0NpOg159k1USYZkziqT9JXxn9tkqRfIZUTVta/np0SnMx2iotuTdQGwjjZKAKJcg/kSJzBS8RIaU9LMCqrUxU+6KTLkJPBv29LW9yHPMYcpW3Cq/dGd5+671h9l/+23+af/nVF8PXj/0nw59zYtP2o2xf/L2Ir1ZwyMIFdXoNmB3IHlrGBV4BwJCYXyMglSXYDeCUXvoKgWmeBCUyzZvEq9uFMFpRy15qNwq61VkIcFGtdzO2v0xPgCbdK3zTS3ljuSCMiUWkDWmRQazVm/JkZtZgjwDdS/ejQOoWsD6h4nh0xgOE3TvDO4D57rsPhtl//5//df7Fw8+GLx5+Pjx56m8d9zjHdD1VOz21aRqaZ58AymFDcUA4Aip7lPGdV0JMcgW6SKlElfLXQKu69U2NVOp5le7m29w29qqQ2Vq5XRhT4MKR9Lim+aZ7fQm6UxzTFk6uy+0KJLmo/ahVl3iatL0cbazQtGJjeiSw4KNAuwxmqwhTPDrgOS3PbHfuDndv3x/ee/cfDPcF9H//n/8x/9VXD4fPH37KL6sfDc9fPOfB7yG8uP/0mZ5HY3Wa4qiXNHRpKNVZ8TqyGnzqy+GpoQaLcnOXrhRV+VV1x7H3Roz8MhiC0OuN8ctdUsGs3tbwcpWxix6BagHa6ZMey75bJH1Mxt/7761TTicd0ERaJ+E3bXVueFV05+bw9l3+y5N3Hgzv3/+A36XeH2affvW/5k+efD386qsvh6+fPOJf93rGqQP/fh5rqU8fTk75KR3vxQjwCOg4jNeHM+F1HHwffpimwpsEVwWUjhVafEJ0uUdSZghqk0jKSSS7hRYmf1Ir9ck0HMFs6UbqtSA0FDYliSck1hOvtVjOSJ+TsSRtFdqP8d5ERBtdy+qfztNaehLnlnKdZ7d3hvv3PhzevfeAf/vwe/Fy/xZDr5QRl0dhHQAAAABJRU5ErkJggg==;" vertex="1" parent="1">
          <mxGeometry x="390" y="130" width="50" height="50" as="geometry" />
        </mxCell>
        <mxCell id="w3IxwE_P7BT00dSeWX34-31" value="Celery" style="shape=image;verticalLabelPosition=bottom;labelBackgroundColor=default;verticalAlign=top;aspect=fixed;imageAspect=0;image=data:image/png,iVBORw0KGgoAAAANSUhEUgAAAHQAAAB0CAYAAABUmhYnAAAMQGlDQ1BJQ0MgUHJvZmlsZQAASImVVwdYU8kWnltSIQQIICAl9CaI1ABSQmgBpBdBVEISIJQYA0HFji4quHaxgA1dFVHsgFhQxM6i2PtiQUVZFwt25U0K6LqvfG++b+78958z/zlz7sy9dwCgH+dJJHmoJgD54kJpXGggc3RKKpP0FJCBKaADAzCMxy+QsGNiIgEsA+3fy7vrAJG3VxzlWv/s/69FSyAs4AOAxECcISjg50N8AAC8ii+RFgJAlPMWkwolcgwr0JHCACGeL8dZSlwlxxlKvEdhkxDHgbgVALI6jyfNAkDjEuSZRfwsqKHRC7GzWCASA0BnQuyXnz9BAHE6xLbQRgKxXJ+V8YNO1t80MwY1ebysQayci6KQg0QFkjzelP8zHf+75OfJBnxYw6qeLQ2Lk88Z5u1m7oQIOVaHuEecERUNsTbEH0QChT3EKDVbFpaotEeN+AUcmDOgB7GzgBcUAbERxCHivKhIFZ+RKQrhQgxXCDpZVMhNgFgf4vnCguB4lc1G6YQ4lS+0PlPKYav4szypwq/c131ZbiJbpf86W8hV6WMaxdkJyRBTIbYsEiVFQawBsVNBbnyEymZkcTYnasBGKouTx28JcZxQHBqo1MeKMqUhcSr7svyCgfliG7NF3CgV3leYnRCmzA/Wyucp4odzwS4JxezEAR1hwejIgbkIhEHByrljz4TixHiVzgdJYWCccixOleTFqOxxc2FeqJw3h9itoCheNRZPKoQLUqmPZ0oKYxKUceLFObzwGGU8+BIQCTggCDCBDNYMMAHkAFF7T0MPvFP2hAAekIIsIASOKmZgRLKiRwyv8aAY/AmREBQMjgtU9ApBEeS/DrLKqyPIVPQWKUbkgicQ54MIkAfvZYpR4kFvSeAxZET/8M6DlQ/jzYNV3v/v+QH2O8OGTKSKkQ14ZNIHLInBxCBiGDGEaIcb4n64Dx4JrwGwuuAs3GtgHt/tCU8IHYSHhGuETsKt8aIS6U9RjgKdUD9ElYuMH3OBW0NNdzwQ94XqUBnXww2BI+4G/bBxf+jZHbIcVdzyrDB/0v7bDH54Gio7ijMFpQyhBFBsfx6pYa/hPqgiz/WP+VHGmjGYb85gz8/+OT9kXwDbiJ8tsfnYfuwMdgI7hx3BGgATa8YasTbsqBwPrq7HitU14C1OEU8u1BH9w9/Ak5VnssC51rnb+Yuyr1A4Wf6OBpwJkilSUVZ2IZMNvwhCJlfMdxrGdHF2cQVA/n1Rvr7exCq+G4he23duzh8A+Db39/cf/s6FNwOw1xNu/0PfOVsW/HSoAXD2EF8mLVJyuPxCgG8JOtxpBsAEWABbOB8X4AF8QAAIBuEgGiSAFDAORp8N17kUTALTwGxQCsrBErASrAUbwGawHewC+0ADOAJOgNPgArgEroE7cPV0gRegF7wDnxEEISE0hIEYIKaIFeKAuCAsxA8JRiKROCQFSUeyEDEiQ6Yhc5ByZBmyFtmE1CB7kUPICeQc0oHcQh4g3chr5BOKoeqoDmqMWqPDURbKRiPQBHQsmoVORIvRuegidDVaje5E69ET6AX0GtqJvkD7MICpYXqYGeaIsTAOFo2lYpmYFJuBlWEVWDVWhzXB53wF68R6sI84EWfgTNwRruAwPBHn4xPxGfhCfC2+Ha/HW/Er+AO8F/9GoBGMCA4EbwKXMJqQRZhEKCVUELYSDhJOwb3URXhHJBL1iDZET7gXU4g5xKnEhcR1xN3E48QO4iNiH4lEMiA5kHxJ0SQeqZBUSlpD2klqJl0mdZE+kNXIpmQXcgg5lSwml5AryDvIx8iXyU/JnymaFCuKNyWaIqBMoSymbKE0US5SuiifqVpUG6ovNYGaQ51NXU2to56i3qW+UVNTM1fzUotVE6nNUluttkftrNoDtY/q2ur26hz1NHWZ+iL1berH1W+pv6HRaNa0AFoqrZC2iFZDO0m7T/ugwdBw0uBqCDRmalRq1Gtc1nhJp9Ct6Gz6OHoxvYK+n36R3qNJ0bTW5GjyNGdoVmoe0ryh2afF0BqhFa2Vr7VQa4fWOa1n2iRta+1gbYH2XO3N2ie1HzEwhgWDw+Az5jC2ME4xunSIOjY6XJ0cnXKdXTrtOr262rpuukm6k3UrdY/qduphetZ6XL08vcV6+/Su630aYjyEPUQ4ZMGQuiGXh7zXH6ofoC/UL9PfrX9N/5MB0yDYINdgqUGDwT1D3NDeMNZwkuF6w1OGPUN1hvoM5Q8tG7pv6G0j1MjeKM5oqtFmozajPmMT41BjifEa45PGPSZ6JgEmOSYrTI6ZdJsyTP1MRaYrTJtNnzN1mWxmHnM1s5XZa2ZkFmYmM9tk1m722dzGPNG8xHy3+T0LqgXLItNihUWLRa+lqeUoy2mWtZa3rShWLKtsq1VWZ6zeW9tYJ1vPs26wfmajb8O1KbaptblrS7P1t51oW2171Y5ox7LLtVtnd8ketXe3z7avtL/ogDp4OIgc1jl0DCMM8xomHlY97IajuiPbscix1vGBk55TpFOJU4PTy+GWw1OHLx1+Zvg3Z3fnPOctzndGaI8IH1EyomnEaxd7F75LpctVV5priOtM10bXV24ObkK39W433Rnuo9znube4f/Xw9JB61Hl0e1p6pntWed5g6bBiWAtZZ70IXoFeM72OeH309vAu9N7n/ZePo0+uzw6fZyNtRgpHbhn5yNfcl+e7ybfTj+mX7rfRr9PfzJ/nX+3/MMAiQBCwNeAp246dw97JfhnoHCgNPBj4nuPNmc45HoQFhQaVBbUHawcnBq8Nvh9iHpIVUhvSG+oeOjX0eBghLCJsadgNrjGXz63h9oZ7hk8Pb41Qj4iPWBvxMNI+UhrZNAodFT5q+ai7UVZR4qiGaBDNjV4efS/GJmZizOFYYmxMbGXsk7gRcdPizsQz4sfH74h/lxCYsDjhTqJtoiyxJYmelJZUk/Q+OSh5WXLn6OGjp4++kGKYIkppTCWlJqVuTe0bEzxm5ZiuNPe00rTrY23GTh57bpzhuLxxR8fTx/PG708npCen70j/wovmVfP6MrgZVRm9fA5/Ff+FIECwQtAt9BUuEz7N9M1clvksyzdreVZ3tn92RXaPiCNaK3qVE5azIed9bnTuttz+vOS83fnk/PT8Q2Jtca64dYLJhMkTOiQOklJJ50TviSsn9kojpFsLkIKxBY2FOvBHvk1mK/tF9qDIr6iy6MOkpEn7J2tNFk9um2I/ZcGUp8Uhxb9Nxafyp7ZMM5s2e9qD6ezpm2YgMzJmtMy0mDl3Ztes0FnbZ1Nn587+vcS5ZFnJ2znJc5rmGs+dNffRL6G/1JZqlEpLb8zzmbdhPj5fNL99geuCNQu+lQnKzpc7l1eUf1nIX3j+1xG/rv61f1HmovbFHovXLyEuES+5vtR/6fZlWsuKlz1aPmp5/QrmirIVb1eOX3muwq1iwyrqKtmqztWRqxvXWK5ZsubL2uy11yoDK3dXGVUtqHq/TrDu8vqA9XUbjDeUb/i0UbTx5qbQTfXV1tUVm4mbizY/2ZK05cxvrN9qthpuLd/6dZt4W+f2uO2tNZ41NTuMdiyuRWtltd0703Ze2hW0q7HOsW7Tbr3d5XvAHtme53vT917fF7GvZT9rf90BqwNVBxkHy+qR+in1vQ3ZDZ2NKY0dh8IPtTT5NB087HR42xGzI5VHdY8uPkY9NvdYf3Nxc99xyfGeE1knHrWMb7lzcvTJq62xre2nIk6dPR1y+uQZ9pnms75nj5zzPnfoPOt8wwWPC/Vt7m0Hf3f//WC7R3v9Rc+LjZe8LjV1jOw4dtn/8okrQVdOX+VevXAt6lrH9cTrN2+k3ei8Kbj57FberVe3i25/vjPrLuFu2T3NexX3je5X/2H3x+5Oj86jD4IetD2Mf3jnEf/Ri8cFj790zX1Ce1Lx1PRpzTOXZ0e6Q7ovPR/zvOuF5MXnntI/tf6semn78sBfAX+19Y7u7XolfdX/euEbgzfb3rq9bemL6bv/Lv/d5/dlHww+bP/I+njmU/Knp58nfSF9Wf3V7mvTt4hvd/vz+/slPClP8SuAwYpmZgLwehsAtBQAGPB8Rh2jPP8pCqI8syoQ+E9YeUZUFA8A6uD/e2wP/Lu5AcCeLfD4BfXpaQDE0ABI8AKoq+tgHTirKc6V8kKE54CN8V8z8jPAvynKM+cPcf/cArmqG/i5/Rf24XyI1LzWjgAAAIplWElmTU0AKgAAAAgABAEaAAUAAAABAAAAPgEbAAUAAAABAAAARgEoAAMAAAABAAIAAIdpAAQAAAABAAAATgAAAAAAAACQAAAAAQAAAJAAAAABAAOShgAHAAAAEgAAAHigAgAEAAAAAQAAAHSgAwAEAAAAAQAAAHQAAAAAQVNDSUkAAABTY3JlZW5zaG90Z2Ni1wAAAAlwSFlzAAAWJQAAFiUBSVIk8AAAAdZpVFh0WE1MOmNvbS5hZG9iZS54bXAAAAAAADx4OnhtcG1ldGEgeG1sbnM6eD0iYWRvYmU6bnM6bWV0YS8iIHg6eG1wdGs9IlhNUCBDb3JlIDYuMC4wIj4KICAgPHJkZjpSREYgeG1sbnM6cmRmPSJodHRwOi8vd3d3LnczLm9yZy8xOTk5LzAyLzIyLXJkZi1zeW50YXgtbnMjIj4KICAgICAgPHJkZjpEZXNjcmlwdGlvbiByZGY6YWJvdXQ9IiIKICAgICAgICAgICAgeG1sbnM6ZXhpZj0iaHR0cDovL25zLmFkb2JlLmNvbS9leGlmLzEuMC8iPgogICAgICAgICA8ZXhpZjpQaXhlbFlEaW1lbnNpb24+MTE2PC9leGlmOlBpeGVsWURpbWVuc2lvbj4KICAgICAgICAgPGV4aWY6UGl4ZWxYRGltZW5zaW9uPjExNjwvZXhpZjpQaXhlbFhEaW1lbnNpb24+CiAgICAgICAgIDxleGlmOlVzZXJDb21tZW50PlNjcmVlbnNob3Q8L2V4aWY6VXNlckNvbW1lbnQ+CiAgICAgIDwvcmRmOkRlc2NyaXB0aW9uPgogICA8L3JkZjpSREY+CjwveDp4bXBtZXRhPgojSN9YAAAAHGlET1QAAAACAAAAAAAAADoAAAAoAAAAOgAAADoAACjTItoEZAAAKJ9JREFUeAHMnfmvZdl1189983v1hq7urp6qu6rdg38J4W+CCAkJIYSEhBCISeDECOQoURS3MYoihgSbRBF4iB0SQQIhxvCDo0gZum23u6unGrq66lW9evO7fD7ftfe591W120CCxLnv3D2tvfbe67vX2mvvc27V5P7htemDg/vD3Xt3h/39veH45GiYTk+HpcXJsLSyOKysLA+LSwvDMJxxT9tNMMam0Jua5J4kNE1OsmY5EzOS2cpHork09TtJ8YV/ivmuSA/I/bg8s1udRl/c/+y+HVauMdIzDCf0SpnYt953smswIZzv1sexmDQC5bWwuJCqJ6cnw+nJCficDCfHp8Snw+JkZVhb3RzW17aGDe7V1fVh8uHe69P7D+4OH935cLh//95wdHRAd06H5WXAXF0eVtdWhqUASiu9JQXZrjFmhA70T4qDn1/+CVTdlpn2L/GO4JjfCmwnf62VSkJV6Xw3QVXwUH4l08b/i6+PZy+Y4nfG3QCdCx/pRxt7RvwQwwXltSCgICKYx8fDEffJkaBOhwUAXV3ZHDbWd4atzYuAujlMfnD929P7e3fQ0NvDAzT06PgwAltGO5dXlgB1aVhklgyT0tA52be+deELER8J5oiShjKzzfKFohNMY4+GyX1k3GaM41VAvdm5glEfKM81VqjkJ333uj+89c5yxnQWm3GensmJD4UdVEujsS1/Rt1ivb8PFXT5yPP0VK0sUE9PzogjuinKtriBhm4P2wB6YWN7mHznjW9O9/bvAObucHC0P6jaEzRxBTAFdQlNnYhntNMhcDdh1uALFDPNnkhcKDUy8kNiiAlpgBet39aZD0Nc+f27iucQtVIle5GkJeD6Ho1JePzorxK4bGftP1IL1h34cxOqEUYjnWx2wZDPWQPYzqVu8nsFw0ZfBE1m5qYodQT0DEC9Twwxt2enCoDlcLI+rCyXll5Y3xom//l//tJ0/+gethkwz44Z0Rl2ewLRYtbOhSVBaNxt5iFJFRhdrIqjC0QAIefL0pQYb7ccU6uVS8xf5SZs5dZsaUt77ph5rmxGkexIpfJ+1HcXYHXqE6gh7GA+yl5wNLXUFzjusxbKMZPG+oFrBmSnH1uVptULjzN4cp+1GxeHOIqGhi4M6wF1cbLGGroxTL7y269Nj0726CRgLhSYS8sLw/LSYoCdLKR3dmfubk0jtQhOiVtsSmASrbADalnWBMtDUPQVb3mpOxYWu8arqGVvOY5HI6u0pXXN2iOdPvWSuXCuieSGrsT8cNFcrTE6z7bi7TtBAToDZA4cOQiUHfMvSBrt6QxZIgAUNEwrFtMw9aQP0KyrAXQ1gE7PVobTY5zYxZVh8qVvfm56Ot0fFpenmFeAbGZ2ES3Veurxzjzc9IhWYWwnxquEbLIL3K4lNyAV4SOARnrSEfGvgZVgjnfLDl2VUaPVHYHtPELVWx+ZnI+k7nz/EWATbhGG4Hydj0kJRLgoZMvDg7jy9xPhV3Y0NyRQ5q/CVBu/JDDBRd3Ts1Oc1OOYWvPbkAkFZolwFe3cAMyF4cHe8TDFDE++/BsAOuwD5sA2ZYJ3ixOEV7uwGK7wOYX3WWNma51ztTwOvUk94FiV9PiByGJpA1qh0UAxn08IjM2uArjXqfopDe8wq8xU6q01+hmb8zG6HfH3SZlhKHzJptWP8zVmqRpy0j2KPlItHCOacA+QxZPlj2LjdVs5k6flF3MsTmfYQwp0hPRsz06b/MlTJvFTAugy0K4Ox0eT4cH9w3KUvvq7n58enz4YhsVTQMQVZsHEU6YmnDNomVU8OAQY0/mTkAbS0gyMCHxhbLw6gbAgq3pVOfAlKo+kileRJc8qZlrXsUYYZukt2/Dog0kR9vVdyeRF5vVFugtXKFqfZNwayFirVvsuRpLMpN76Eg5zxBDJs4NnqFMUx6gYQFAtdBrI/Ut+51TgwqfXdVacu+jTVC1dhPcC25hhODpE8U6R+Te//S+mh6d7DKjW0HQ/YPZtioPmHgVHXCLuolWwxntGxZ1FuZ0gAhLiWa8KZNOpmYlUsSbkznOkcOD1SZ0G6MSlIfwfaoB6EajS4S6h2Z4X6TgvVWb6XNtFXaSOyxpzDIz2dLIhqXRIicu/HCK1S0AlaCMjziIWGhnlbxbKInlVMHVNgTbZFSQuoGa7fTkBupNjF10cpT89oIiXNqMtbfAKp4QMqKj7eUDbhGgitLK0oamuNi4flxBKLunhG94J04HwabUkwmSdMdBj1iKsTOtj+oXEFHiE7II3SlXW81KbcSuZVlm+rW69qt1i4dT4/hkC2vpXrbUGGZ9d98TI+/iIBBo7+QYaenR6n5G4U62Ba2rpTgYX7SStQMwvwRj3jyaaoMihLERkNUCjnU1TLcpV3SrBVp3Qq3GdpIUFtKZBGRUIBQQZtCWgi4t444TVsZBamNs16PDwEA1xLDUJPCRx8hSNPN0DdFH1ySafnme82q9YL+lwVjr9agSWmC5zO6+hEtA2rMftDPG01MOUW7+Y9YnU060JKjVAM2mnTUOR9Te+/cVsWwpQBhf5yc3BFajzQCqLUR6hqSZGMCnMx7ABuqC9VobjBe/+Cb8mZBm3gUi6iGe2vLwcSjfUJ/2kxM01INjmEuULenDhP9/IJJvwDqjAey8tLeHeOwmYzTaHJxmnr7U709C5jtCpUaCZ7HZzrpxonKOMz5KiH/eNTKheP1659GT0yRlOph1EY1v0xSettfyZCCfIAD4CioaeqKGsp5Nv/Pd/Pj1kH9o1dOj7TrWxayntOHjbUxkMu3amB0kXRBIKoMKOVhCPRlj/3NXLm7kVdBnnqnCRxpYWl+McHB4eDQeHBzxA2Cc8wsSUKe30EUarXXw0ubr9PGwgXxCdHN4BFWBXiK+trsSzt7wmpdTtzriKaYRPOnIV1I5Qa1M4UmbYwDoH6FgeeDImWaRWwtas/Fq62pCfeZ2/BF5dQ0s7A6gm99e/9QUAnZncyJQOO+ecrQLp4UJC4+2WLqCGOfQWkKMjVGtmB6qA49vidFbafAgFX886rrgEmcJhWgNjIEeHx8ODB/vDvXv3h917uzxE2APYA/IOhr29B7j2LBfUtdezi+lI3dOT03RNTRbAlZWVPEFaZp+2s709PPvsM8PFxx4b1tfXANq9WqTXQrjSt1wRKEJNUuFCR16/UqulU0q8AMWadAes9dDy8nyrfp8cc+zGSVHt2NSsreqP4+trKFp6BCWO0uTrv/fa9PAYQBdqDY3Qm3bG1GotO7AM5jygsp41VFpZ2jkDtTQveLfRlyZA5yc8nQQKUzPCYDUjuG9HaOKDvX2Ae5BwF0Dv3L0bQAV47/7+sLu7xzqJm2ftMGshaU2SWmojK+yvV9DGtdVVjsgAdXkFIHeGy889Nzz+BE8qBBSa4DWO1zW61mnB9lx7Ec32kVaNlUYYfgdQoXdTqhkXSEE13qgIW4xx9nrJmwNMPuNdhY8CGll1QPsaioZ+/fc+Pz04+hhAMyg6EoGXQYu8ArCtKKdm6CIFSY00k9u0LrAVaikNw6ocYWQtZOHWDOqiu5E+2D8c9h7sDXc+ujPcuH5z2L17D9AAF628d28voWAfHByjoUesIeyhaSOa7rqdtjW5U+qxRtLeCidgazwKFLi1NUBdWeXpxPqwvb0V7fRx4aLHna2+lsO0By3r6+vD1tZm7gtbF6i/xtEowLIkyFvA9KjPWI9PA2LTSlWoKNqwhbDoHwWzQKRYijYxjM7yZ1paAp+e1Rh9lFbbFqT9tf/289NDAJ3q5XKW2x2gCjW1dGGcsUQDMA0Z0nAgNLNdpXVtBjNgP5nNlkMX0Ed6U7WfchILmoDt7u4Od+7cGW7duj1c/+DGcJ88gde07h8c5jjM+NGRJykK0rV9ghM1A1XOARQatUbAVnmCFDCjoa6nnIrRR+u5hNvPPhlcAtRKnwlvbl4YHr/42PAY9w5afeHCRky3k3BBB6uPBz7KykuQ8yjNgSkny7h0noCryqOVHTDqWRWyUTs7mIapPf+lNVNDvc9m25av/e7PRUM94hsWar1Jp/q62cMGqg3af7sXsGkppi5tKcYq7I6RpjQDplLKUp7a0co1nrI7u3fv3h8+/PCj4fr168ONG7eIf4iG7gLu/QC5tIg5hId7SukFVJDtSYBoa3G2MLaBCE4pj+ZApjw1lcvw6WZUgR8fHyGQkwh4Zi7LXEu3yvPgzc314eLFHQDdCaAbGxtMBtZjJsY62rrKHVOO5q+tc77KRPDS3LqGC24ApQ9CE7AFPHdyRLGEKnTEe1/kE808B6rjI39eQ7MPRXm++l9/dnpwqFNEw25T9HKdZX3tPBdWm5mQAgzTYi37EmwPRyEj6JwYpZKlMGy1FhbYQuCcaGJv3Phw+ABtfO/d94YbNz8c7t5hrWT91CHy0plRIxRMASEIPFAgz+2N+X0S2Xaf5WKeeGvVbljux3X6EI338MF1O5MFECpe4/Mhxfr6yrC1fSGaqnYuA6QT1bV4ExO8tblJWCZ5CxMuwNF02ggYtFmaT1/6h/3vI4A6UOTa+97D1GIc56+moSwrp5jcHCx4UvTV//Iz0/3De7TYAAXUyPthIEdNVSB125DYW0Eh9TACU2PaPQ+oNOUqul6e4PAcool3hw/ev4l23hxuop06Pz5lcG10lqt1KzgzrlsCF/NLuZfvPHXtrXbtXIrOfakASIoeqxklHSeGTpO3+9HS/grPFFQr08Joen2kOEFr6RJ9O4uWbm9voLWbw2N4yhcvXkSLeXMAE929aT3rOFOMIZMxAmug0ZfeJ2VZf/OAloFOfuvzbFAdUEzuPKBf+Z2fzgNuNTSvmdhgtJSksulAEmq27FRMLZyVW8nOvNK8LlTT0Rg0smtOGEaWVfP+vQdo5c3h/fdvAOiNrJl37/BeE0BnX2iDXB4ICGg0lE4JsvtL+7fqS2zjHpL+mMlVQU20llUzv6QTGieG5lZ+ClYz17cYgu5BxuHBUSaQ5tdLE37ES1o6ZGrdxoVVnKUNnCs0FO3c2tpGk3lxC0dK7d3Z2WbNXaefK2WKoyhy6qCqqQrFiTaXTyIa2kFvZVJ0ydttnfgCFAI19Cu/87lo6BQNHQGNvF3IuYkzuQhNl6DMy91ZJwGzBnHXUNMBFlA9pqvy3qEFAPxoeP1Pvje89YN3AuwdwHQLIkCbCEntc5DRUAUSoQooBwaYSYWSNyuasAvK1ikD+qV2lYWodI3BPEwuFuAQz9mwaJpTlEmrU0W5gALi7O27ekZ5QP6J+dDGecLBctvjtsb19MLmxvDkk48Ply8/Nzx56Yl40zpkPkywjqLS5J6dMaE8fiw0FY5Ql0PVrYng8vFvdmkpkAVVc1J0CIWP1P79b/8z1tBucqmhhgpeNBVhjkA+BCicg2OEVutkELc6UhM8ui5VfdRYQPXITXOmQNTMP/zD14e333oXJ4j3mjgocNa5Nu3sbMXMRXvgEI/SmcXl6xgnpwBK35Z4RUYvtUY7G7Exc20zwDaQqg8CuhCHxfVb8xkrkv5RBq10tn3MG3aG0kdrAdmlQo/ciSAO5qvt0XBoBXZjY3V45ulLw6uffnm4/Pxz2fOubaylUw5D71it1CkT1Lqq/9FMQdRpGkF1hH18zgb6E6eoP22xIwD6a//ps2xbHrCslYZ2IPtBfdfSaGgD18ZHMNvgJ/FmZwDSZRqw4fxl4B7jra6uZdZfv35ruHbtveH7b76FQ3R72AfMYwSkYAX0woUL0VQdFgcYrQ9EsgV1Bmqf6hkujdg3ciMMh26W/UxfBbDuOCcCx0eHSZffWZ7a6WvxkV4egmnoJW/XWTUz3it5Aq8ZPtznOLKbb2Si1j777KXhx//8jw1Xr77AGrvN2yDLmYjKzjXZPh8e7sfs24O0kb7XBBFQ823XTrRukFcj80Wx2oNqdunLhHPvX/2tn5oeHfNOEXtQD+NH7aQx486mgKzAche/sGxg1qx3e6JmlnZ6DGUP7ETrD5rEac3KWrYib37vrQD6vgcHbE3UEol1+XPGGk+Rh7fNA4XN7Eo/7Ku35tK+Eh+vNngQ0/HxmgFK/+y3/aS/tEi7gKeQDO0sqeqz9QvQ5PKlzqRMviDjmAVUTXcZ8LURlwa3L5cvPzP8uR//seF5NHRzax1ZTobDo0M4nDFpAZTYEenTaCj8/IO5d00k4l1DobZ8dtnugAXxUIF+ndgX3in61d/6SY7+eGOhHSw4exyeYDrGaGgDted3YCMkZztm1HVPVx494KN5mgEaTVV4CAz5DDfZlvzxH70+vPfe9eHe/QdZNzVZ8pOP3qxeYs1+PdBzI2FMilVzxz24fTHsE85O2weao57m0VDe8guY9MW11W3TIlbDiRYLYzn5Xgq0P91xiZCnd5VXnCah0xsuWk2wW6ENnKBnnn1qeOGFy8NLL13NWurBhmvlgRoJTa2jwJW9qJOxgHwYUAaXsdVES9f4on3kK6BdQ9VW9gLD5Fd+8zMAytOW5hQVWCXATGC1Ic6RQpFVCU6eSQsoICiU7Aed+QHURgEwsvCpyUoGf4h3+M477w2///t/AKA36JQDkVcJXOdDDzdnpsxouMyudKsPEM2kX5AiHMdY/fPkRx4KbB7Q+TUywDL57O/iwgqVMb/ZpmhO2bZgOiusLYzAZbD0JoA2YAVTEAVfGk2kR3+PXdwGyBeHF65cHp555qkcTKhpp9hFNdT1v5tTZWjlfJp2FqhMWvgnHhIp+tVkyxqqhtZpESdemtx/95v/iDX0PKARjnW7ZrYwJth8hSf7DgIvlbkXdMYjygAaITFOx6oWrPHOqMDtoZHf//4Phm99638A6M04O5rZHBAIZMAoTVHwlZ6DNaPyCw8Xs7Xt2SobfwGUVockEwJeCj/aaZcBT1DlWYC2iYdQnGQ+wbl3795wl3PjvX2e4OAMUSvruZPL4ZbQGZMD4U8vOBaAdPpp/5HFpaceH1599eXhOUyuzp1vUp7w4o/aq5aqoR3UaKqjiaZ2AAkbmL3dMYTWftUkxORibl0/T086oP/xH8bkzpwiEIA+gAlkB7VpQAEpUzWCGRtBOpDS0DK7VALY7oXpDK1vXCA95Kz2+997cwRUEysItXH3bFRB0wpCqhe+3WfKr11i6ei43Oc9++zT2RLohPTnnZ7Rxiu28woffjMNbaBSZtEpZ8E+0bn90Ud42reHm7c+DLB64QJ/4cJmznw1q97HgKFDJJgxyWizl23qzK1fWBueeurJ4aWXXwTYJ9iP8u4slsTfDGlenbxq6zE/OXH7FUnTkQ6oYysN7aHcjVfot3U0uW5bSkPZYrmGanK/LKBzGmrlcjLKhCkTDxpiilMWdsU2EwVGCFxgYnYngII5cyYIqHsk89fW0VAAvY+GXnv72vCd7/zB8O671/EMjyHl/W/2aP6WRsF7acbkq/Mg734xr8brCR57vYImXLp0KevuMuuuQl3m0VhOlZhwdU7LEFzf1c5uVdBY+yMoe2jn7du3h1sAegtA7/JwwOetTqyN5m0fobFHvM7iwwHNZk6yUA+1zontntm958XHd7Lv1NTu7GwyUV2fPQg5zARd5wmPE/WEcdddJrsDWia2wBTFAjeQjuOOTwJ8rptdQ8/Q0DhFX/oNNdQ3Fpgto8c4Byrypb8FaAvlLJYWKH8HlHVUMDVteo4WuIb68i/CXF7i7W7MiNuT9977gP3nHw3vvX+d/Sg/joKZM1kNk5cDcXugZvYTlmgsZXmLIU7TMkA+iWl7BafjUjSyP8Q2dAnwOkObrFtgNlNO3/RwswYiEd+C8AnPLiZ3dxeTy7NWX12xL2tr60ozAO/xXPb+/ft5qG4dvVq1TLPplsTTokvsPZ944rFhG1PrmNwn68AJnuZ4g72oEzVm17WaW80v4JytHcQ5UM0VXDuSCa2M3M87MTS3XUM5uPjSN//BHKCa29kBfbRyBBSu8CmniYhJ07TgwBVQbQM0mVTiFtgFQI5HFm1gzeEM1jPbP/6T1xPmxAc+apZmU559cAIqyIKo8NVUT1t8nHWRR1mXnnwybxxsbfEjHSbN/BpZa5PM0lXK7WO7HQi3J0BxUvCENaFahdOmFVZ0PItMDNdJgdy9u8vPLvmlHg/ZfXvikONHWdX6vQiIm1kCdnCK1rQsAMiUgpOA6cTxKkwbo23lAfgcmDTNdR7QLosxDInjQiZ6ug3MsxMVCZP7b78xD6iNCmppqF6k2Cjk+dtBIJrKi8RKUCFGKy01vgiYereaXk3WMWegeoU3b94aXn/9jTxVKZPFGoS5PbdWwlcAfVVEM+n+TnB9IP344xeHp59+Ck14nNdIdpgMqwyw2rWfXoKXMJ3tQFa/U0C+gDqhNHflgDVfgHZNO0CdE82rb00Iqo5T11IB1ZIU+JMcV15i/dzE9Co7gax1shQl/UG2gsOX0Bm0dLJaXtGMIDYHKWkoHCvSiVxPeblahygmN4D++t+faWjAVENbJx1T1k9Dx4eQ6m8MKyvw0l+FCGELFxd4QtEAPTwUUE3MDFDXK4GSXGfBtYXeph3b0lt1bZK7bzKonU8++UTAfPa5Z4bHdnZyCOH2o9q0fruIVqrnGcppPh+RI6y0idkURO+YZ0JNoQ8BNIvSRYObJvfJ8ADTa98Ez73zlusmk1MTm3Pa7JNLnrYTjRXM3JWTbHvRwB2BlKaBOXs++qMA/frf4yUxj/4wxjG3zqamoXogAlqTtQma4jlgI6DITGEJ5sOArtLR2hp0QG9FQ1+PE5ItAO3Eu23S1oQpWAHVe3RQrmkbOBSXLz+bA+/n2bT7HNKySKLBRwdmV/rVkyQgnWW1mEKDpBzBPraaoPmxEA8L4qAJNv3RagR0hOLk7GtptNwlwgkIa7cp7jvPpu3wnVbi+NhawDSdLvHV+2KR+efvgCmw4dHG034GcYr1Uzv9wVKcol/++t/l6K+f5aIt0cgGasAUXAYaUBkoiXOA2ivzIirLOqiY3GjoDwH0jTeyTWjV0lnjBWbtKev1EAWHJ7p3kA36p166MnzqxavD1RevkN6M5+k24tHLfj2U27OaICO4tpYlnrVOsXGFhrgTBkZajzh8jM89reO1JJqrDBwBYdZF1suske43zzx89yTLdXTe+ak2eifzkwezwkpeM9qunQU0RA4s2xaA5F3cAlR1Yg39pa8JqL8PFcw6fcmZboBt2mncT0DV+YFh/aUHkZsDTaZhgTozuQtZh3zO6T/4EA0F0Nu3P6q+2T/3EPD1DYE4GZq+MHYN410ivOMtHia/+uqncgpzhQPvTbYUhwcH2Zo4zHOX1uVjrsruoBUIASLAur8sZ8W8XG2y2icna7/TcQimliefdR5z7LqqqbXvghstdVlpgMYizXUt0bb+257Npm0iBaCTZBavMgWjo7jYAKVtfh/KnmCY/Juv/p1oaI7+PKDPrVbOwAxO8LCTvfPJaz2QvWg/AmhzipxNM6foJO8MvfHGd4cP2fvlgoEihkXMWb20hQYgELXTfyRCc/0Ybwa88ukXhxevXskpjE9kTskvx0NOc5IqzvTrfF4HtMbi5HHyqWkInztHfgBTb9Tbqxo338b4sL+2Al9qZzlFTsQl4j747gcINSHlCzOAp4KhnzCQCVnGky6NN15AVqHxEVB4pUeZAPXLMzVUMEdA/9V/+NvR0GGxgZmQNU3wYnJhbNwOIYWcuEQayW49ssgBC2rNYuNuWZYwuwLq0xS93APWQl8C++53v4eG3qFiRpNR1amTjgmCQ85xPJjxtfae8Exxi+eLmFu0U6dok/d7/HcHot0lFfg8fNnvlpemtDZ11SFDBhdwFH6O5wg9ootDEgkr86rVATAUUB+lyda11XSepgBcnDyqBJxQSBU4W+tVZp3wlH/6Z37dZhS4gBo607QHoD78mApm27bo6S7ws/zJL/7a3wqgE4D02eJkSRceGRh3rOdADVzkS9D6Vb05DyhgSiCgml3mLx3yNc06M71x48bw5ptv86rm3Qyyj/AcoACtgPUg3TZoynZ2LgyffvXq8OKnruSR1Bb70TJpMG9Xm+c9WWGfNE1gXXJdWIoZCfFXN3DOpY1anj/JIveExEt7GC3Ckk6zK7+a4MWvatgVS7hafwTJ9V/Z1KVQ5UPAV2itQ7wAdRtU8XKG6lDhjK3L9ExZ8+8U/cKv/M1sWxYAUhAN3QUEXHHzrnYSCmk/nguoad1+aI786DAIqHR4hIA6yb2QtxTusjn3YOHtt95hg76bzjpQBeDd11Db1JR6NOhEULN3ti+whl5hDb2SR1NbnOXmkHuUSIngY0GlR3UpqBKSGug6N2piCCLNEirpKuuh9ext40QEFpVO6JfcDaqNlPYyq/XJRTQmHqsVs4zU6iIMfVhVFrzibAVMlwYnjmBy+ywUQIczT8cA9Itf/ht50XphSTDdPvSQtj3BowNqjleEHtBK+OSQa/ct8xsQG5jRZQFFQwVVD9H3c+7cEdAbw9tvC+i9DLx4UIN2+h1AEbYPuNVOjwjV0EcAzX6P0aV9+qrEP+lSoE1AHcgSvpWsW/XNS47K6gchVqlApSTpM9cz0uaFInFj0tVdjFo57ac6mWWB8AEw28WR76yPGUzykg+f0sxa5+O4sV0pQD0gUUPZ4i1woPGFX/7rvGi9V5oJoIsjsMgogBKqcFwBlAZjcgNs5desK5C7hnZAfXQmqB7Qq2kf8cqmgF6bA1RhCGBpKFPCNRTWrmM6RW7uPRTf2dHLRUMxuT5rVEPV4DhFTjy7A7NP1FAFqqDR6vI4S8AdQMUe0TepM6cKnADaaKWpvwYkyapWvEl0R8YCy9KmlehkMHN8qJnOomFdGQFRwx6vuoIvkGp1gVvmVmfIM93pKf+uFP8I1eTn//Vfy5vzMbXzgHIEO39KpMTr07zZpOb6QftVXiZXQOtFat4kb28FfCygbeanLkB2D1eA4+UyDX1Ssc8rHtsA+ulXrg7uRa9cee7/Q0AFr+4Ayth6eA7QJjbX2/pZZAO0Iy2YCsCr85OXoOamDSZaHCIBxSFyDY2G/ty//Kt5jXMElH/epkxvA3RcQ88DKmC5NGFc3RxrdqOdhAK5vOzP9HzTXA3V5KqhN9HQd7OG0j86Xf2XhydGsfANUN+3iYbyOMuXmruGXrn6fN6HLQ2tZ5Iy+kTttCFvhNQ1qGtmhTUWadQqr/99DZWvrDugpUlq1ey9JAgcV7GOxh1jfcqRqkylHKJHAJXfDNC8wsmwTwSUU6IAqob+zC/+Ff41zt2Y3MVl3G12GVlHNbeCqZebNuYBbVpqvt0j7KUFdIG6CJCrK+t5dKZj1AF123LtGoDyHq7mo4/QtTrmVn7ciB1zAqCsoz6f3N5eH15tGnr16uU84J69BqmYmtntDO3eI5ftzQC1+ONBrYr/t4ACawHmPnl+jcy4ineZXF4sY4w1gZBiB7JI8m3/nIDyca/razsCWmuomgpQ3eR+7hf+8nlAMbU+SozHqxIGUBuSNyH7n4BGhh/XzyqqtOXRUmaDbyqsBFCf2i+haceAuJt96DXeKwqgzmDnhPxk5/pp6FonoHq61Ntnw77Fm3OvvsLR30svDFdeKEBzZtremks/RlDt78NXgZ5vGg2QhpL1sFJmpF9OuHPOU8u3lv3OntA6+UsGeVWmdrqHVrMoGa8ez9goj4bKzEsWLUzarPBroMKr1tAC9JifQcw0lH+N859+8S+NJleHyH9RDNkDgNuYEuzo5QY6MptjFMHTYAGgOLkDuIjUWe4KJteH24s8dXFw/tbTHyO9cw1AiTvrHMsM0OLnsGoTXb8Q6xr6CoCqnZeff5bDef4Vrcxu16AmkDEk6+Ery0PRdSFJLjjpROiTStrtgQfwrlsBHzo1RdpwadWMd349lKb/+q3npc5cnwR6vOVJurSvGFe/4D1Xp/JYWMAAf5GzbOpwuOC2ZWUJQP/JF35izimaN7loXjtUKMDkivaNGlga6XpnOd/5GHYNdd1cXvSpfb0W4kmRPxv0NU7f/BPcaAA9Do/wUkMdQt0K44S3ywVUDX35lRcCqC9g+dzxDC83J0VjHfsyLwLTc5d0+fML8YxxaRQXGX4TZJ8ooE665Jlfd+qmisIt+pFGrSYvYBmmKfnOrs4nIQR17iugLjPc1EsbrVrJmPpNUJ4U+c/Z+INmn7T4L3P6r3JOPiug/BTCEyK1c7ZtQVOhyz5UjBojtyUFWDONEQDFHcjmFEkvoEu8Jimg/mzQH+f6UvUtAH33nffzusc8oDZRJrdG4WCZejktyuF8B/RFNBRA/RHQabYtTNVzgFLth17y5M7fLExTrT2B8U+hqmWGMbssqIlLZ55toCkFjlX4jLT/Z4DWdkRAOWhwjextpJEmfttDSFnkANT3tQ4PABQN9V/mXF3mzY3PvvYT+fVZAeoZpKACGQcM3SGKoP0KaL4m4jraGqHhgEn5OVClwWb7rqjHf0u8uOWTFjXUX2YXoPxyXNnYResH0GrF3Lr15Pg5vk9bttZGDQ2g/BBXL/Es/yzsjJ6KP+Jqgo+wjEPOl5+0mbhZVRZHPFr3EKCQW9daqR9669SdtY54TQKJZlenMaw1Ed4xuRWaF56tivL2qp0NqQDKceoIKD8zOQcoHq5blyXXUE+LvNXQ5hTJLM6QR3sBqws+zcyBSiW0lBWUvKL1YEEN9Z9euYeG3rwJoO++n1c6w0UgczdQ7T0DNSASDfUfyRDQl5rJ7Rp6xD/a7HnuD9PQKG74zL4Ergs0LRQiNsnlVyJJJ8XXfB3rWlhB42Wth/I7oAHNslxtVKlfdQX8YTDLIqTVVm8+UEubyd1/SEN/6rW/iIbeHybL/CYjThFaGkCRUVtDsy+MeNXMhzS0DT7aKSrN5Ap+N88xvQKKht67uxcNfQeT67+nUCbWenAYPVySDLJyZ4Bubs5pKE6Rv808PHyA6RFQ9ej8FdEhx4RjkUKSfTljo5wVMPmKyms+JU3S0uSudMVneebmr9EUoHNa3Xoiv7RBJGAadgcpW5JywmqCtLarSvsuQDW5R/u+J8wIu8n9yQB6L9q5gJYuAep4pjuuoWqOYintC1ikzSkHRkGQkiY2QXMrLeBjGjykdx094R+w2AXEWkM/KEDl4x0wjcuUuwVG3Wv6MnQBipfLGvq8gG6ssJ3ZA1DevlOSuQna1dj0JGGTJOEorMKAolbWVbrlz2pYPbDO1S1Awkve+WsAM7+65hl6VVC96luhsqyCrqmF348AtNstsfCR5JEml8MFnaLVFdbQz7z2F6KhC0toaHOK4hg9soaqcXZGp8hYCV8AqotmkweAAV6zbHweUNdQ/l2hAPougBKfgekkmPGESROcXm4dLPgLrpdfrm3Lc5efDqAHh3uYXAFtR05WnLvGvo15Xbg9pECgKkkfCrTkWdRGZ26nqclQaeN+6q+F4afW4VS1eK9rN4ynnmWkBTxny9Jz18kSYSsPkRUZjPQVcdvSAPWgLBqKl/uZzwMo//DUCKigtjW0m9zSzkBIRYEFqAZkNDRxwVB8rTzaiWmAfjEaipeLhmpms4a+0zW0A1n1o6n2mSvrim8stGei2zxtefllfgT0wnPD08/wM4MNzPiJPxL2/dj5vWjV99sejQIxnqvEYrTAaWEVmouQU5qqRkOXkiQkeSjPLDMrX/pHAQ0F9TpND4u2TLRtF5gSQhqeBl5JJ1KAllPEONVQnaJ/DKAHDdBucuPlZv1kfnaFi2gQfgAVQQGGPTM6OJKqjwC1rQ20boDzfq7blnlAm4YWH6aI/GJ2rZ++x4UXTB9yu4f1pwUC+jyAPvX04/wjUsvMaP6fmemfElDGoZC7tBRjtMM8+tIF3MQbug5wCCJgs6ngH8xK6+Y1dKzdyoouzaqV1lFDBbHdYSvB3DW2i1yzbeEJVm1bBHRz+F8AAAD//+wV4DEAACbPSURBVLWdSZNdR3bf76t5wAySIMiGyW7q61iDW7Zl2WHvvXB4oU2rLbfUtrzwTi01tXN47w/gCC+9d3jp6LZD5gQ2QQDEUIWaq55+v//JvO++QoHNVoTuq/tyPnny/POcPJn3PmD2Hz/+V/PDs/1hZe0i99r6fFhdnQ8r3LMV72GYzWZ+DbNhZZjNuflUek7IzWWVgXI/htZNSP2V2dqwtrY+nJ1eDC/39ocnj78Zvvjiq2Fv79UwSELadGS4siKhEBsuLs5pczqcnp4Npydnw82b14YffPT94cGD94Z37t0ZdnbWqXM4zOcnNLmom9bjJe0xsRyZz4vvCufQoLyyCExXXuKmL4zV1duOGfSSUiqkvm2pf0F4brsQp2wsH1KWbPOIeF9Q97zFUya13ulS34xqPhvOzi6G4+PT4fyMcc7Xh831a8PsPwDoEYDO1s6H1TXAHAEFYMHsgMJ0hA5AiikgOyIAdThkmMtnAuawmgmwstIBPR9evnwVQB8+/Ir4fmhJb6WDCqB+vAT0FEDPGqA3APQjAP3eg/eHeyOgB/QOoMN5eEnD6ddEIAtwS1ALQVMpf61yi0fQ0Iqwm6BH0qaTaFR72rbEBVOADEOnldum0ob9bnVGQMkvhlLHlFe+K0r+bDg/B9Cjy4D+NRp6qoYC6PoFoA4BdiXaiaZeArS0z0Eg9mhnBzQ5QsO9SnkBa3xlZXVYW90AnPNh7ypAA+YE1EuARkMB9eaN6w3Q9xqga2jAwXABoAyvAG0DVgBXXZl81FGoXglMNwEmL/mWJzd1OzCW52oAlZQvtacMbBqgF2lvP0WR0Lamx9t0temWIHXoyDr11er3Dh0xGnqihp46dDR04/ow++lf/8sJoHNMI1oKqLOVqYY6BAHyU2AR4Q8wu4ZSI6aza2g0GQ0lHUDXCtB9AH2MyX2IyVVb1Wwp1cTRYDtRatY7A8/OmskF0Bs3SkMffE9A7w7buwL6ivFqcgF0HCzRK65QjRQtLKHaZCEzY3WNQrceWfMLgFkUvh6Hbi9PF007MxEoGYGSFhWTJrxQirbNbZlxQj+G3BLu6YqZVxp6eny2bHL/7ON/wRr6qjQUMFnqrl5DFbTinjftE1BvWWrrqONNHeo5AYast01DR0D3G6CPRkALQFpCcCVrqZSc4Re1fp4t1tCPfvDhxOR2DT0OoF37qvXV38WqUoK9JrAIrQmwWnVhRozUM6wGFVathXCXy0dQaFeAUhOAbWtfau+ijlQqrYm23Jo9FLheNyVW9mqAqqEX52DT19A/+/ifB9AZTpFraDlFwNGcIjUnyEGgwFLrnOt8q52jhmp6W34H1AmgyR2dom5yn+IUPYr5nTcAS7s7oNJpgE409OZEQ99BQ3eahl7Mj+EDp4jJ9W1XqI4CWQhY4UWq9VXCJLMEOxVuCXvsYyL8RmAUfoFQfQiqpA3U8ySNt7wOmOEIdhoUVetX0gaVZ3hxjvfwnQAFWD3c0SlqQJXZVUOBDoIdzA5s8juYTIBef3SKTi4AsbzcmNy9A4nktragxugSmj5HQ8/UTp0i11C9XDS0vFwA3SmTmzW0mdzSQBp/67UQzCisRKrRCAZ51GwgVZtWI/kl3ALI/Fa7AWY+ADHHDFNO4JQLfUZY/ZheBrq0ufcdwq2/ykvCNlcB+qdoaHm5blsmGtq2LJc1NKZUQOmn7jK5waXlCItemCEGnImxNqxrck/QULYqblsE1Lh6LahdQ9OqpUeTOwH0o48wuayh2bZEQ/Fy0dBsWzT/9Phrr8hXgStMW1S8tytBm5cKCRMtsaZaymxplZZfZE3xaeYzJjeGg7zUtT5g9LiAh46tyG/tQsMMLtull5auBkx4nCK3c0sm908//sM4RTM8XAFdb2uo2xU93cibr1rnyNTZEaxokSZXQK1mnIgC6lsbAJ3NBHSddXkt+9D9CaA6RfPQkYBQtg9x19MAeuZe1DX0dKhti2uogC40tDtFWUMZOtR+zdWE+waBRZhl+xbC7mhAuURPSPtFvEu78gS0g9kniEyNQMJlddF4kS4EF3lF7/KEq0kmJdpfBehPfv7PcrCQNZQ96JrbFqxqbVsi5wBW5lMzsbyGrqgVsb92UYDOMusBXkDZsqyioauA6rbl1f7BqKEvJvvQTBBArMlCS2aUAgmYEw3V5Apo9qFq6LnbFtZQty1OKsf6Ha4SclUcgVlggoY1r5bClBvyyUUwSVWulVp5r1+AltlNi7SbgEq6TDCl0jedUFrmJZiE1iFThaJIk/uahv7k538wP8DLHZ0iAF3TIQqolwHVlDagoFtrp2aO+mZzBcx4t3SpduIQaXK9zwD0IIA+Gz7//MvhhduWXDCIbQ8YoYuGknaWn7KGCuoJd62hH0zW0NUClG3LrK+hjeK3BsrED6EYJOjSsyFx83pYwm71zU/b1Kh6lVOEErcp9eG/TKhti6bdOO0MO5iCKCHrVF7vy7CmaOch9ehDOV+4rUOmSyY3gHKwoMl1/5l96FRDPbkRm4hbc0thQDUPxykmt8xuao3aaYtaPwvQVTq/ANDDaGgAfbEfExPtfAOg3SnqgH70gw+ayfXor2lo24fKj9cbHaOSTYSpBCNHmxCplmm+SCvk1LPuokaiaUMeNC2p4laHYKGd1bbXuRyWiV3009PJ6eQIC1D5MxFJNw09H+Y5U2kHCz/5+T+dH5yioW8CVDBFdAR0WUMLUOac9TK6VlctzfrZNJT4Gevhwauj4SlO0WeffTk8fy6gxbUaWf0UHddQB2EbPdwAmm3LGwBlbhegRc+hv3Z1pEsmJRurB5xJ7ZRXpasALZnaMCQCaEN0kde0Uz+gj1Ft61rZcMmEto/OQzRauiHvZCg59D7NV8KmNblXaKiAqqF1QjRqKIpYJpXGDVDVnFplVskOtJwopZ7V0hXdNS19DVBN7sEC0GcA6tZE5jyU7wf00rHLDqhMn3Cmq8mtg4X7dVIUDX2FUDz7OqcVhPi78upgWpg6CqvilYxYW9NWRkXrlHakVivveXiacyGS/1pzBDBpJrBAamGmIKXLyEcajU7vh7A0tPe/6Eea8sF3/pR2AGXnMOdgYeBgYcvD+dLQS4Dm6E8mJTABSsByUlTQXQY0dWVWkwwitX6uQ8e1dDVO0eFBmdxPP/vV8PzZ3nDGOmAvOSWagCot16Dzc7xctHSqoQ8e3I+Xux1ADxGYa2jmvs2uuJogKIE7CPuXr/StZK0RCac4qQjQWAe0BGpFL4/e4AvvW6KbG5vwMEva0LSiOD45gf8CuXWZvgrMZprDSps8lFZ/Ex4DZPGRros9AB2GMwC9tIZONdSnLc3L7RoaCn5hEpvmlZclYB4+aG5d5rky+uhX6gvoKgQFU22NyRXQJ98Mn3765fDs2X7y5HcGmHq2pamhlpmdhb8DGg3VKSpAXUPPztvjszJmcvGGq6RQZpkqJDtAEWBaVR0KFGsNx9D0pH51UGepJwDmiDc3N8me8TiLPXFPB2AAZdL2K3RIdHoVyk71l7WXzKTGPkmFtR5KgJHE5GLS1dCLtWHLw/mFhuIUAaYmF4XKDT+5Ciy/BRXtg1hSfK02QJNhpymjwDUUQj5lEUzNqabz8PAIQJ8NnwHoN9+8xItFQ+HWWa3Zmq6lmipNWNbR9jxUp6gDOmqoTpGATs1qOF/+mpVUYDXigscS0OuAUjR+rKZkK68oOvrK14oIoPtseT0+PknoVk2ZLD0PtY2fyMmYNNqdkq6x1bsV0ndvM4Y2/E6A1jpa+1D4Cd9227ROkLz7Rw3Vyx1Nsx0V4ILfH5sFUNICc3h4PGpoAAXkArTAXFmFvh3TbdaeBmg3ub/1UTlF7kO3ecB9duZJEWbvOwAq0RqSYyI1ASpCTq61Ikm/E69q1aaqhErRcpLzkZZPh3TgNMWdHnJvgpRmoyfdVBDcml69j3ENrcqTevZsfUOuKaBnymuNB9zR0H/SvNzznBTlIbca6nrmUpjWE0CbUxQ+6cDHbPHd1A46Qc9y29Ltihqq6VWUaujR0cnwFJP7yScPm4ayBjCKrp1dQzNAvjS5CipOEV7ub320OFjY3gbQ72xyMxC4aBe0SzgV8q28ciVOTKGb5XcBMLZOPccqv9Ip50drw9Ry3efWfGZyRjM6pSm9Rp+i6qNraKXtfAG8XcpHuiY60VABxeRubsQpEtDah66sevznGipQsEs9wxoGQEVD+0mRkMmwJzR9y7AAtAbrmwoNUBjJKxM8YXcN/eSTL4anmlxAfhOgcm9ZnA8PFgIoGtqfh6qhAnqhY/JtTlETAkHGMgqqC8ww4qqKEVoTdhNiCdbikkZVrPFqap1wArC2hjZw+abFOV4Lcm9XIKNKLTHprfVZ3VnS+Gj5MhW+/EpZhfbjFaeIvf0Fr6AE0NLQfzyeFM0AtN4ngm0Y0RM3zHbCgTRAHVR9XLfcLpQwK680NEPluG99fZOJsQpji3dgXEM/+eTz4elTANVLAzTXW61CPQ8tKURDGMwyoB7Ov9/OcjW5k3eK+kgz3Mtf8i/nXISBK2FPk9cElyotrg+eqEL0Hi9GTYG8Z40HwFUEtrO7Ha3Ng3ke/QnqhTt/6tZHigWqdCuv+q5068b6lvvF1cOiY07btgDovGtoti0fA6gaCpgzHKI4OWhoea8MP3+Bh6haygx0nUw+bUZAS1gFPuXWznNQNBRgbevTgWPcfJ+2/M3fAOiTl9FaJniEYFtBtW23Ug6kP0a7cf3a8OGHD4b33rs/vP3OneHaLp7l7Iy6ZwjGdUtBeZcAFFYlJAnt0JWv6oNca1QVgBk9TAiUs0Nh+KEO5U22I/0THLWDg4M4Qk66jY2N4datG8Pm1gZ1WCpQHYE1LBDhTTD92Ef/TNisPiyXt3xdESohn7Z4lsuEAdCVC/ah8XIboMMqa6gmFyzqYF5zSqsmBAHJ6yfj4bxF1BdQHSOrWjcxAUWACjFnuT5tWY9QfCD79ddPh//3fz/B9L5khutQQB0NzWSg04i7Og9VD8pdR3ev7Qzv3X8X7Xx7eOutWzx92c1Dbh8onGN2L3j9zbVL4dbaa+iSAOfQX8XbW6OyoWlBVrBqWeqjTU66tHeWwYP1XQdTp4Hat1J7vMH46OvHw6tXvgYzDNfg75137uZVmfUNJjHO4tn5SQHaQFVmgZQG+SRskwoaXtKq0kok23oVaSHbJrTTl8Q0uWuzzWF78wbblo9/P07RsAIwAbRpZ7Yjoc9XgbMAVMAEvNbQxSM0s4WjAC2AFB6ml7XUQ5UA+ujJ8MtfFqDzC+oi2L616WDGmZBchIgQEPD21tZw9627w507t4bbt28Md+5eJ31j2Nr2QfcyoB3UCzxrLyeMW4u1dR21OmOuBwIF1jn1fBDg0wsdHM2obx0KZL3b1CaKacos95XUR48E9AD6K8P1G7vD/fvvwNctwN2mL5ca+Jp7WtSsCIBmEnWzK3QB0MHy1+JiZz2vy6H1vD0bPzpkmwSg6ytbw87mzQ4or1NOAM37uAFLcpq/ZUDjzapBamYzuUlaXf0C1Gh0O1BQO68E9PEeg7U+9PHG7CcUIFZbl1qf1DIB3WDW3+DNv+s4R9eu7wxvv32LPek9NHWb8XWTq4BK62J+AcDBS69bAIXvpCuN1TwqHM6LWQ6O8cINTzGVAvX82YtoYPKoI9gCLNBqxx5Pj5wIq2y3btzYGe69+zZ83Rlu37nJtso9uP4FbQRWHid8RleLvfBINLxU6LfpK8JU0Cc5H44PnMgAOttiwo8aOgVUkGjRAA0wcVb0bl0/vZvAYTGAyrT1RzDVs9I6HaIFoB6NnQxfP3o6/PIXaOjjMrn41dBZmFwHIgCa2mgKjLuOqllb21vDFmvUFluWtwD0+99/H+FdZ0LQPzj1k6bwIiGGolC0DrVGqiHkKedMVLZUpPMAYAT0JCDto4GPHz/NazMLQIsXZVDbKbVPZ3KVSbYNT7djdn0Af520L925tfO8+RxNZYoSl4cY3uJFNuFBXmULbhM3y4KUmZs6ySW/toHHhwWoJndnq2mo7+Wqoa6jZT4VTgGUmc2MzvHdCKhg2Rvd9zW0AzqC2s2op0VNQ2FCwXyNyf3FLxqgOVguQF1zJVxgOADNG8KIRjhUAXOCMM1YN+8A5Ifffy+md22N9W59Ba96fVwny/lh7B6RoeVOjry47QSB7ikmy1vTZVk9BOCoTk2kvqdaL1/sDYdHRzGzAuhdAnbtZ+2WN/hSTk60m7eu4bDdHt5//14m2uYmsuMFvNLMAlWvd9TOBpK0EoXWbwyoa+gKgNYa+sO2huItanaZTaWdAKpwM4sBB0EuNJR0BmHdxSQgi3zNWdNQJsBUQ51VVwHqWxCZMPSVPmnv4JSYmtSdIjXMgqxtzPZr17cQ3FvDrdvXhg0Ep0ne3Npkg70x6JTo+MiJE0IN9KD8+Og4Xqke6tERXuorTOxxrZVqmrQLNDxItiJH1LetJlY+EspcJp4TEMfKPuBtbW0lZlaH7cEH93HcMLu8VbGxDhfIVe2M6QVQNXThVTvW/IXWlWbWKm38Bo7LiXicNZTJrFOkyf33H/9wfniyxzKGhgZQgdSUhmdC1zcFLlCaW9a6kLPcurRL/cxTSgSbxu5ZbdsO6NfXdYpmOB2va6hvQVivr3FpH4EZgxakNbklTN9icK07RCNnaMEuDgggbuG2b28MO5pkbp92xEOlvQ7SCWesappPezx+PMLbFsyXL44DqON1aXVCdbOt4ArkshYx3QreAjlDLmu+hEXctVWQfP319p1rwwcfvDe8fe826/0mmotnnWpoeHOSCtA2JicLk92L2JtBHfu2IuPCqsTksm2ZAPqP5gcnmlz01rXQo7wA1TQ05hZwJhpaWkg5XUerbWdcjgJoaanr4hoermtoti0wdIZmPH3KwcL/f8j69AIvTVMnp7YW2NJSZ34eqTWNV1P7jD49PRkODg/o75xty0bA3Nhc5YkHoGL2Njc3sid0XZNXnSotgwfnapyhGnqIQ7G/jwPEXm5VPwFTbpsccBS6tG+CFsOlS0B1rDbCl76B3qzKcPPWDm9V3MP0urXC+2S/vAmovoQXLcUtPef3C32SimAnb3ilhlqHiRS4icuXGnqSbctlQI8XGlraJpg0yoxVsAgG5svksniFHN/RzKnJdfDc0U5n+vqwwYDryQMuPDPR4z9fFHv8+Bn70OdxjF7tH4c5NTj9BEz74wPQ3UqoPQ7KX6QdoaFu0hWUa6fy19PM+iqv1B3NN/2qaREg66ma7i0vbs4pqr5sIyGH0SRcAflkQTCTrOpQj0KsOfxgzo+PSJ4P60wsvW7X0Tt3r6GhW9zbcZicdH1venR0EK0mI3Ql7/VdwJQndC68vwbon/z890YNnX+bhtJxAB00uTAB++zgGGMHVHa8HLoCRbiYUbcrmlM1EBkG1GN+j+GbC99w9Pfw4ePh+Tf7AMSMRcAOsA4k1C4AxKJLM+shApV8ral1+qJWdYtiTflywEjGb5MVtFCQi4ghVyxDywv9yo9gadPtTnIpz9m2suDWarjeutZ2QDeYYLssAbcwu2rqDcAUYA9B3Mb43paHDYdYGLc72UI5icJLMbkEqjxMNLNrqGPwNc5j/ACP/kaTG0CXNBQK0TwC+okJvGINLbkAKLNy9IzDlMwpZADhVjuBljzyIzzXJWfXMLzgJTF/EvH0yQtM3xFrmetQ9RmtJu5pSPcsBUNgPQD3gEBxe7SWs1KRc9p6BUziLWm/PeokqYswmaZb3ghor0NJBtpISrq1rvlSGut5rQ+25UPA3FLpsBWQgHqzbh/3rW1oZTCVJ8dot7JDLovuAp5djBPqEpjVr0N1DYWOMpsC+u/UUADNtkXHSC2drKHOIE2MZrc7RXJQYy8N1Wvx7YVcAa1msBqtNpdmV56pAnsN03s4fPXVE9bUF+z1DljT8ChZ2zSH6U8gYElA3VY4SCeYYPqGgDycnvlAOWocvosHeWEuUz8AkizuFnA6hrp6aIp4A3WRa4w7gi06oSVteFn16QrxM9ZEtUdHzWXAdVNTe4ttjGZX7dzcYn3GacIVQqvrQXhpfPUWEOkNctVf+izmpZ18irxGk/v3BWgOI+wpgCo4oGMt1YN14EkzKZwgngrpJDm7fK/oJZrqW/T+dlSQfWaqOXEibHhkCE0dmf7MUa3Rg5XWvE+khAUbTJRURgkIiMxxRXYlwHyH3ypKmYD2K7Ik3dpGW3Geqgojciys2zUmeNrg4ANvW/AK0J3sRXdICyRTE63ECcPklhPlgUS1t5POrsD2O0OZlHXW3gzoX/1uNLS2LWond85xnYGNaQFpJrReEjOtbKxfnl06UhYKiDu6IKA4Ota0fbY/mkzA9Cf6KpZHba8wt/7OxU38M56R7vEjpsNXx1mj8vIVk+M0hwGLPWLxBl0EAnvtUmhN+kqnS6gXJwzjFWtV5W+8JlEthWZNMnq+cbo4n/VM2LiWYgNLsU7ovSGYbJ3cPvnEJaByWrS+gacNkAETi6JV8db0dq+6+m+ghvUG6gTMrsFhERm7vz45wnJxODOuoT/+q9+ZHxw1L9c9pQcL7WA+QkNazsDFtqXtQyMX6mYNpd0oCCPCWWBe4EVCMGBmPc0aWCdHaqry18yqmc+fv8Tzfcaa+jzAusdyzfRecQsSTXcNqv0hQ4avMEIf9uPtRZhoDys33716z+pNTIf1TMU0zztQnpWy6AvKRrZFbEHYFnlwsbPD2sjjsp0dj/g8QADYTW401UOGFU6vfL4cI5unLoLq0R8HGfH2fBCCbDsvhNbOH4PMp/HXwexhraGYemQ3P2dy9YOFH//lb89fdUBzuKBmQoX7ag3VGalBx3ni9MM1tNpEIgHTOmqn747W4bsayswWoMxwQWVbw4GDmnDEZl+z+803z/F+n/My9vNhf+8wYOtNZuCxEmUdugzKYrZRK4lcFRY+fDdNjRlLHUQlW2qg/HG5D10FBJ+QqDVqoLwfs0e13QZbow3A8tBiQ0A5ULh2bReTejvAanpXAbBMMASRX4BsmunTljwXZTDmR77yAnvy2S9b1V/xaH4HsYeWe8vfKadcA0+sVmdYBM9y/7gDiunMocJ49EdHOmBqaBckmuZJ0ciC3rCAaqbpwQmgZtpGrdT0ZiImrzRMQKt8FkC3t3zC7zu7HsVxYMATDk3u3otXrK8vh2c4TPtor8dzXfiunx4gKPT+r4ZkhPTqleXA5QJJaSq9FEZOfThkcD/q1sdz3CNNFsLZ2l4FmI1hd1cHhtMmTKlHifal4zOaXNdu+nWCbQPu9Rs3o7GCJBh1AiRNT4HUxNLIOYIwr9b8klfnWXx6PNHQaTGZ4+pgJjSrmVwPRQrQdpb7o5/9Nib3ZR39Zf0EJEzuVEPL1Gka9Oj0dhWSdWSsti2mlwGlDmtov1Pm5AA826sdaurW5hZrKq9AKvB4s7riHBwcnLCt2cvbDTpOrrPuX62jgD3i08wJUg0ZsrkqJQDFj5kKWkAB07VYQdNOevv7vAJK2e61jXijeqX+Ww67uzvcu+Rvo52e20ml38T4s381Vo0ObeiesR/r8QK0gNSK2Wh04npawqG8CBuGyyBaywL/uEUgGqoFaSZ3x7PcH/3FP2wmd6KhedJCI/CIM0MkWiVAAdUCAIzpYIYkNG19gbdeAZr3eJvWdlDV4zBFXd/DEWTbdXNsW09wYobRVL3gPW4PIzzCs60mr9ZV+lEl7W8imKQigNKaEVAmhNriIywdspcv68TpOvtGDwLu8Bzz1q3rmFOBvU4er5Rw2O8E8Ew4T22gYRzKkZG0M0mckE4aJwzlrpNqZfE1BdMc870YjJQMEjckVhnLIXV6vlUF1OO/KwBtGhqHqK+HpXG1dhWg9T5R01AlBlM5nA9z1jdPQI1wu2Vpe1ELyxwbAmhqUKpTAJjWd6Z7iJ9DBdKC6kNk96ceFwpA9zrjpKVt6wsKiysjz+AjAE0dAqpbjbZ3LIFnwph4j+x8JXTXveN1X2vZIc1xHeF1QNX05vEaJzs+GMhPHIlrugXByRHABVOwBZQy8y3PpV8yuWJ+Set7hJ8UV52eDr+2Ce+JZAzGdIr+ToDWoUIXejO5ECvwJoCODBdgBaZACaoabWi7DjYmCwB9sco811DNcDQcjV1t67YmXrl5YiQd3yLUVKvVDl8B6lRNL3vogqx4lZaFKCH25WLeHjpzIEel0pqSrUuC+0reWmTi1GspvNXQAD0HUIWg2dXTLg0uMOvQvU+cVGtfxYffNansqfEuaD1urIFomPotTH3knzw1lH+34pKG6uV2DcV8tj2otl4BOJh6AlLgTNfQ6Jlbnaah6YU2zp6uqVMNZVQBzHri71qo8+E4jtrBgYu9feoB5ylNe2PQfPevm5s70WI11CsnSJcATYFfEUoJxInSHRvIA4JbBveBCt5/rYxTKveHTCzPZr2VoY6Xl+thPSRXMzWpTDD5RHv1vkpDyxSXdla/gp5JnDCkCrYAZJ2q14GrtOt9gWqL5TIzGqBYME3uwBo6erk/+ovfme8H0PJW86YCg10AioDVrpjFDmqf987o6RpqfhtAzG0BqGaZH5AZWMXdKrBNwGvU4zziLDSzHmYLaJ0lhIWmOl+QYXjwxW3z+7oLsSYSY50vYshJwfv8VfqutzkMyJYJjiDro78VXwFFS32cpUPT18mskTGZ0i2hqkElXGNcggSYxjugAVNzazkXNcZ6I3s0CAXCbPdMTzWQ0hFQidtD/pIwY2Fy0dDFtgWn6I9/9kMAfTFczBj49MlJNBUI4i0KaAeih5K1F1knVKP9tHqCWINppjajWZTbulsA15P693ZETa3wtf4yrWbYhRrhzHQvK5h19z5Cza+lS8dEQBWy9QU0e0zHFC3VjAModwGBE4NmuPZla0NJBB05Okb/8pW42bkBI166QNK2ntt2VtqY6XN6iV9NBSlwTQA1ar9j3ykzXVVDyTqISz8jvw+90Nrx25Y/4d9Y2D96PpxeHMGIx3jUFBz5Dqgy1Ah1UHs62a0X4mkTTa5BOPhoJwVpktDYgkAmAJwGsIin2tZ+teq28aRdJop0Gi2CBT2j04uGaqftq75jkhcaZYzy7oSs9a4LkFYFVL5LuHwX5ca6qdz2wR0KLW5/oWGFMGh/1Xz8toxalZ1ECKZnk6FVYStIP9VpI8cE9/DmnBcEjtlPb67vDrMf/+wP5nuHzwKo3p6mSK3MOhNw5al1KA8TxhJ9LV3aHLG1wQQ0m/a0dLgWVBlYT1CnSE4Ip3LPNfTuFsHCq6+RQqf9WjUnroXLFZKi8TQ3YJsDfx0sy82vNN9pYMp82xsrPSRSbBum3lJJy0uj3rhCq4dYo1+EoSqD3JwS6RgdckwaQP/oP//+/OXBU6Dkh6ucO25s+FAa0+RbALbBhISxceCNm86VDLarZn6gzMArLeN8oFVpIpMrAilJJDelAX5aaRJ3IFydimGfMCmYfNUk6fxOCl6LTutAsRHvuRk/iZKDoXKRSHIi8JJzKoV66lhOQaqa25keM1K1TeaWmYZ8aThs2dPSMekXVxzPHK2Whp4c+yI6vz77t3/+e/MXr57SnoNwfBDfyxFUzzTV0r45diaHtRBMLyFcPbZoGBY8I9MwqQwooLbqBjXgYnKS/WujBRYk6avLadpoKe83Id8aTptktE2QKoVXJQusmpSVn7IGoflZT81cYog0RMcs6iVOXuia5k7cisVAwgBqGh8layg/ejvnAbe/b7m2y1nuv/np785f7AMoTpEPPzqg6wDqctjPIGsahXJxU71ImVh6iBaaXgZ0mk7pOJBqVd+W/KZXh/KyQktnIaxvpzrWa9XCDZlTrkqwi3H2sgiXdgE07ZskqGCdym/AXNlRddp/WV6N0tDGVdiBNV1ECWRQEHlSdaz/UduWG9fvoKE//eH8OYCe+483NZObJw4+/snA3JZIyUMEwqhGKCe/g2mdbvpKa2icv2mo1spnvoz82usqsKaNAuolcpeS0+rLcYeznJOR9qyujWb2cTpyr4QKuwoTdgyqnBIqqaGtttmvXxSHhxCk2PppYth6bXmjdqYuDybQzuNDlkR+7Luxtj3cvvXWMPujP//DaOjpOQ+UdYrQytqj0ZGuPQBGqD5ZaWD2cAGufNILFbsJnIJradKTcvNeuzKyrneUkr4s8OU2fYIs5/4mqSVhtoYjkBNCwYV0lRVYjrlk3dIKGoKRd8Aok1sZE2LTqGKzWesgQYsHUImFVoXVoZ3oDA0ci/JwxJ8Sbl4b7t65x785/5f/ev7NM35BdbjHsz+2Luixb//VSYqnOZ6wyIHAslJDqwA1nt4srCtlJWRhkVEqL8IGaGW0NpOg159k1USYZkziqT9JXxn9tkqRfIZUTVta/np0SnMx2iotuTdQGwjjZKAKJcg/kSJzBS8RIaU9LMCqrUxU+6KTLkJPBv29LW9yHPMYcpW3Cq/dGd5+671h9l/+23+af/nVF8PXj/0nw59zYtP2o2xf/L2Ir1ZwyMIFdXoNmB3IHlrGBV4BwJCYXyMglSXYDeCUXvoKgWmeBCUyzZvEq9uFMFpRy15qNwq61VkIcFGtdzO2v0xPgCbdK3zTS3ljuSCMiUWkDWmRQazVm/JkZtZgjwDdS/ejQOoWsD6h4nh0xgOE3TvDO4D57rsPhtl//5//df7Fw8+GLx5+Pjx56m8d9zjHdD1VOz21aRqaZ58AymFDcUA4Aip7lPGdV0JMcgW6SKlElfLXQKu69U2NVOp5le7m29w29qqQ2Vq5XRhT4MKR9Lim+aZ7fQm6UxzTFk6uy+0KJLmo/ahVl3iatL0cbazQtGJjeiSw4KNAuwxmqwhTPDrgOS3PbHfuDndv3x/ee/cfDPcF9H//n/8x/9VXD4fPH37KL6sfDc9fPOfB7yG8uP/0mZ5HY3Wa4qiXNHRpKNVZ8TqyGnzqy+GpoQaLcnOXrhRV+VV1x7H3Roz8MhiC0OuN8ctdUsGs3tbwcpWxix6BagHa6ZMey75bJH1Mxt/7761TTicd0ERaJ+E3bXVueFV05+bw9l3+y5N3Hgzv3/+A36XeH2affvW/5k+efD386qsvh6+fPOJf93rGqQP/fh5rqU8fTk75KR3vxQjwCOg4jNeHM+F1HHwffpimwpsEVwWUjhVafEJ0uUdSZghqk0jKSSS7hRYmf1Ir9ck0HMFs6UbqtSA0FDYliSck1hOvtVjOSJ+TsSRtFdqP8d5ERBtdy+qfztNaehLnlnKdZ7d3hvv3PhzevfeAf/vwe/Fy/xZDr5QRl0dhHQAAAABJRU5ErkJggg==;" vertex="1" parent="1">
          <mxGeometry x="390" y="210" width="50" height="50" as="geometry" />
        </mxCell>
        <mxCell id="w3IxwE_P7BT00dSeWX34-33" value="Celery" style="shape=image;verticalLabelPosition=bottom;labelBackgroundColor=default;verticalAlign=top;aspect=fixed;imageAspect=0;image=data:image/png,iVBORw0KGgoAAAANSUhEUgAAAHQAAAB0CAYAAABUmhYnAAAMQGlDQ1BJQ0MgUHJvZmlsZQAASImVVwdYU8kWnltSIQQIICAl9CaI1ABSQmgBpBdBVEISIJQYA0HFji4quHaxgA1dFVHsgFhQxM6i2PtiQUVZFwt25U0K6LqvfG++b+78958z/zlz7sy9dwCgH+dJJHmoJgD54kJpXGggc3RKKpP0FJCBKaADAzCMxy+QsGNiIgEsA+3fy7vrAJG3VxzlWv/s/69FSyAs4AOAxECcISjg50N8AAC8ii+RFgJAlPMWkwolcgwr0JHCACGeL8dZSlwlxxlKvEdhkxDHgbgVALI6jyfNAkDjEuSZRfwsqKHRC7GzWCASA0BnQuyXnz9BAHE6xLbQRgKxXJ+V8YNO1t80MwY1ebysQayci6KQg0QFkjzelP8zHf+75OfJBnxYw6qeLQ2Lk88Z5u1m7oQIOVaHuEecERUNsTbEH0QChT3EKDVbFpaotEeN+AUcmDOgB7GzgBcUAbERxCHivKhIFZ+RKQrhQgxXCDpZVMhNgFgf4vnCguB4lc1G6YQ4lS+0PlPKYav4szypwq/c131ZbiJbpf86W8hV6WMaxdkJyRBTIbYsEiVFQawBsVNBbnyEymZkcTYnasBGKouTx28JcZxQHBqo1MeKMqUhcSr7svyCgfliG7NF3CgV3leYnRCmzA/Wyucp4odzwS4JxezEAR1hwejIgbkIhEHByrljz4TixHiVzgdJYWCccixOleTFqOxxc2FeqJw3h9itoCheNRZPKoQLUqmPZ0oKYxKUceLFObzwGGU8+BIQCTggCDCBDNYMMAHkAFF7T0MPvFP2hAAekIIsIASOKmZgRLKiRwyv8aAY/AmREBQMjgtU9ApBEeS/DrLKqyPIVPQWKUbkgicQ54MIkAfvZYpR4kFvSeAxZET/8M6DlQ/jzYNV3v/v+QH2O8OGTKSKkQ14ZNIHLInBxCBiGDGEaIcb4n64Dx4JrwGwuuAs3GtgHt/tCU8IHYSHhGuETsKt8aIS6U9RjgKdUD9ElYuMH3OBW0NNdzwQ94XqUBnXww2BI+4G/bBxf+jZHbIcVdzyrDB/0v7bDH54Gio7ijMFpQyhBFBsfx6pYa/hPqgiz/WP+VHGmjGYb85gz8/+OT9kXwDbiJ8tsfnYfuwMdgI7hx3BGgATa8YasTbsqBwPrq7HitU14C1OEU8u1BH9w9/Ak5VnssC51rnb+Yuyr1A4Wf6OBpwJkilSUVZ2IZMNvwhCJlfMdxrGdHF2cQVA/n1Rvr7exCq+G4he23duzh8A+Db39/cf/s6FNwOw1xNu/0PfOVsW/HSoAXD2EF8mLVJyuPxCgG8JOtxpBsAEWABbOB8X4AF8QAAIBuEgGiSAFDAORp8N17kUTALTwGxQCsrBErASrAUbwGawHewC+0ADOAJOgNPgArgEroE7cPV0gRegF7wDnxEEISE0hIEYIKaIFeKAuCAsxA8JRiKROCQFSUeyEDEiQ6Yhc5ByZBmyFtmE1CB7kUPICeQc0oHcQh4g3chr5BOKoeqoDmqMWqPDURbKRiPQBHQsmoVORIvRuegidDVaje5E69ET6AX0GtqJvkD7MICpYXqYGeaIsTAOFo2lYpmYFJuBlWEVWDVWhzXB53wF68R6sI84EWfgTNwRruAwPBHn4xPxGfhCfC2+Ha/HW/Er+AO8F/9GoBGMCA4EbwKXMJqQRZhEKCVUELYSDhJOwb3URXhHJBL1iDZET7gXU4g5xKnEhcR1xN3E48QO4iNiH4lEMiA5kHxJ0SQeqZBUSlpD2klqJl0mdZE+kNXIpmQXcgg5lSwml5AryDvIx8iXyU/JnymaFCuKNyWaIqBMoSymbKE0US5SuiifqVpUG6ovNYGaQ51NXU2to56i3qW+UVNTM1fzUotVE6nNUluttkftrNoDtY/q2ur26hz1NHWZ+iL1berH1W+pv6HRaNa0AFoqrZC2iFZDO0m7T/ugwdBw0uBqCDRmalRq1Gtc1nhJp9Ct6Gz6OHoxvYK+n36R3qNJ0bTW5GjyNGdoVmoe0ryh2afF0BqhFa2Vr7VQa4fWOa1n2iRta+1gbYH2XO3N2ie1HzEwhgWDw+Az5jC2ME4xunSIOjY6XJ0cnXKdXTrtOr262rpuukm6k3UrdY/qduphetZ6XL08vcV6+/Su630aYjyEPUQ4ZMGQuiGXh7zXH6ofoC/UL9PfrX9N/5MB0yDYINdgqUGDwT1D3NDeMNZwkuF6w1OGPUN1hvoM5Q8tG7pv6G0j1MjeKM5oqtFmozajPmMT41BjifEa45PGPSZ6JgEmOSYrTI6ZdJsyTP1MRaYrTJtNnzN1mWxmHnM1s5XZa2ZkFmYmM9tk1m722dzGPNG8xHy3+T0LqgXLItNihUWLRa+lqeUoy2mWtZa3rShWLKtsq1VWZ6zeW9tYJ1vPs26wfmajb8O1KbaptblrS7P1t51oW2171Y5ox7LLtVtnd8ketXe3z7avtL/ogDp4OIgc1jl0DCMM8xomHlY97IajuiPbscix1vGBk55TpFOJU4PTy+GWw1OHLx1+Zvg3Z3fnPOctzndGaI8IH1EyomnEaxd7F75LpctVV5priOtM10bXV24ObkK39W433Rnuo9znube4f/Xw9JB61Hl0e1p6pntWed5g6bBiWAtZZ70IXoFeM72OeH309vAu9N7n/ZePo0+uzw6fZyNtRgpHbhn5yNfcl+e7ybfTj+mX7rfRr9PfzJ/nX+3/MMAiQBCwNeAp246dw97JfhnoHCgNPBj4nuPNmc45HoQFhQaVBbUHawcnBq8Nvh9iHpIVUhvSG+oeOjX0eBghLCJsadgNrjGXz63h9oZ7hk8Pb41Qj4iPWBvxMNI+UhrZNAodFT5q+ai7UVZR4qiGaBDNjV4efS/GJmZizOFYYmxMbGXsk7gRcdPizsQz4sfH74h/lxCYsDjhTqJtoiyxJYmelJZUk/Q+OSh5WXLn6OGjp4++kGKYIkppTCWlJqVuTe0bEzxm5ZiuNPe00rTrY23GTh57bpzhuLxxR8fTx/PG708npCen70j/wovmVfP6MrgZVRm9fA5/Ff+FIECwQtAt9BUuEz7N9M1clvksyzdreVZ3tn92RXaPiCNaK3qVE5azIed9bnTuttz+vOS83fnk/PT8Q2Jtca64dYLJhMkTOiQOklJJ50TviSsn9kojpFsLkIKxBY2FOvBHvk1mK/tF9qDIr6iy6MOkpEn7J2tNFk9um2I/ZcGUp8Uhxb9Nxafyp7ZMM5s2e9qD6ezpm2YgMzJmtMy0mDl3Ztes0FnbZ1Nn587+vcS5ZFnJ2znJc5rmGs+dNffRL6G/1JZqlEpLb8zzmbdhPj5fNL99geuCNQu+lQnKzpc7l1eUf1nIX3j+1xG/rv61f1HmovbFHovXLyEuES+5vtR/6fZlWsuKlz1aPmp5/QrmirIVb1eOX3muwq1iwyrqKtmqztWRqxvXWK5ZsubL2uy11yoDK3dXGVUtqHq/TrDu8vqA9XUbjDeUb/i0UbTx5qbQTfXV1tUVm4mbizY/2ZK05cxvrN9qthpuLd/6dZt4W+f2uO2tNZ41NTuMdiyuRWtltd0703Ze2hW0q7HOsW7Tbr3d5XvAHtme53vT917fF7GvZT9rf90BqwNVBxkHy+qR+in1vQ3ZDZ2NKY0dh8IPtTT5NB087HR42xGzI5VHdY8uPkY9NvdYf3Nxc99xyfGeE1knHrWMb7lzcvTJq62xre2nIk6dPR1y+uQZ9pnms75nj5zzPnfoPOt8wwWPC/Vt7m0Hf3f//WC7R3v9Rc+LjZe8LjV1jOw4dtn/8okrQVdOX+VevXAt6lrH9cTrN2+k3ei8Kbj57FberVe3i25/vjPrLuFu2T3NexX3je5X/2H3x+5Oj86jD4IetD2Mf3jnEf/Ri8cFj790zX1Ce1Lx1PRpzTOXZ0e6Q7ovPR/zvOuF5MXnntI/tf6semn78sBfAX+19Y7u7XolfdX/euEbgzfb3rq9bemL6bv/Lv/d5/dlHww+bP/I+njmU/Knp58nfSF9Wf3V7mvTt4hvd/vz+/slPClP8SuAwYpmZgLwehsAtBQAGPB8Rh2jPP8pCqI8syoQ+E9YeUZUFA8A6uD/e2wP/Lu5AcCeLfD4BfXpaQDE0ABI8AKoq+tgHTirKc6V8kKE54CN8V8z8jPAvynKM+cPcf/cArmqG/i5/Rf24XyI1LzWjgAAAIplWElmTU0AKgAAAAgABAEaAAUAAAABAAAAPgEbAAUAAAABAAAARgEoAAMAAAABAAIAAIdpAAQAAAABAAAATgAAAAAAAACQAAAAAQAAAJAAAAABAAOShgAHAAAAEgAAAHigAgAEAAAAAQAAAHSgAwAEAAAAAQAAAHQAAAAAQVNDSUkAAABTY3JlZW5zaG90Z2Ni1wAAAAlwSFlzAAAWJQAAFiUBSVIk8AAAAdZpVFh0WE1MOmNvbS5hZG9iZS54bXAAAAAAADx4OnhtcG1ldGEgeG1sbnM6eD0iYWRvYmU6bnM6bWV0YS8iIHg6eG1wdGs9IlhNUCBDb3JlIDYuMC4wIj4KICAgPHJkZjpSREYgeG1sbnM6cmRmPSJodHRwOi8vd3d3LnczLm9yZy8xOTk5LzAyLzIyLXJkZi1zeW50YXgtbnMjIj4KICAgICAgPHJkZjpEZXNjcmlwdGlvbiByZGY6YWJvdXQ9IiIKICAgICAgICAgICAgeG1sbnM6ZXhpZj0iaHR0cDovL25zLmFkb2JlLmNvbS9leGlmLzEuMC8iPgogICAgICAgICA8ZXhpZjpQaXhlbFlEaW1lbnNpb24+MTE2PC9leGlmOlBpeGVsWURpbWVuc2lvbj4KICAgICAgICAgPGV4aWY6UGl4ZWxYRGltZW5zaW9uPjExNjwvZXhpZjpQaXhlbFhEaW1lbnNpb24+CiAgICAgICAgIDxleGlmOlVzZXJDb21tZW50PlNjcmVlbnNob3Q8L2V4aWY6VXNlckNvbW1lbnQ+CiAgICAgIDwvcmRmOkRlc2NyaXB0aW9uPgogICA8L3JkZjpSREY+CjwveDp4bXBtZXRhPgojSN9YAAAAHGlET1QAAAACAAAAAAAAADoAAAAoAAAAOgAAADoAACjTItoEZAAAKJ9JREFUeAHMnfmvZdl1189983v1hq7urp6qu6rdg38J4W+CCAkJIYSEhBCISeDECOQoURS3MYoihgSbRBF4iB0SQQIhxvCDo0gZum23u6unGrq66lW9evO7fD7ftfe591W120CCxLnv3D2tvfbe67vX2mvvc27V5P7htemDg/vD3Xt3h/39veH45GiYTk+HpcXJsLSyOKysLA+LSwvDMJxxT9tNMMam0Jua5J4kNE1OsmY5EzOS2cpHork09TtJ8YV/ivmuSA/I/bg8s1udRl/c/+y+HVauMdIzDCf0SpnYt953smswIZzv1sexmDQC5bWwuJCqJ6cnw+nJCficDCfHp8Snw+JkZVhb3RzW17aGDe7V1fVh8uHe69P7D+4OH935cLh//95wdHRAd06H5WXAXF0eVtdWhqUASiu9JQXZrjFmhA70T4qDn1/+CVTdlpn2L/GO4JjfCmwnf62VSkJV6Xw3QVXwUH4l08b/i6+PZy+Y4nfG3QCdCx/pRxt7RvwQwwXltSCgICKYx8fDEffJkaBOhwUAXV3ZHDbWd4atzYuAujlMfnD929P7e3fQ0NvDAzT06PgwAltGO5dXlgB1aVhklgyT0tA52be+deELER8J5oiShjKzzfKFohNMY4+GyX1k3GaM41VAvdm5glEfKM81VqjkJ333uj+89c5yxnQWm3GensmJD4UdVEujsS1/Rt1ivb8PFXT5yPP0VK0sUE9PzogjuinKtriBhm4P2wB6YWN7mHznjW9O9/bvAObucHC0P6jaEzRxBTAFdQlNnYhntNMhcDdh1uALFDPNnkhcKDUy8kNiiAlpgBet39aZD0Nc+f27iucQtVIle5GkJeD6Ho1JePzorxK4bGftP1IL1h34cxOqEUYjnWx2wZDPWQPYzqVu8nsFw0ZfBE1m5qYodQT0DEC9Twwxt2enCoDlcLI+rCyXll5Y3xom//l//tJ0/+gethkwz44Z0Rl2ewLRYtbOhSVBaNxt5iFJFRhdrIqjC0QAIefL0pQYb7ccU6uVS8xf5SZs5dZsaUt77ph5rmxGkexIpfJ+1HcXYHXqE6gh7GA+yl5wNLXUFzjusxbKMZPG+oFrBmSnH1uVptULjzN4cp+1GxeHOIqGhi4M6wF1cbLGGroxTL7y269Nj0726CRgLhSYS8sLw/LSYoCdLKR3dmfubk0jtQhOiVtsSmASrbADalnWBMtDUPQVb3mpOxYWu8arqGVvOY5HI6u0pXXN2iOdPvWSuXCuieSGrsT8cNFcrTE6z7bi7TtBAToDZA4cOQiUHfMvSBrt6QxZIgAUNEwrFtMw9aQP0KyrAXQ1gE7PVobTY5zYxZVh8qVvfm56Ot0fFpenmFeAbGZ2ES3Veurxzjzc9IhWYWwnxquEbLIL3K4lNyAV4SOARnrSEfGvgZVgjnfLDl2VUaPVHYHtPELVWx+ZnI+k7nz/EWATbhGG4Hydj0kJRLgoZMvDg7jy9xPhV3Y0NyRQ5q/CVBu/JDDBRd3Ts1Oc1OOYWvPbkAkFZolwFe3cAMyF4cHe8TDFDE++/BsAOuwD5sA2ZYJ3ixOEV7uwGK7wOYX3WWNma51ztTwOvUk94FiV9PiByGJpA1qh0UAxn08IjM2uArjXqfopDe8wq8xU6q01+hmb8zG6HfH3SZlhKHzJptWP8zVmqRpy0j2KPlItHCOacA+QxZPlj2LjdVs5k6flF3MsTmfYQwp0hPRsz06b/MlTJvFTAugy0K4Ox0eT4cH9w3KUvvq7n58enz4YhsVTQMQVZsHEU6YmnDNomVU8OAQY0/mTkAbS0gyMCHxhbLw6gbAgq3pVOfAlKo+kileRJc8qZlrXsUYYZukt2/Dog0kR9vVdyeRF5vVFugtXKFqfZNwayFirVvsuRpLMpN76Eg5zxBDJs4NnqFMUx6gYQFAtdBrI/Ut+51TgwqfXdVacu+jTVC1dhPcC25hhODpE8U6R+Te//S+mh6d7DKjW0HQ/YPZtioPmHgVHXCLuolWwxntGxZ1FuZ0gAhLiWa8KZNOpmYlUsSbkznOkcOD1SZ0G6MSlIfwfaoB6EajS4S6h2Z4X6TgvVWb6XNtFXaSOyxpzDIz2dLIhqXRIicu/HCK1S0AlaCMjziIWGhnlbxbKInlVMHVNgTbZFSQuoGa7fTkBupNjF10cpT89oIiXNqMtbfAKp4QMqKj7eUDbhGgitLK0oamuNi4flxBKLunhG94J04HwabUkwmSdMdBj1iKsTOtj+oXEFHiE7II3SlXW81KbcSuZVlm+rW69qt1i4dT4/hkC2vpXrbUGGZ9d98TI+/iIBBo7+QYaenR6n5G4U62Ba2rpTgYX7SStQMwvwRj3jyaaoMihLERkNUCjnU1TLcpV3SrBVp3Qq3GdpIUFtKZBGRUIBQQZtCWgi4t444TVsZBamNs16PDwEA1xLDUJPCRx8hSNPN0DdFH1ySafnme82q9YL+lwVjr9agSWmC5zO6+hEtA2rMftDPG01MOUW7+Y9YnU060JKjVAM2mnTUOR9Te+/cVsWwpQBhf5yc3BFajzQCqLUR6hqSZGMCnMx7ABuqC9VobjBe/+Cb8mZBm3gUi6iGe2vLwcSjfUJ/2kxM01INjmEuULenDhP9/IJJvwDqjAey8tLeHeOwmYzTaHJxmnr7U709C5jtCpUaCZ7HZzrpxonKOMz5KiH/eNTKheP1659GT0yRlOph1EY1v0xSettfyZCCfIAD4CioaeqKGsp5Nv/Pd/Pj1kH9o1dOj7TrWxayntOHjbUxkMu3amB0kXRBIKoMKOVhCPRlj/3NXLm7kVdBnnqnCRxpYWl+McHB4eDQeHBzxA2Cc8wsSUKe30EUarXXw0ubr9PGwgXxCdHN4BFWBXiK+trsSzt7wmpdTtzriKaYRPOnIV1I5Qa1M4UmbYwDoH6FgeeDImWaRWwtas/Fq62pCfeZ2/BF5dQ0s7A6gm99e/9QUAnZncyJQOO+ecrQLp4UJC4+2WLqCGOfQWkKMjVGtmB6qA49vidFbafAgFX886rrgEmcJhWgNjIEeHx8ODB/vDvXv3h917uzxE2APYA/IOhr29B7j2LBfUtdezi+lI3dOT03RNTRbAlZWVPEFaZp+2s709PPvsM8PFxx4b1tfXANq9WqTXQrjSt1wRKEJNUuFCR16/UqulU0q8AMWadAes9dDy8nyrfp8cc+zGSVHt2NSsreqP4+trKFp6BCWO0uTrv/fa9PAYQBdqDY3Qm3bG1GotO7AM5jygsp41VFpZ2jkDtTQveLfRlyZA5yc8nQQKUzPCYDUjuG9HaOKDvX2Ae5BwF0Dv3L0bQAV47/7+sLu7xzqJm2ftMGshaU2SWmojK+yvV9DGtdVVjsgAdXkFIHeGy889Nzz+BE8qBBSa4DWO1zW61mnB9lx7Ec32kVaNlUYYfgdQoXdTqhkXSEE13qgIW4xx9nrJmwNMPuNdhY8CGll1QPsaioZ+/fc+Pz04+hhAMyg6EoGXQYu8ArCtKKdm6CIFSY00k9u0LrAVaikNw6ocYWQtZOHWDOqiu5E+2D8c9h7sDXc+ujPcuH5z2L17D9AAF628d28voWAfHByjoUesIeyhaSOa7rqdtjW5U+qxRtLeCidgazwKFLi1NUBdWeXpxPqwvb0V7fRx4aLHna2+lsO0By3r6+vD1tZm7gtbF6i/xtEowLIkyFvA9KjPWI9PA2LTSlWoKNqwhbDoHwWzQKRYijYxjM7yZ1paAp+e1Rh9lFbbFqT9tf/289NDAJ3q5XKW2x2gCjW1dGGcsUQDMA0Z0nAgNLNdpXVtBjNgP5nNlkMX0Ed6U7WfchILmoDt7u4Od+7cGW7duj1c/+DGcJ88gde07h8c5jjM+NGRJykK0rV9ghM1A1XOARQatUbAVnmCFDCjoa6nnIrRR+u5hNvPPhlcAtRKnwlvbl4YHr/42PAY9w5afeHCRky3k3BBB6uPBz7KykuQ8yjNgSkny7h0noCryqOVHTDqWRWyUTs7mIapPf+lNVNDvc9m25av/e7PRUM94hsWar1Jp/q62cMGqg3af7sXsGkppi5tKcYq7I6RpjQDplLKUp7a0co1nrI7u3fv3h8+/PCj4fr168ONG7eIf4iG7gLu/QC5tIg5hId7SukFVJDtSYBoa3G2MLaBCE4pj+ZApjw1lcvw6WZUgR8fHyGQkwh4Zi7LXEu3yvPgzc314eLFHQDdCaAbGxtMBtZjJsY62rrKHVOO5q+tc77KRPDS3LqGC24ApQ9CE7AFPHdyRLGEKnTEe1/kE808B6rjI39eQ7MPRXm++l9/dnpwqFNEw25T9HKdZX3tPBdWm5mQAgzTYi37EmwPRyEj6JwYpZKlMGy1FhbYQuCcaGJv3Phw+ABtfO/d94YbNz8c7t5hrWT91CHy0plRIxRMASEIPFAgz+2N+X0S2Xaf5WKeeGvVbljux3X6EI338MF1O5MFECpe4/Mhxfr6yrC1fSGaqnYuA6QT1bV4ExO8tblJWCZ5CxMuwNF02ggYtFmaT1/6h/3vI4A6UOTa+97D1GIc56+moSwrp5jcHCx4UvTV//Iz0/3De7TYAAXUyPthIEdNVSB125DYW0Eh9TACU2PaPQ+oNOUqul6e4PAcool3hw/ev4l23hxuop06Pz5lcG10lqt1KzgzrlsCF/NLuZfvPHXtrXbtXIrOfakASIoeqxklHSeGTpO3+9HS/grPFFQr08Joen2kOEFr6RJ9O4uWbm9voLWbw2N4yhcvXkSLeXMAE929aT3rOFOMIZMxAmug0ZfeJ2VZf/OAloFOfuvzbFAdUEzuPKBf+Z2fzgNuNTSvmdhgtJSksulAEmq27FRMLZyVW8nOvNK8LlTT0Rg0smtOGEaWVfP+vQdo5c3h/fdvAOiNrJl37/BeE0BnX2iDXB4ICGg0lE4JsvtL+7fqS2zjHpL+mMlVQU20llUzv6QTGieG5lZ+ClYz17cYgu5BxuHBUSaQ5tdLE37ES1o6ZGrdxoVVnKUNnCs0FO3c2tpGk3lxC0dK7d3Z2WbNXaefK2WKoyhy6qCqqQrFiTaXTyIa2kFvZVJ0ydttnfgCFAI19Cu/87lo6BQNHQGNvF3IuYkzuQhNl6DMy91ZJwGzBnHXUNMBFlA9pqvy3qEFAPxoeP1Pvje89YN3AuwdwHQLIkCbCEntc5DRUAUSoQooBwaYSYWSNyuasAvK1ikD+qV2lYWodI3BPEwuFuAQz9mwaJpTlEmrU0W5gALi7O27ekZ5QP6J+dDGecLBctvjtsb19MLmxvDkk48Ply8/Nzx56Yl40zpkPkywjqLS5J6dMaE8fiw0FY5Ql0PVrYng8vFvdmkpkAVVc1J0CIWP1P79b/8z1tBucqmhhgpeNBVhjkA+BCicg2OEVutkELc6UhM8ui5VfdRYQPXITXOmQNTMP/zD14e333oXJ4j3mjgocNa5Nu3sbMXMRXvgEI/SmcXl6xgnpwBK35Z4RUYvtUY7G7Exc20zwDaQqg8CuhCHxfVb8xkrkv5RBq10tn3MG3aG0kdrAdmlQo/ciSAO5qvt0XBoBXZjY3V45ulLw6uffnm4/Pxz2fOubaylUw5D71it1CkT1Lqq/9FMQdRpGkF1hH18zgb6E6eoP22xIwD6a//ps2xbHrCslYZ2IPtBfdfSaGgD18ZHMNvgJ/FmZwDSZRqw4fxl4B7jra6uZdZfv35ruHbtveH7b76FQ3R72AfMYwSkYAX0woUL0VQdFgcYrQ9EsgV1Bmqf6hkujdg3ciMMh26W/UxfBbDuOCcCx0eHSZffWZ7a6WvxkV4egmnoJW/XWTUz3it5Aq8ZPtznOLKbb2Si1j777KXhx//8jw1Xr77AGrvN2yDLmYjKzjXZPh8e7sfs24O0kb7XBBFQ823XTrRukFcj80Wx2oNqdunLhHPvX/2tn5oeHfNOEXtQD+NH7aQx486mgKzAche/sGxg1qx3e6JmlnZ6DGUP7ETrD5rEac3KWrYib37vrQD6vgcHbE3UEol1+XPGGk+Rh7fNA4XN7Eo/7Ku35tK+Eh+vNngQ0/HxmgFK/+y3/aS/tEi7gKeQDO0sqeqz9QvQ5PKlzqRMviDjmAVUTXcZ8LURlwa3L5cvPzP8uR//seF5NHRzax1ZTobDo0M4nDFpAZTYEenTaCj8/IO5d00k4l1DobZ8dtnugAXxUIF+ndgX3in61d/6SY7+eGOhHSw4exyeYDrGaGgDted3YCMkZztm1HVPVx494KN5mgEaTVV4CAz5DDfZlvzxH70+vPfe9eHe/QdZNzVZ8pOP3qxeYs1+PdBzI2FMilVzxz24fTHsE85O2weao57m0VDe8guY9MW11W3TIlbDiRYLYzn5Xgq0P91xiZCnd5VXnCah0xsuWk2wW6ENnKBnnn1qeOGFy8NLL13NWurBhmvlgRoJTa2jwJW9qJOxgHwYUAaXsdVES9f4on3kK6BdQ9VW9gLD5Fd+8zMAytOW5hQVWCXATGC1Ic6RQpFVCU6eSQsoICiU7Aed+QHURgEwsvCpyUoGf4h3+M477w2///t/AKA36JQDkVcJXOdDDzdnpsxouMyudKsPEM2kX5AiHMdY/fPkRx4KbB7Q+TUywDL57O/iwgqVMb/ZpmhO2bZgOiusLYzAZbD0JoA2YAVTEAVfGk2kR3+PXdwGyBeHF65cHp555qkcTKhpp9hFNdT1v5tTZWjlfJp2FqhMWvgnHhIp+tVkyxqqhtZpESdemtx/95v/iDX0PKARjnW7ZrYwJth8hSf7DgIvlbkXdMYjygAaITFOx6oWrPHOqMDtoZHf//4Phm99638A6M04O5rZHBAIZMAoTVHwlZ6DNaPyCw8Xs7Xt2SobfwGUVockEwJeCj/aaZcBT1DlWYC2iYdQnGQ+wbl3795wl3PjvX2e4OAMUSvruZPL4ZbQGZMD4U8vOBaAdPpp/5HFpaceH1599eXhOUyuzp1vUp7w4o/aq5aqoR3UaKqjiaZ2AAkbmL3dMYTWftUkxORibl0/T086oP/xH8bkzpwiEIA+gAlkB7VpQAEpUzWCGRtBOpDS0DK7VALY7oXpDK1vXCA95Kz2+997cwRUEysItXH3bFRB0wpCqhe+3WfKr11i6ei43Oc9++zT2RLohPTnnZ7Rxiu28woffjMNbaBSZtEpZ8E+0bn90Ud42reHm7c+DLB64QJ/4cJmznw1q97HgKFDJJgxyWizl23qzK1fWBueeurJ4aWXXwTYJ9iP8u4slsTfDGlenbxq6zE/OXH7FUnTkQ6oYysN7aHcjVfot3U0uW5bSkPZYrmGanK/LKBzGmrlcjLKhCkTDxpiilMWdsU2EwVGCFxgYnYngII5cyYIqHsk89fW0VAAvY+GXnv72vCd7/zB8O671/EMjyHl/W/2aP6WRsF7acbkq/Mg734xr8brCR57vYImXLp0KevuMuuuQl3m0VhOlZhwdU7LEFzf1c5uVdBY+yMoe2jn7du3h1sAegtA7/JwwOetTqyN5m0fobFHvM7iwwHNZk6yUA+1zontntm958XHd7Lv1NTu7GwyUV2fPQg5zARd5wmPE/WEcdddJrsDWia2wBTFAjeQjuOOTwJ8rptdQ8/Q0DhFX/oNNdQ3Fpgto8c4Byrypb8FaAvlLJYWKH8HlHVUMDVteo4WuIb68i/CXF7i7W7MiNuT9977gP3nHw3vvX+d/Sg/joKZM1kNk5cDcXugZvYTlmgsZXmLIU7TMkA+iWl7BafjUjSyP8Q2dAnwOkObrFtgNlNO3/RwswYiEd+C8AnPLiZ3dxeTy7NWX12xL2tr60ozAO/xXPb+/ft5qG4dvVq1TLPplsTTokvsPZ944rFhG1PrmNwn68AJnuZ4g72oEzVm17WaW80v4JytHcQ5UM0VXDuSCa2M3M87MTS3XUM5uPjSN//BHKCa29kBfbRyBBSu8CmniYhJ07TgwBVQbQM0mVTiFtgFQI5HFm1gzeEM1jPbP/6T1xPmxAc+apZmU559cAIqyIKo8NVUT1t8nHWRR1mXnnwybxxsbfEjHSbN/BpZa5PM0lXK7WO7HQi3J0BxUvCENaFahdOmFVZ0PItMDNdJgdy9u8vPLvmlHg/ZfXvikONHWdX6vQiIm1kCdnCK1rQsAMiUgpOA6cTxKkwbo23lAfgcmDTNdR7QLosxDInjQiZ6ug3MsxMVCZP7b78xD6iNCmppqF6k2Cjk+dtBIJrKi8RKUCFGKy01vgiYereaXk3WMWegeoU3b94aXn/9jTxVKZPFGoS5PbdWwlcAfVVEM+n+TnB9IP344xeHp59+Ck14nNdIdpgMqwyw2rWfXoKXMJ3tQFa/U0C+gDqhNHflgDVfgHZNO0CdE82rb00Iqo5T11IB1ZIU+JMcV15i/dzE9Co7gax1shQl/UG2gsOX0Bm0dLJaXtGMIDYHKWkoHCvSiVxPeblahygmN4D++t+faWjAVENbJx1T1k9Dx4eQ6m8MKyvw0l+FCGELFxd4QtEAPTwUUE3MDFDXK4GSXGfBtYXeph3b0lt1bZK7bzKonU8++UTAfPa5Z4bHdnZyCOH2o9q0fruIVqrnGcppPh+RI6y0idkURO+YZ0JNoQ8BNIvSRYObJvfJ8ADTa98Ez73zlusmk1MTm3Pa7JNLnrYTjRXM3JWTbHvRwB2BlKaBOXs++qMA/frf4yUxj/4wxjG3zqamoXogAlqTtQma4jlgI6DITGEJ5sOArtLR2hp0QG9FQ1+PE5ItAO3Eu23S1oQpWAHVe3RQrmkbOBSXLz+bA+/n2bT7HNKySKLBRwdmV/rVkyQgnWW1mEKDpBzBPraaoPmxEA8L4qAJNv3RagR0hOLk7GtptNwlwgkIa7cp7jvPpu3wnVbi+NhawDSdLvHV+2KR+efvgCmw4dHG034GcYr1Uzv9wVKcol/++t/l6K+f5aIt0cgGasAUXAYaUBkoiXOA2ivzIirLOqiY3GjoDwH0jTeyTWjV0lnjBWbtKev1EAWHJ7p3kA36p166MnzqxavD1RevkN6M5+k24tHLfj2U27OaICO4tpYlnrVOsXGFhrgTBkZajzh8jM89reO1JJqrDBwBYdZF1suske43zzx89yTLdXTe+ak2eifzkwezwkpeM9qunQU0RA4s2xaA5F3cAlR1Yg39pa8JqL8PFcw6fcmZboBt2mncT0DV+YFh/aUHkZsDTaZhgTozuQtZh3zO6T/4EA0F0Nu3P6q+2T/3EPD1DYE4GZq+MHYN410ivOMtHia/+uqncgpzhQPvTbYUhwcH2Zo4zHOX1uVjrsruoBUIASLAur8sZ8W8XG2y2icna7/TcQimliefdR5z7LqqqbXvghstdVlpgMYizXUt0bb+257Npm0iBaCTZBavMgWjo7jYAKVtfh/KnmCY/Juv/p1oaI7+PKDPrVbOwAxO8LCTvfPJaz2QvWg/AmhzipxNM6foJO8MvfHGd4cP2fvlgoEihkXMWb20hQYgELXTfyRCc/0Ybwa88ukXhxevXskpjE9kTskvx0NOc5IqzvTrfF4HtMbi5HHyqWkInztHfgBTb9Tbqxo338b4sL+2Al9qZzlFTsQl4j747gcINSHlCzOAp4KhnzCQCVnGky6NN15AVqHxEVB4pUeZAPXLMzVUMEdA/9V/+NvR0GGxgZmQNU3wYnJhbNwOIYWcuEQayW49ssgBC2rNYuNuWZYwuwLq0xS93APWQl8C++53v4eG3qFiRpNR1amTjgmCQ85xPJjxtfae8Exxi+eLmFu0U6dok/d7/HcHot0lFfg8fNnvlpemtDZ11SFDBhdwFH6O5wg9ootDEgkr86rVATAUUB+lyda11XSepgBcnDyqBJxQSBU4W+tVZp3wlH/6Z37dZhS4gBo607QHoD78mApm27bo6S7ws/zJL/7a3wqgE4D02eJkSRceGRh3rOdADVzkS9D6Vb05DyhgSiCgml3mLx3yNc06M71x48bw5ptv86rm3Qyyj/AcoACtgPUg3TZoynZ2LgyffvXq8OKnruSR1Bb70TJpMG9Xm+c9WWGfNE1gXXJdWIoZCfFXN3DOpY1anj/JIveExEt7GC3Ckk6zK7+a4MWvatgVS7hafwTJ9V/Z1KVQ5UPAV2itQ7wAdRtU8XKG6lDhjK3L9ExZ8+8U/cKv/M1sWxYAUhAN3QUEXHHzrnYSCmk/nguoad1+aI786DAIqHR4hIA6yb2QtxTusjn3YOHtt95hg76bzjpQBeDd11Db1JR6NOhEULN3ti+whl5hDb2SR1NbnOXmkHuUSIngY0GlR3UpqBKSGug6N2piCCLNEirpKuuh9ext40QEFpVO6JfcDaqNlPYyq/XJRTQmHqsVs4zU6iIMfVhVFrzibAVMlwYnjmBy+ywUQIczT8cA9Itf/ht50XphSTDdPvSQtj3BowNqjleEHtBK+OSQa/ct8xsQG5jRZQFFQwVVD9H3c+7cEdAbw9tvC+i9DLx4UIN2+h1AEbYPuNVOjwjV0EcAzX6P0aV9+qrEP+lSoE1AHcgSvpWsW/XNS47K6gchVqlApSTpM9cz0uaFInFj0tVdjFo57ac6mWWB8AEw28WR76yPGUzykg+f0sxa5+O4sV0pQD0gUUPZ4i1woPGFX/7rvGi9V5oJoIsjsMgogBKqcFwBlAZjcgNs5desK5C7hnZAfXQmqB7Qq2kf8cqmgF6bA1RhCGBpKFPCNRTWrmM6RW7uPRTf2dHLRUMxuT5rVEPV4DhFTjy7A7NP1FAFqqDR6vI4S8AdQMUe0TepM6cKnADaaKWpvwYkyapWvEl0R8YCy9KmlehkMHN8qJnOomFdGQFRwx6vuoIvkGp1gVvmVmfIM93pKf+uFP8I1eTn//Vfy5vzMbXzgHIEO39KpMTr07zZpOb6QftVXiZXQOtFat4kb28FfCygbeanLkB2D1eA4+UyDX1Ssc8rHtsA+ulXrg7uRa9cee7/Q0AFr+4Ayth6eA7QJjbX2/pZZAO0Iy2YCsCr85OXoOamDSZaHCIBxSFyDY2G/ty//Kt5jXMElH/epkxvA3RcQ88DKmC5NGFc3RxrdqOdhAK5vOzP9HzTXA3V5KqhN9HQd7OG0j86Xf2XhydGsfANUN+3iYbyOMuXmruGXrn6fN6HLQ2tZ5Iy+kTttCFvhNQ1qGtmhTUWadQqr/99DZWvrDugpUlq1ey9JAgcV7GOxh1jfcqRqkylHKJHAJXfDNC8wsmwTwSUU6IAqob+zC/+Ff41zt2Y3MVl3G12GVlHNbeCqZebNuYBbVpqvt0j7KUFdIG6CJCrK+t5dKZj1AF123LtGoDyHq7mo4/QtTrmVn7ciB1zAqCsoz6f3N5eH15tGnr16uU84J69BqmYmtntDO3eI5ftzQC1+ONBrYr/t4ACawHmPnl+jcy4ineZXF4sY4w1gZBiB7JI8m3/nIDyca/razsCWmuomgpQ3eR+7hf+8nlAMbU+SozHqxIGUBuSNyH7n4BGhh/XzyqqtOXRUmaDbyqsBFCf2i+haceAuJt96DXeKwqgzmDnhPxk5/pp6FonoHq61Ntnw77Fm3OvvsLR30svDFdeKEBzZtremks/RlDt78NXgZ5vGg2QhpL1sFJmpF9OuHPOU8u3lv3OntA6+UsGeVWmdrqHVrMoGa8ez9goj4bKzEsWLUzarPBroMKr1tAC9JifQcw0lH+N859+8S+NJleHyH9RDNkDgNuYEuzo5QY6MptjFMHTYAGgOLkDuIjUWe4KJteH24s8dXFw/tbTHyO9cw1AiTvrHMsM0OLnsGoTXb8Q6xr6CoCqnZeff5bDef4Vrcxu16AmkDEk6+Ery0PRdSFJLjjpROiTStrtgQfwrlsBHzo1RdpwadWMd349lKb/+q3npc5cnwR6vOVJurSvGFe/4D1Xp/JYWMAAf5GzbOpwuOC2ZWUJQP/JF35izimaN7loXjtUKMDkivaNGlga6XpnOd/5GHYNdd1cXvSpfb0W4kmRPxv0NU7f/BPcaAA9Do/wUkMdQt0K44S3ywVUDX35lRcCqC9g+dzxDC83J0VjHfsyLwLTc5d0+fML8YxxaRQXGX4TZJ8ooE665Jlfd+qmisIt+pFGrSYvYBmmKfnOrs4nIQR17iugLjPc1EsbrVrJmPpNUJ4U+c/Z+INmn7T4L3P6r3JOPiug/BTCEyK1c7ZtQVOhyz5UjBojtyUFWDONEQDFHcjmFEkvoEu8Jimg/mzQH+f6UvUtAH33nffzusc8oDZRJrdG4WCZejktyuF8B/RFNBRA/RHQabYtTNVzgFLth17y5M7fLExTrT2B8U+hqmWGMbssqIlLZ55toCkFjlX4jLT/Z4DWdkRAOWhwjextpJEmfttDSFnkANT3tQ4PABQN9V/mXF3mzY3PvvYT+fVZAeoZpKACGQcM3SGKoP0KaL4m4jraGqHhgEn5OVClwWb7rqjHf0u8uOWTFjXUX2YXoPxyXNnYResH0GrF3Lr15Pg5vk9bttZGDQ2g/BBXL/Es/yzsjJ6KP+Jqgo+wjEPOl5+0mbhZVRZHPFr3EKCQW9daqR9669SdtY54TQKJZlenMaw1Ed4xuRWaF56tivL2qp0NqQDKceoIKD8zOQcoHq5blyXXUE+LvNXQ5hTJLM6QR3sBqws+zcyBSiW0lBWUvKL1YEEN9Z9euYeG3rwJoO++n1c6w0UgczdQ7T0DNSASDfUfyRDQl5rJ7Rp6xD/a7HnuD9PQKG74zL4Ergs0LRQiNsnlVyJJJ8XXfB3rWlhB42Wth/I7oAHNslxtVKlfdQX8YTDLIqTVVm8+UEubyd1/SEN/6rW/iIbeHybL/CYjThFaGkCRUVtDsy+MeNXMhzS0DT7aKSrN5Ap+N88xvQKKht67uxcNfQeT67+nUCbWenAYPVySDLJyZ4Bubs5pKE6Rv808PHyA6RFQ9ej8FdEhx4RjkUKSfTljo5wVMPmKyms+JU3S0uSudMVneebmr9EUoHNa3Xoiv7RBJGAadgcpW5JywmqCtLarSvsuQDW5R/u+J8wIu8n9yQB6L9q5gJYuAep4pjuuoWqOYintC1ikzSkHRkGQkiY2QXMrLeBjGjykdx094R+w2AXEWkM/KEDl4x0wjcuUuwVG3Wv6MnQBipfLGvq8gG6ssJ3ZA1DevlOSuQna1dj0JGGTJOEorMKAolbWVbrlz2pYPbDO1S1Awkve+WsAM7+65hl6VVC96luhsqyCrqmF348AtNstsfCR5JEml8MFnaLVFdbQz7z2F6KhC0toaHOK4hg9soaqcXZGp8hYCV8AqotmkweAAV6zbHweUNdQ/l2hAPougBKfgekkmPGESROcXm4dLPgLrpdfrm3Lc5efDqAHh3uYXAFtR05WnLvGvo15Xbg9pECgKkkfCrTkWdRGZ26nqclQaeN+6q+F4afW4VS1eK9rN4ynnmWkBTxny9Jz18kSYSsPkRUZjPQVcdvSAPWgLBqKl/uZzwMo//DUCKigtjW0m9zSzkBIRYEFqAZkNDRxwVB8rTzaiWmAfjEaipeLhmpms4a+0zW0A1n1o6n2mSvrim8stGei2zxtefllfgT0wnPD08/wM4MNzPiJPxL2/dj5vWjV99sejQIxnqvEYrTAaWEVmouQU5qqRkOXkiQkeSjPLDMrX/pHAQ0F9TpND4u2TLRtF5gSQhqeBl5JJ1KAllPEONVQnaJ/DKAHDdBucuPlZv1kfnaFi2gQfgAVQQGGPTM6OJKqjwC1rQ20boDzfq7blnlAm4YWH6aI/GJ2rZ++x4UXTB9yu4f1pwUC+jyAPvX04/wjUsvMaP6fmemfElDGoZC7tBRjtMM8+tIF3MQbug5wCCJgs6ngH8xK6+Y1dKzdyoouzaqV1lFDBbHdYSvB3DW2i1yzbeEJVm1bBHRz+F8AAAD//+wV4DEAACbPSURBVLWdSZNdR3bf76t5wAySIMiGyW7q61iDW7Zl2WHvvXB4oU2rLbfUtrzwTi01tXN47w/gCC+9d3jp6LZD5gQ2QQDEUIWaq55+v//JvO++QoHNVoTuq/tyPnny/POcPJn3PmD2Hz/+V/PDs/1hZe0i99r6fFhdnQ8r3LMV72GYzWZ+DbNhZZjNuflUek7IzWWVgXI/htZNSP2V2dqwtrY+nJ1eDC/39ocnj78Zvvjiq2Fv79UwSELadGS4siKhEBsuLs5pczqcnp4Npydnw82b14YffPT94cGD94Z37t0ZdnbWqXM4zOcnNLmom9bjJe0xsRyZz4vvCufQoLyyCExXXuKmL4zV1duOGfSSUiqkvm2pf0F4brsQp2wsH1KWbPOIeF9Q97zFUya13ulS34xqPhvOzi6G4+PT4fyMcc7Xh831a8PsPwDoEYDO1s6H1TXAHAEFYMHsgMJ0hA5AiikgOyIAdThkmMtnAuawmgmwstIBPR9evnwVQB8+/Ir4fmhJb6WDCqB+vAT0FEDPGqA3APQjAP3eg/eHeyOgB/QOoMN5eEnD6ddEIAtwS1ALQVMpf61yi0fQ0Iqwm6BH0qaTaFR72rbEBVOADEOnldum0ob9bnVGQMkvhlLHlFe+K0r+bDg/B9Cjy4D+NRp6qoYC6PoFoA4BdiXaiaZeArS0z0Eg9mhnBzQ5QsO9SnkBa3xlZXVYW90AnPNh7ypAA+YE1EuARkMB9eaN6w3Q9xqga2jAwXABoAyvAG0DVgBXXZl81FGoXglMNwEmL/mWJzd1OzCW52oAlZQvtacMbBqgF2lvP0WR0Lamx9t0temWIHXoyDr11er3Dh0xGnqihp46dDR04/ow++lf/8sJoHNMI1oKqLOVqYY6BAHyU2AR4Q8wu4ZSI6aza2g0GQ0lHUDXCtB9AH2MyX2IyVVb1Wwp1cTRYDtRatY7A8/OmskF0Bs3SkMffE9A7w7buwL6ivFqcgF0HCzRK65QjRQtLKHaZCEzY3WNQrceWfMLgFkUvh6Hbi9PF007MxEoGYGSFhWTJrxQirbNbZlxQj+G3BLu6YqZVxp6eny2bHL/7ON/wRr6qjQUMFnqrl5DFbTinjftE1BvWWrrqONNHeo5AYast01DR0D3G6CPRkALQFpCcCVrqZSc4Re1fp4t1tCPfvDhxOR2DT0OoF37qvXV38WqUoK9JrAIrQmwWnVhRozUM6wGFVathXCXy0dQaFeAUhOAbWtfau+ijlQqrYm23Jo9FLheNyVW9mqAqqEX52DT19A/+/ifB9AZTpFraDlFwNGcIjUnyEGgwFLrnOt8q52jhmp6W34H1AmgyR2dom5yn+IUPYr5nTcAS7s7oNJpgE409OZEQ99BQ3eahl7Mj+EDp4jJ9W1XqI4CWQhY4UWq9VXCJLMEOxVuCXvsYyL8RmAUfoFQfQiqpA3U8ySNt7wOmOEIdhoUVetX0gaVZ3hxjvfwnQAFWD3c0SlqQJXZVUOBDoIdzA5s8juYTIBef3SKTi4AsbzcmNy9A4nktragxugSmj5HQ8/UTp0i11C9XDS0vFwA3SmTmzW0mdzSQBp/67UQzCisRKrRCAZ51GwgVZtWI/kl3ALI/Fa7AWY+ADHHDFNO4JQLfUZY/ZheBrq0ufcdwq2/ykvCNlcB+qdoaHm5blsmGtq2LJc1NKZUQOmn7jK5waXlCItemCEGnImxNqxrck/QULYqblsE1Lh6LahdQ9OqpUeTOwH0o48wuayh2bZEQ/Fy0dBsWzT/9Phrr8hXgStMW1S8tytBm5cKCRMtsaZaymxplZZfZE3xaeYzJjeGg7zUtT5g9LiAh46tyG/tQsMMLtull5auBkx4nCK3c0sm908//sM4RTM8XAFdb2uo2xU93cibr1rnyNTZEaxokSZXQK1mnIgC6lsbAJ3NBHSddXkt+9D9CaA6RfPQkYBQtg9x19MAeuZe1DX0dKhti2uogC40tDtFWUMZOtR+zdWE+waBRZhl+xbC7mhAuURPSPtFvEu78gS0g9kniEyNQMJlddF4kS4EF3lF7/KEq0kmJdpfBehPfv7PcrCQNZQ96JrbFqxqbVsi5wBW5lMzsbyGrqgVsb92UYDOMusBXkDZsqyioauA6rbl1f7BqKEvJvvQTBBArMlCS2aUAgmYEw3V5Apo9qFq6LnbFtZQty1OKsf6Ha4SclUcgVlggoY1r5bClBvyyUUwSVWulVp5r1+AltlNi7SbgEq6TDCl0jedUFrmJZiE1iFThaJIk/uahv7k538wP8DLHZ0iAF3TIQqolwHVlDagoFtrp2aO+mZzBcx4t3SpduIQaXK9zwD0IIA+Gz7//MvhhduWXDCIbQ8YoYuGknaWn7KGCuoJd62hH0zW0NUClG3LrK+hjeK3BsrED6EYJOjSsyFx83pYwm71zU/b1Kh6lVOEErcp9eG/TKhti6bdOO0MO5iCKCHrVF7vy7CmaOch9ehDOV+4rUOmSyY3gHKwoMl1/5l96FRDPbkRm4hbc0thQDUPxykmt8xuao3aaYtaPwvQVTq/ANDDaGgAfbEfExPtfAOg3SnqgH70gw+ayfXor2lo24fKj9cbHaOSTYSpBCNHmxCplmm+SCvk1LPuokaiaUMeNC2p4laHYKGd1bbXuRyWiV3009PJ6eQIC1D5MxFJNw09H+Y5U2kHCz/5+T+dH5yioW8CVDBFdAR0WUMLUOac9TK6VlctzfrZNJT4Gevhwauj4SlO0WeffTk8fy6gxbUaWf0UHddQB2EbPdwAmm3LGwBlbhegRc+hv3Z1pEsmJRurB5xJ7ZRXpasALZnaMCQCaEN0kde0Uz+gj1Ft61rZcMmEto/OQzRauiHvZCg59D7NV8KmNblXaKiAqqF1QjRqKIpYJpXGDVDVnFplVskOtJwopZ7V0hXdNS19DVBN7sEC0GcA6tZE5jyU7wf00rHLDqhMn3Cmq8mtg4X7dVIUDX2FUDz7OqcVhPi78upgWpg6CqvilYxYW9NWRkXrlHakVivveXiacyGS/1pzBDBpJrBAamGmIKXLyEcajU7vh7A0tPe/6Eea8sF3/pR2AGXnMOdgYeBgYcvD+dLQS4Dm6E8mJTABSsByUlTQXQY0dWVWkwwitX6uQ8e1dDVO0eFBmdxPP/vV8PzZ3nDGOmAvOSWagCot16Dzc7xctHSqoQ8e3I+Xux1ADxGYa2jmvs2uuJogKIE7CPuXr/StZK0RCac4qQjQWAe0BGpFL4/e4AvvW6KbG5vwMEva0LSiOD45gf8CuXWZvgrMZprDSps8lFZ/Ex4DZPGRros9AB2GMwC9tIZONdSnLc3L7RoaCn5hEpvmlZclYB4+aG5d5rky+uhX6gvoKgQFU22NyRXQJ98Mn3765fDs2X7y5HcGmHq2pamhlpmdhb8DGg3VKSpAXUPPztvjszJmcvGGq6RQZpkqJDtAEWBaVR0KFGsNx9D0pH51UGepJwDmiDc3N8me8TiLPXFPB2AAZdL2K3RIdHoVyk71l7WXzKTGPkmFtR5KgJHE5GLS1dCLtWHLw/mFhuIUAaYmF4XKDT+5Ciy/BRXtg1hSfK02QJNhpymjwDUUQj5lEUzNqabz8PAIQJ8NnwHoN9+8xItFQ+HWWa3Zmq6lmipNWNbR9jxUp6gDOmqoTpGATs1qOF/+mpVUYDXigscS0OuAUjR+rKZkK68oOvrK14oIoPtseT0+PknoVk2ZLD0PtY2fyMmYNNqdkq6x1bsV0ndvM4Y2/E6A1jpa+1D4Cd9227ROkLz7Rw3Vyx1Nsx0V4ILfH5sFUNICc3h4PGpoAAXkArTAXFmFvh3TbdaeBmg3ub/1UTlF7kO3ecB9duZJEWbvOwAq0RqSYyI1ASpCTq61Ikm/E69q1aaqhErRcpLzkZZPh3TgNMWdHnJvgpRmoyfdVBDcml69j3ENrcqTevZsfUOuKaBnymuNB9zR0H/SvNzznBTlIbca6nrmUpjWE0CbUxQ+6cDHbPHd1A46Qc9y29Ltihqq6VWUaujR0cnwFJP7yScPm4ayBjCKrp1dQzNAvjS5CipOEV7ub320OFjY3gbQ72xyMxC4aBe0SzgV8q28ciVOTKGb5XcBMLZOPccqv9Ip50drw9Ry3efWfGZyRjM6pSm9Rp+i6qNraKXtfAG8XcpHuiY60VABxeRubsQpEtDah66sevznGipQsEs9wxoGQEVD+0mRkMmwJzR9y7AAtAbrmwoNUBjJKxM8YXcN/eSTL4anmlxAfhOgcm9ZnA8PFgIoGtqfh6qhAnqhY/JtTlETAkHGMgqqC8ww4qqKEVoTdhNiCdbikkZVrPFqap1wArC2hjZw+abFOV4Lcm9XIKNKLTHprfVZ3VnS+Gj5MhW+/EpZhfbjFaeIvf0Fr6AE0NLQfzyeFM0AtN4ngm0Y0RM3zHbCgTRAHVR9XLfcLpQwK680NEPluG99fZOJsQpji3dgXEM/+eTz4elTANVLAzTXW61CPQ8tKURDGMwyoB7Ov9/OcjW5k3eK+kgz3Mtf8i/nXISBK2FPk9cElyotrg+eqEL0Hi9GTYG8Z40HwFUEtrO7Ha3Ng3ke/QnqhTt/6tZHigWqdCuv+q5068b6lvvF1cOiY07btgDovGtoti0fA6gaCpgzHKI4OWhoea8MP3+Bh6haygx0nUw+bUZAS1gFPuXWznNQNBRgbevTgWPcfJ+2/M3fAOiTl9FaJniEYFtBtW23Ug6kP0a7cf3a8OGHD4b33rs/vP3OneHaLp7l7Iy6ZwjGdUtBeZcAFFYlJAnt0JWv6oNca1QVgBk9TAiUs0Nh+KEO5U22I/0THLWDg4M4Qk66jY2N4datG8Pm1gZ1WCpQHYE1LBDhTTD92Ef/TNisPiyXt3xdESohn7Z4lsuEAdCVC/ah8XIboMMqa6gmFyzqYF5zSqsmBAHJ6yfj4bxF1BdQHSOrWjcxAUWACjFnuT5tWY9QfCD79ddPh//3fz/B9L5khutQQB0NzWSg04i7Og9VD8pdR3ev7Qzv3X8X7Xx7eOutWzx92c1Dbh8onGN2L3j9zbVL4dbaa+iSAOfQX8XbW6OyoWlBVrBqWeqjTU66tHeWwYP1XQdTp4Hat1J7vMH46OvHw6tXvgYzDNfg75137uZVmfUNJjHO4tn5SQHaQFVmgZQG+SRskwoaXtKq0kok23oVaSHbJrTTl8Q0uWuzzWF78wbblo9/P07RsAIwAbRpZ7Yjoc9XgbMAVMAEvNbQxSM0s4WjAC2AFB6ml7XUQ5UA+ujJ8MtfFqDzC+oi2L616WDGmZBchIgQEPD21tZw9627w507t4bbt28Md+5eJ31j2Nr2QfcyoB3UCzxrLyeMW4u1dR21OmOuBwIF1jn1fBDg0wsdHM2obx0KZL3b1CaKacos95XUR48E9AD6K8P1G7vD/fvvwNctwN2mL5ca+Jp7WtSsCIBmEnWzK3QB0MHy1+JiZz2vy6H1vD0bPzpkmwSg6ytbw87mzQ4or1NOAM37uAFLcpq/ZUDjzapBamYzuUlaXf0C1Gh0O1BQO68E9PEeg7U+9PHG7CcUIFZbl1qf1DIB3WDW3+DNv+s4R9eu7wxvv32LPek9NHWb8XWTq4BK62J+AcDBS69bAIXvpCuN1TwqHM6LWQ6O8cINTzGVAvX82YtoYPKoI9gCLNBqxx5Pj5wIq2y3btzYGe69+zZ83Rlu37nJtso9uP4FbQRWHid8RleLvfBINLxU6LfpK8JU0Cc5H44PnMgAOttiwo8aOgVUkGjRAA0wcVb0bl0/vZvAYTGAyrT1RzDVs9I6HaIFoB6NnQxfP3o6/PIXaOjjMrn41dBZmFwHIgCa2mgKjLuOqllb21vDFmvUFluWtwD0+99/H+FdZ0LQPzj1k6bwIiGGolC0DrVGqiHkKedMVLZUpPMAYAT0JCDto4GPHz/NazMLQIsXZVDbKbVPZ3KVSbYNT7djdn0Af520L925tfO8+RxNZYoSl4cY3uJFNuFBXmULbhM3y4KUmZs6ySW/toHHhwWoJndnq2mo7+Wqoa6jZT4VTgGUmc2MzvHdCKhg2Rvd9zW0AzqC2s2op0VNQ2FCwXyNyf3FLxqgOVguQF1zJVxgOADNG8KIRjhUAXOCMM1YN+8A5Ifffy+md22N9W59Ba96fVwny/lh7B6RoeVOjry47QSB7ikmy1vTZVk9BOCoTk2kvqdaL1/sDYdHRzGzAuhdAnbtZ+2WN/hSTk60m7eu4bDdHt5//14m2uYmsuMFvNLMAlWvd9TOBpK0EoXWbwyoa+gKgNYa+sO2huItanaZTaWdAKpwM4sBB0EuNJR0BmHdxSQgi3zNWdNQJsBUQ51VVwHqWxCZMPSVPmnv4JSYmtSdIjXMgqxtzPZr17cQ3FvDrdvXhg0Ep0ne3Npkg70x6JTo+MiJE0IN9KD8+Og4Xqke6tERXuorTOxxrZVqmrQLNDxItiJH1LetJlY+EspcJp4TEMfKPuBtbW0lZlaH7cEH93HcMLu8VbGxDhfIVe2M6QVQNXThVTvW/IXWlWbWKm38Bo7LiXicNZTJrFOkyf33H/9wfniyxzKGhgZQgdSUhmdC1zcFLlCaW9a6kLPcurRL/cxTSgSbxu5ZbdsO6NfXdYpmOB2va6hvQVivr3FpH4EZgxakNbklTN9icK07RCNnaMEuDgggbuG2b28MO5pkbp92xEOlvQ7SCWesappPezx+PMLbFsyXL44DqON1aXVCdbOt4ArkshYx3QreAjlDLmu+hEXctVWQfP319p1rwwcfvDe8fe826/0mmotnnWpoeHOSCtA2JicLk92L2JtBHfu2IuPCqsTksm2ZAPqP5gcnmlz01rXQo7wA1TQ05hZwJhpaWkg5XUerbWdcjgJoaanr4hoermtoti0wdIZmPH3KwcL/f8j69AIvTVMnp7YW2NJSZ34eqTWNV1P7jD49PRkODg/o75xty0bA3Nhc5YkHoGL2Njc3sid0XZNXnSotgwfnapyhGnqIQ7G/jwPEXm5VPwFTbpsccBS6tG+CFsOlS0B1rDbCl76B3qzKcPPWDm9V3MP0urXC+2S/vAmovoQXLcUtPef3C32SimAnb3ilhlqHiRS4icuXGnqSbctlQI8XGlraJpg0yoxVsAgG5svksniFHN/RzKnJdfDc0U5n+vqwwYDryQMuPDPR4z9fFHv8+Bn70OdxjF7tH4c5NTj9BEz74wPQ3UqoPQ7KX6QdoaFu0hWUa6fy19PM+iqv1B3NN/2qaREg66ma7i0vbs4pqr5sIyGH0SRcAflkQTCTrOpQj0KsOfxgzo+PSJ4P60wsvW7X0Tt3r6GhW9zbcZicdH1venR0EK0mI3Ql7/VdwJQndC68vwbon/z890YNnX+bhtJxAB00uTAB++zgGGMHVHa8HLoCRbiYUbcrmlM1EBkG1GN+j+GbC99w9Pfw4ePh+Tf7AMSMRcAOsA4k1C4AxKJLM+shApV8ral1+qJWdYtiTflywEjGb5MVtFCQi4ghVyxDywv9yo9gadPtTnIpz9m2suDWarjeutZ2QDeYYLssAbcwu2rqDcAUYA9B3Mb43paHDYdYGLc72UI5icJLMbkEqjxMNLNrqGPwNc5j/ACP/kaTG0CXNBQK0TwC+okJvGINLbkAKLNy9IzDlMwpZADhVjuBljzyIzzXJWfXMLzgJTF/EvH0yQtM3xFrmetQ9RmtJu5pSPcsBUNgPQD3gEBxe7SWs1KRc9p6BUziLWm/PeokqYswmaZb3ghor0NJBtpISrq1rvlSGut5rQ+25UPA3FLpsBWQgHqzbh/3rW1oZTCVJ8dot7JDLovuAp5djBPqEpjVr0N1DYWOMpsC+u/UUADNtkXHSC2drKHOIE2MZrc7RXJQYy8N1Wvx7YVcAa1msBqtNpdmV56pAnsN03s4fPXVE9bUF+z1DljT8ChZ2zSH6U8gYElA3VY4SCeYYPqGgDycnvlAOWocvosHeWEuUz8AkizuFnA6hrp6aIp4A3WRa4w7gi06oSVteFn16QrxM9ZEtUdHzWXAdVNTe4ttjGZX7dzcYn3GacIVQqvrQXhpfPUWEOkNctVf+izmpZ18irxGk/v3BWgOI+wpgCo4oGMt1YN14EkzKZwgngrpJDm7fK/oJZrqW/T+dlSQfWaqOXEibHhkCE0dmf7MUa3Rg5XWvE+khAUbTJRURgkIiMxxRXYlwHyH3ypKmYD2K7Ik3dpGW3Geqgojciys2zUmeNrg4ANvW/AK0J3sRXdICyRTE63ECcPklhPlgUS1t5POrsD2O0OZlHXW3gzoX/1uNLS2LWond85xnYGNaQFpJrReEjOtbKxfnl06UhYKiDu6IKA4Ota0fbY/mkzA9Cf6KpZHba8wt/7OxU38M56R7vEjpsNXx1mj8vIVk+M0hwGLPWLxBl0EAnvtUmhN+kqnS6gXJwzjFWtV5W+8JlEthWZNMnq+cbo4n/VM2LiWYgNLsU7ovSGYbJ3cPvnEJaByWrS+gacNkAETi6JV8db0dq+6+m+ghvUG6gTMrsFhERm7vz45wnJxODOuoT/+q9+ZHxw1L9c9pQcL7WA+QkNazsDFtqXtQyMX6mYNpd0oCCPCWWBe4EVCMGBmPc0aWCdHaqry18yqmc+fv8Tzfcaa+jzAusdyzfRecQsSTXcNqv0hQ4avMEIf9uPtRZhoDys33716z+pNTIf1TMU0zztQnpWy6AvKRrZFbEHYFnlwsbPD2sjjsp0dj/g8QADYTW401UOGFU6vfL4cI5unLoLq0R8HGfH2fBCCbDsvhNbOH4PMp/HXwexhraGYemQ3P2dy9YOFH//lb89fdUBzuKBmQoX7ag3VGalBx3ni9MM1tNpEIgHTOmqn747W4bsayswWoMxwQWVbw4GDmnDEZl+z+803z/F+n/My9vNhf+8wYOtNZuCxEmUdugzKYrZRK4lcFRY+fDdNjRlLHUQlW2qg/HG5D10FBJ+QqDVqoLwfs0e13QZbow3A8tBiQ0A5ULh2bReTejvAanpXAbBMMASRX4BsmunTljwXZTDmR77yAnvy2S9b1V/xaH4HsYeWe8vfKadcA0+sVmdYBM9y/7gDiunMocJ49EdHOmBqaBckmuZJ0ciC3rCAaqbpwQmgZtpGrdT0ZiImrzRMQKt8FkC3t3zC7zu7HsVxYMATDk3u3otXrK8vh2c4TPtor8dzXfiunx4gKPT+r4ZkhPTqleXA5QJJaSq9FEZOfThkcD/q1sdz3CNNFsLZ2l4FmI1hd1cHhtMmTKlHifal4zOaXNdu+nWCbQPu9Rs3o7GCJBh1AiRNT4HUxNLIOYIwr9b8klfnWXx6PNHQaTGZ4+pgJjSrmVwPRQrQdpb7o5/9Nib3ZR39Zf0EJEzuVEPL1Gka9Oj0dhWSdWSsti2mlwGlDmtov1Pm5AA826sdaurW5hZrKq9AKvB4s7riHBwcnLCt2cvbDTpOrrPuX62jgD3i08wJUg0ZsrkqJQDFj5kKWkAB07VYQdNOevv7vAJK2e61jXijeqX+Ww67uzvcu+Rvo52e20ml38T4s381Vo0ObeiesR/r8QK0gNSK2Wh04npawqG8CBuGyyBaywL/uEUgGqoFaSZ3x7PcH/3FP2wmd6KhedJCI/CIM0MkWiVAAdUCAIzpYIYkNG19gbdeAZr3eJvWdlDV4zBFXd/DEWTbdXNsW09wYobRVL3gPW4PIzzCs60mr9ZV+lEl7W8imKQigNKaEVAmhNriIywdspcv68TpOvtGDwLu8Bzz1q3rmFOBvU4er5Rw2O8E8Ew4T22gYRzKkZG0M0mckE4aJwzlrpNqZfE1BdMc870YjJQMEjckVhnLIXV6vlUF1OO/KwBtGhqHqK+HpXG1dhWg9T5R01AlBlM5nA9z1jdPQI1wu2Vpe1ELyxwbAmhqUKpTAJjWd6Z7iJ9DBdKC6kNk96ceFwpA9zrjpKVt6wsKiysjz+AjAE0dAqpbjbZ3LIFnwph4j+x8JXTXveN1X2vZIc1xHeF1QNX05vEaJzs+GMhPHIlrugXByRHABVOwBZQy8y3PpV8yuWJ+Set7hJ8UV52eDr+2Ce+JZAzGdIr+ToDWoUIXejO5ECvwJoCODBdgBaZACaoabWi7DjYmCwB9sco811DNcDQcjV1t67YmXrl5YiQd3yLUVKvVDl8B6lRNL3vogqx4lZaFKCH25WLeHjpzIEel0pqSrUuC+0reWmTi1GspvNXQAD0HUIWg2dXTLg0uMOvQvU+cVGtfxYffNansqfEuaD1urIFomPotTH3knzw1lH+34pKG6uV2DcV8tj2otl4BOJh6AlLgTNfQ6Jlbnaah6YU2zp6uqVMNZVQBzHri71qo8+E4jtrBgYu9feoB5ylNe2PQfPevm5s70WI11CsnSJcATYFfEUoJxInSHRvIA4JbBveBCt5/rYxTKveHTCzPZr2VoY6Xl+thPSRXMzWpTDD5RHv1vkpDyxSXdla/gp5JnDCkCrYAZJ2q14GrtOt9gWqL5TIzGqBYME3uwBo6erk/+ovfme8H0PJW86YCg10AioDVrpjFDmqf987o6RpqfhtAzG0BqGaZH5AZWMXdKrBNwGvU4zziLDSzHmYLaJ0lhIWmOl+QYXjwxW3z+7oLsSYSY50vYshJwfv8VfqutzkMyJYJjiDro78VXwFFS32cpUPT18mskTGZ0i2hqkElXGNcggSYxjugAVNzazkXNcZ6I3s0CAXCbPdMTzWQ0hFQidtD/pIwY2Fy0dDFtgWn6I9/9kMAfTFczBj49MlJNBUI4i0KaAeih5K1F1knVKP9tHqCWINppjajWZTbulsA15P693ZETa3wtf4yrWbYhRrhzHQvK5h19z5Cza+lS8dEQBWy9QU0e0zHFC3VjAModwGBE4NmuPZla0NJBB05Okb/8pW42bkBI166QNK2ntt2VtqY6XN6iV9NBSlwTQA1ar9j3ykzXVVDyTqISz8jvw+90Nrx25Y/4d9Y2D96PpxeHMGIx3jUFBz5Dqgy1Ah1UHs62a0X4mkTTa5BOPhoJwVpktDYgkAmAJwGsIin2tZ+teq28aRdJop0Gi2CBT2j04uGaqftq75jkhcaZYzy7oSs9a4LkFYFVL5LuHwX5ca6qdz2wR0KLW5/oWGFMGh/1Xz8toxalZ1ECKZnk6FVYStIP9VpI8cE9/DmnBcEjtlPb67vDrMf/+wP5nuHzwKo3p6mSK3MOhNw5al1KA8TxhJ9LV3aHLG1wQQ0m/a0dLgWVBlYT1CnSE4Ip3LPNfTuFsHCq6+RQqf9WjUnroXLFZKi8TQ3YJsDfx0sy82vNN9pYMp82xsrPSRSbBum3lJJy0uj3rhCq4dYo1+EoSqD3JwS6RgdckwaQP/oP//+/OXBU6Dkh6ucO25s+FAa0+RbALbBhISxceCNm86VDLarZn6gzMArLeN8oFVpIpMrAilJJDelAX5aaRJ3IFydimGfMCmYfNUk6fxOCl6LTutAsRHvuRk/iZKDoXKRSHIi8JJzKoV66lhOQaqa25keM1K1TeaWmYZ8aThs2dPSMekXVxzPHK2Whp4c+yI6vz77t3/+e/MXr57SnoNwfBDfyxFUzzTV0r45diaHtRBMLyFcPbZoGBY8I9MwqQwooLbqBjXgYnKS/WujBRYk6avLadpoKe83Id8aTptktE2QKoVXJQusmpSVn7IGoflZT81cYog0RMcs6iVOXuia5k7cisVAwgBqGh8layg/ejvnAbe/b7m2y1nuv/np785f7AMoTpEPPzqg6wDqctjPIGsahXJxU71ImVh6iBaaXgZ0mk7pOJBqVd+W/KZXh/KyQktnIaxvpzrWa9XCDZlTrkqwi3H2sgiXdgE07ZskqGCdym/AXNlRddp/WV6N0tDGVdiBNV1ECWRQEHlSdaz/UduWG9fvoKE//eH8OYCe+483NZObJw4+/snA3JZIyUMEwqhGKCe/g2mdbvpKa2icv2mo1spnvoz82usqsKaNAuolcpeS0+rLcYeznJOR9qyujWb2cTpyr4QKuwoTdgyqnBIqqaGtttmvXxSHhxCk2PppYth6bXmjdqYuDybQzuNDlkR+7Luxtj3cvvXWMPujP//DaOjpOQ+UdYrQytqj0ZGuPQBGqD5ZaWD2cAGufNILFbsJnIJradKTcvNeuzKyrneUkr4s8OU2fYIs5/4mqSVhtoYjkBNCwYV0lRVYjrlk3dIKGoKRd8Aok1sZE2LTqGKzWesgQYsHUImFVoXVoZ3oDA0ci/JwxJ8Sbl4b7t65x785/5f/ev7NM35BdbjHsz+2Luixb//VSYqnOZ6wyIHAslJDqwA1nt4srCtlJWRhkVEqL8IGaGW0NpOg159k1USYZkziqT9JXxn9tkqRfIZUTVta/np0SnMx2iotuTdQGwjjZKAKJcg/kSJzBS8RIaU9LMCqrUxU+6KTLkJPBv29LW9yHPMYcpW3Cq/dGd5+671h9l/+23+af/nVF8PXj/0nw59zYtP2o2xf/L2Ir1ZwyMIFdXoNmB3IHlrGBV4BwJCYXyMglSXYDeCUXvoKgWmeBCUyzZvEq9uFMFpRy15qNwq61VkIcFGtdzO2v0xPgCbdK3zTS3ljuSCMiUWkDWmRQazVm/JkZtZgjwDdS/ejQOoWsD6h4nh0xgOE3TvDO4D57rsPhtl//5//df7Fw8+GLx5+Pjx56m8d9zjHdD1VOz21aRqaZ58AymFDcUA4Aip7lPGdV0JMcgW6SKlElfLXQKu69U2NVOp5le7m29w29qqQ2Vq5XRhT4MKR9Lim+aZ7fQm6UxzTFk6uy+0KJLmo/ahVl3iatL0cbazQtGJjeiSw4KNAuwxmqwhTPDrgOS3PbHfuDndv3x/ee/cfDPcF9H//n/8x/9VXD4fPH37KL6sfDc9fPOfB7yG8uP/0mZ5HY3Wa4qiXNHRpKNVZ8TqyGnzqy+GpoQaLcnOXrhRV+VV1x7H3Roz8MhiC0OuN8ctdUsGs3tbwcpWxix6BagHa6ZMey75bJH1Mxt/7761TTicd0ERaJ+E3bXVueFV05+bw9l3+y5N3Hgzv3/+A36XeH2affvW/5k+efD386qsvh6+fPOJf93rGqQP/fh5rqU8fTk75KR3vxQjwCOg4jNeHM+F1HHwffpimwpsEVwWUjhVafEJ0uUdSZghqk0jKSSS7hRYmf1Ir9ck0HMFs6UbqtSA0FDYliSck1hOvtVjOSJ+TsSRtFdqP8d5ERBtdy+qfztNaehLnlnKdZ7d3hvv3PhzevfeAf/vwe/Fy/xZDr5QRl0dhHQAAAABJRU5ErkJggg==;" vertex="1" parent="1">
          <mxGeometry x="390" y="290" width="50" height="50" as="geometry" />
        </mxCell>
      </root>
    </mxGraphModel>
  </diagram>
</mxfile>
